<?xml version="1.0" encoding="UTF-8"?>
<svg version="1.1" xmlns="http://www.w3.org/2000/svg" width="2560" height="1280">
<path d="M0 0 C844.8 0 1689.6 0 2560 0 C2560 422.4 2560 844.8 2560 1280 C1715.2 1280 870.4 1280 0 1280 C0 857.6 0 435.2 0 0 Z " fill="#E20714" transform="translate(0,0)"/>
<path d="M0 0 C2.04871184 0.0182638 4.09696692 0.02050848 6.14575195 0.02026367 C18.08513705 0.05068842 30.01483448 0.42697781 41.74145508 2.83081055 C42.57773437 3.0012085 43.41401367 3.17160645 44.27563477 3.34716797 C90.27214023 13.29990454 129.4259874 40.81842441 154.83911133 80.18237305 C171.39791706 106.41314176 181.85800131 135.93362042 188.11645508 166.20581055 C188.40794434 167.59968994 188.40794434 167.59968994 188.70532227 169.02172852 C194.45829436 197.21932386 195.71734534 225.53207849 195.11645508 254.20581055 C195.10098633 255.29297363 195.08551758 256.38013672 195.06958008 257.50024414 C194.24857771 311.1134089 179.7355316 370.92560728 145.11645508 413.20581055 C144.68187988 413.74044922 144.24730469 414.27508789 143.79956055 414.82592773 C134.03220999 426.79657052 123.54862382 437.02381756 111.11645508 446.20581055 C110.53653809 446.63539063 109.95662109 447.0649707 109.35913086 447.50756836 C98.69791667 455.28567408 87.17431873 460.91543182 75.11645508 466.20581055 C74.42471191 466.51534668 73.73296875 466.82488281 73.02026367 467.14379883 C61.52453957 472.20728736 49.44339396 474.49864978 37.11743164 476.66967773 C35.19257485 477.01355875 33.27183687 477.38190971 31.35766602 477.78100586 C22.72091152 479.47466409 14.19396401 479.51015869 5.42749023 479.46655273 C2.8847639 479.45588734 0.34275304 479.46647311 -2.19995117 479.47924805 C-16.23274762 479.49253297 -29.83274341 478.30020015 -43.50854492 474.95581055 C-44.39606445 474.73965088 -45.28358398 474.52349121 -46.19799805 474.30078125 C-63.20999896 469.97530422 -77.49172929 461.43923831 -90.88354492 450.20581055 C-91.89416992 449.44268555 -92.90479492 448.67956055 -93.94604492 447.89331055 C-97.5007264 444.64115515 -100.38881443 441.06032147 -103.39135742 437.29956055 C-105.11100413 435.1648267 -106.84145546 433.06558669 -108.62573242 430.98706055 C-109.09470947 430.44049805 -109.56368652 429.89393555 -110.046875 429.33081055 C-111.36677649 427.79787313 -112.68952385 426.26738743 -114.01245117 424.73706055 C-117.82861019 420.04344456 -121.32556308 415.09803559 -124.88354492 410.20581055 C-125.21354492 474.22581055 -125.54354492 538.24581055 -125.88354492 604.20581055 C-165.15354492 604.20581055 -204.42354492 604.20581055 -244.88354492 604.20581055 C-245.49802281 569.08171732 -245.49802281 569.08171732 -245.65203857 556.88787842 C-245.66263792 556.04888605 -245.67323728 555.20989369 -245.68415782 554.34547731 C-246.13889737 517.41600604 -246.02933868 480.48039338 -246.01884437 443.54881502 C-246.01652818 435.16155962 -246.01628888 426.77430625 -246.01736069 418.38705063 C-246.01751392 417.1740025 -246.01766715 415.96095437 -246.01782503 414.71114721 C-246.01814489 412.24371514 -246.0184691 409.77628306 -246.01879762 407.30885099 C-246.02161986 384.40575667 -246.01841693 361.50266641 -246.01299725 338.59957276 C-246.00852878 319.11545208 -246.00931192 299.63133737 -246.01391602 280.1472168 C-246.01931423 257.29309806 -246.02134902 234.43898283 -246.01830375 211.58486354 C-246.01798534 209.13046765 -246.01767096 206.67607176 -246.01736069 204.22167587 C-246.01720641 203.0153376 -246.01705214 201.80899932 -246.01689319 200.56610534 C-246.01604388 192.22419552 -246.01747388 183.88228803 -246.01984024 175.54037857 C-246.03287365 125.42005241 -245.97071103 75.31626818 -244.88354492 25.20581055 C-230.7324163 25.18491691 -216.58129653 25.16575281 -202.43015575 25.15555668 C-194.8417772 25.15000497 -187.25340958 25.14294551 -179.66503906 25.13037109 C-173.01908327 25.11936354 -166.37313623 25.11353433 -159.72717094 25.1109333 C-157.18531546 25.10907853 -154.64346066 25.10545694 -152.10161018 25.10008049 C-148.55503031 25.09287387 -145.00850002 25.09181944 -141.46191406 25.09228516 C-139.86833069 25.08689224 -139.86833069 25.08689224 -138.24255371 25.08139038 C-136.80167137 25.08345238 -136.80167137 25.08345238 -135.3316803 25.08555603 C-134.49192689 25.08463424 -133.65217348 25.08371244 -132.786973 25.08276272 C-130.88354492 25.20581055 -130.88354492 25.20581055 -129.88354492 26.20581055 C-129.59766742 27.67018436 -129.36860188 29.14574705 -129.16479492 30.6237793 C-129.03758057 31.54271973 -128.91036621 32.46166016 -128.77929688 33.40844727 C-128.58339966 34.88595459 -128.58339966 34.88595459 -128.38354492 36.39331055 C-128.18281372 37.88241943 -128.18281372 37.88241943 -127.97802734 39.40161133 C-126.98142673 46.99399673 -126.26215152 54.55534619 -125.88354492 62.20581055 C-121.76641301 60.0617678 -119.60684456 57.84029072 -117.00854492 54.01831055 C-111.40172839 46.04907132 -105.38741122 39.41355448 -97.88354492 33.20581055 C-97.13331055 32.56772461 -96.38307617 31.92963867 -95.61010742 31.2722168 C-76.30153949 15.2442308 -54.02714579 6.18283406 -29.37207031 2.58691406 C-27.57280324 2.31136654 -25.77802495 2.00595043 -23.98681641 1.68212891 C-15.96607394 0.28901682 -8.12360634 -0.07451074 0 0 Z " fill="#FEFEFE" transform="translate(938.883544921875,415.794189453125)"/>
<path d="M0 0 C1.66919599 0.30119629 3.33846401 0.60199377 5.0078125 0.90234375 C16.77700278 3.10801803 27.82076362 6.75274247 39 11 C40.04462402 11.39106934 40.04462402 11.39106934 41.11035156 11.79003906 C72.07489036 23.43780819 96.65146177 41.5678919 111.04980469 71.89208984 C117.46461288 86.12267924 119.31547924 100.60627742 119.2515564 116.12796021 C119.2560116 117.99296136 119.2560116 117.99296136 119.26055682 119.8956393 C119.26681638 123.30295388 119.26433633 126.71004959 119.25803804 130.11734962 C119.25346393 133.80941686 119.26056542 137.50146425 119.26634216 141.19352722 C119.27493879 147.58024977 119.27679202 153.96694463 119.27439499 160.35367203 C119.27128233 169.6093566 119.28298911 178.86498065 119.29894479 188.12064992 C119.32485844 203.16962056 119.34490098 218.21859125 119.35839844 233.26757812 C119.35920881 234.1665524 119.36001918 235.06552668 119.3608541 235.9917426 C119.37206662 248.7383429 119.3773554 261.48493884 119.38024123 274.23154341 C119.38054721 275.5772761 119.38054721 275.5772761 119.38085938 276.95019531 C119.38105931 277.84624277 119.38125925 278.74229023 119.38146524 279.66549064 C119.38520956 294.65454788 119.40437165 309.64353925 119.43595374 324.63256347 C119.45477392 333.85400395 119.4608885 343.07527474 119.45013656 352.29672901 C119.44377525 358.62618297 119.45197563 364.95551604 119.47119068 371.28494354 C119.48177887 374.92499652 119.48618628 378.56475523 119.47271919 382.20480537 C119.40134857 403.13044189 121.43508947 421.76139885 128.25 441.5625 C128.96725308 443.68755301 129.6809786 445.81380097 130.390625 447.94140625 C130.70032227 448.84576416 131.01001953 449.75012207 131.32910156 450.68188477 C132 453 132 453 132 456 C95.7 456 59.4 456 22 456 C15.17453198 430.97328393 15.17453198 430.97328393 13.25 422.4375 C11.61255328 415.0686228 11.61255328 415.0686228 9 408 C6.04527655 409.31520014 4.13754751 410.66853652 2.00390625 413.08984375 C1.45210693 413.70400146 0.90030762 414.31815918 0.33178711 414.95092773 C-0.54401001 415.93428101 -0.54401001 415.93428101 -1.4375 416.9375 C-19.61269369 436.81148781 -41.31758597 449.19552762 -67 457 C-68.07459473 457.33644531 -68.07459473 457.33644531 -69.17089844 457.6796875 C-100.4481205 467.41355981 -134.80847861 469.69555062 -167 463 C-168.11012451 462.7831958 -168.11012451 462.7831958 -169.24267578 462.56201172 C-199.00128352 456.67805665 -225.28197864 441.96182284 -247 421 C-247.86367188 420.19949219 -248.72734375 419.39898438 -249.6171875 418.57421875 C-273.0635516 396.25999995 -284.92830112 363.95611202 -286 332 C-286.02723145 331.25621094 -286.05446289 330.51242187 -286.08251953 329.74609375 C-287.18894792 295.50944184 -278.04366029 263.4615013 -256 237 C-255.52046875 236.38511719 -255.0409375 235.77023437 -254.546875 235.13671875 C-243.07160121 220.79262651 -225.41593625 211.57114301 -209 204 C-208.26652344 203.66081543 -207.53304687 203.32163086 -206.77734375 202.97216797 C-174.42724505 188.21902476 -139.22383229 184.65330136 -104.31225586 180.09179688 C-94.95377729 178.86317174 -85.66023625 177.47688922 -76.37475586 175.78344727 C-71.48680209 174.89613353 -66.58422604 174.10595475 -61.6796875 173.31640625 C-59.88929378 173.02556995 -58.09892935 172.73455322 -56.30859375 172.44335938 C-53.58700149 172.00103324 -50.86514337 171.56093178 -48.14208984 171.12768555 C-19.13309933 167.52233426 -19.13309933 167.52233426 3.9609375 151.7578125 C9.70280783 142.04412209 10.50729873 130.66361525 8.3515625 119.703125 C4.83890266 108.11434981 -2.24467087 98.64404665 -12.6484375 92.4140625 C-41.14255548 77.36489027 -82.12375779 74.57092646 -113.0625 83.60205078 C-121.5722399 86.41963579 -128.50452794 90.8907452 -135 97 C-135.62261719 97.56976562 -136.24523437 98.13953125 -136.88671875 98.7265625 C-147.81852572 109.87946219 -152.07483646 126.92810418 -157 141 C-193.96 141 -230.92 141 -269 141 C-269 133.4942915 -268.8105906 127.04482988 -267.4375 119.8125 C-267.26186523 118.87760742 -267.08623047 117.94271484 -266.90527344 116.97949219 C-259.61261074 80.02591566 -244.30968743 46.05845682 -213.25 23.375 C-202.499486 16.19648664 -191.30141938 10.05992457 -179 6 C-178.00871094 5.66613281 -177.01742187 5.33226562 -175.99609375 4.98828125 C-121.93667642 -11.79335382 -55.1393096 -10.59911141 0 0 Z " fill="#FEFEFE" transform="translate(540,434)"/>
<path d="M0 0 C1.82476868 0.00422974 1.82476868 0.00422974 3.68640137 0.00854492 C62.2181932 0.2113485 125.35666352 7.24634432 168.8671875 50.609375 C192.83309829 75.98504525 195.8696448 106.38570841 195.86451519 139.79064417 C195.86617159 143.35445793 195.87933436 146.91823283 195.89105225 150.48202515 C195.90981269 156.64226123 195.92159438 162.80247781 195.92859077 168.96273804 C195.9388223 177.88656896 195.96092669 186.81034125 195.98597669 195.73414147 C196.02646724 210.23974077 196.05896945 224.74534574 196.08569336 239.25097656 C196.08729066 240.11697231 196.08888796 240.98296807 196.09053367 241.87520611 C196.09213257 242.74225198 196.09373147 243.60929785 196.09537882 244.50261784 C196.118064 256.79309123 196.14270539 269.08355867 196.16967773 281.37402344 C196.17157388 282.23895011 196.17347003 283.10387678 196.17542363 283.99501336 C196.20727475 298.45072419 196.24302954 312.90642392 196.28071922 327.36212063 C196.30365719 336.25659388 196.32264684 345.15105969 196.33638596 354.04555202 C196.3459636 360.14457879 196.35882698 366.24359282 196.37419481 372.34260774 C196.38289788 375.85246477 196.39003482 379.3623062 196.39283562 382.87217331 C195.86246069 408.312039 195.86246069 408.312039 199.75 433.3125 C199.96487061 434.14136719 200.17974121 434.97023438 200.40112305 435.82421875 C202.0949798 442.13345774 204.21255807 448.24260891 206.68237305 454.2890625 C208.02505522 457.60498039 208.5625 459.65326637 208.5625 463.3125 C172.5925 463.3125 136.6225 463.3125 99.5625 463.3125 C95.06562336 450.94608924 95.06562336 450.94608924 93.96484375 445.71875 C93.59842773 444.01912109 93.59842773 444.01912109 93.22460938 442.28515625 C92.86592773 440.56619141 92.86592773 440.56619141 92.5 438.8125 C90.75217335 430.56943424 88.88216551 422.41545521 86.5625 414.3125 C81.49267104 416.84262258 78.32923843 420.65619605 74.625 424.8125 C46.82647974 455.16052802 7.74918338 468.46220078 -32.4375 472.3125 C-80.51247679 474.32566444 -126.9082923 466.01261479 -163.68603516 432.69091797 C-166.302763 430.26482771 -168.87034601 427.79100917 -171.4375 425.3125 C-172.10265625 424.71050781 -172.7678125 424.10851562 -173.453125 423.48828125 C-189.66915863 408.44677342 -201.37908163 384.88082403 -205.4375 363.3125 C-205.57140137 362.64009277 -205.70530273 361.96768555 -205.84326172 361.27490234 C-210.16378728 339.0599166 -209.47988751 317.31564552 -204.4375 295.3125 C-204.15705158 293.96885437 -203.87706317 292.62511259 -203.59765625 291.28125 C-197.20285297 263.69813537 -178.41039238 238.06640808 -154.63671875 222.8203125 C-126.74712727 205.60463941 -96.25605352 195.44832844 -63.8515625 191.1875 C-56.21436797 190.17355764 -48.60814863 188.96246594 -40.99655151 187.77438354 C-28.51151679 185.82588138 -16.02896167 183.95814205 -3.5 182.3125 C11.97318898 180.25714218 27.2514319 177.32618314 42.5625 174.3125 C43.90722596 174.05474771 45.25203521 173.79742957 46.59692383 173.54052734 C47.92272003 173.28368979 49.24848596 173.02669594 50.57421875 172.76953125 C52.337052 172.43078979 52.337052 172.43078979 54.13549805 172.08520508 C63.41728211 169.99238991 72.40922817 166.89135254 78.5625 159.3125 C85.23399177 148.3271113 86.37147825 136.28347868 83.375 123.77734375 C79.17602349 111.03910251 72.66063674 103.04544196 60.8125 97.0625 C41.719849 87.90477048 23.25756981 86.03735972 2.375 86 C1.16302948 85.99462219 1.16302948 85.99462219 -0.07342529 85.98913574 C-22.41191292 85.93592326 -43.56550433 87.99214322 -60.6875 104.0625 C-72.20284496 117.11322429 -75.11661817 129.24611906 -81.4375 146.3125 C-117.7375 146.3125 -154.0375 146.3125 -191.4375 146.3125 C-191.4375 111.59033109 -179.90992418 74.53302987 -156.4375 48.3125 C-155.94411133 47.75868652 -155.45072266 47.20487305 -154.94238281 46.63427734 C-138.50169134 28.50749579 -117.53810446 17.58553702 -94.4375 10.3125 C-92.70886719 9.75949219 -92.70886719 9.75949219 -90.9453125 9.1953125 C-83.10657042 6.90234713 -75.18084112 5.48004841 -67.125 4.1875 C-66.16150635 4.02878418 -65.1980127 3.87006836 -64.20532227 3.70654297 C-42.9509972 0.49023886 -21.45876789 -0.07242842 0 0 Z " fill="#FEFEFE" transform="translate(2101.4375,426.6875)"/>
<path d="M0 0 C35.64 0 71.28 0 108 0 C108 206.91 108 413.82 108 627 C97.87461364 628.12504293 97.87461364 628.12504293 94.24867249 628.12698364 C93.42301788 628.12980347 92.59736328 628.13262329 91.74668884 628.13552856 C90.87516678 628.13350433 90.00364471 628.1314801 89.10571289 628.12939453 C88.16151489 628.13114685 87.21731689 628.13289917 86.24450684 628.13470459 C83.15387076 628.13907169 80.06329281 628.13620502 76.97265625 628.1328125 C74.81554656 628.13348662 72.65843695 628.13445755 70.50132751 628.13571167 C65.99688997 628.13718133 61.49247233 628.13505618 56.98803711 628.13037109 C51.20522272 628.12465019 45.4224545 628.1279723 39.63964176 628.13394356 C35.19341175 628.1375485 30.74719278 628.13641131 26.30096245 628.13381577 C24.167434 628.13314755 22.03390456 628.13397125 19.90037727 628.13629532 C16.92973268 628.13882331 13.95916428 628.13498025 10.98852539 628.12939453 C10.10283371 628.13141876 9.21714203 628.13344299 8.30461121 628.13552856 C2.2285379 628.11426895 2.2285379 628.11426895 0 627 C0 420.09 0 213.18 0 0 Z " fill="#FEFEFE" transform="translate(1594,262)"/>
<path d="M0 0 C2.10591688 0.01084254 4.21100119 -0.00003561 6.31689453 -0.01269531 C7.68538596 -0.01137524 9.05387687 -0.00881602 10.42236328 -0.00488281 C11.6319873 -0.00262695 12.84161133 -0.00037109 14.08789062 0.00195312 C17.71142578 0.26074219 17.71142578 0.26074219 25.71142578 2.26074219 C25.71142578 39.88074219 25.71142578 77.50074219 25.71142578 116.26074219 C14.82142578 116.26074219 3.93142578 116.26074219 -7.28857422 116.26074219 C-20.17516897 119.24785882 -20.17516897 119.24785882 -32.10107422 124.01074219 C-32.80627197 124.35435791 -33.51146973 124.69797363 -34.23803711 125.05200195 C-64.25186554 140.11207745 -84.43043499 170.69086827 -95.41601562 201.59619141 C-99.80018342 214.98421808 -102.43047642 228.60331299 -102.4467926 242.6887207 C-102.45173058 243.60618828 -102.45666856 244.52365585 -102.46175617 245.46892548 C-102.47704515 248.52583141 -102.48546834 251.58271648 -102.49389648 254.63964844 C-102.50348178 256.83784669 -102.51349224 259.03604313 -102.52389526 261.23423767 C-102.55087982 267.19017389 -102.57192424 273.14611799 -102.59189725 279.1020813 C-102.61379666 285.33076402 -102.64116597 291.55942266 -102.66795349 297.78808594 C-102.71216253 308.23875883 -102.75300672 318.68944041 -102.79125977 329.14013672 C-102.83065935 339.90153977 -102.87210724 350.66293176 -102.91625977 361.42431641 C-102.91900927 362.0950756 -102.92175878 362.7658348 -102.9245916 363.45692003 C-102.94852831 369.29210731 -102.97261958 375.12729396 -102.99672604 380.96248055 C-103.10021706 406.06187972 -103.19356186 431.16130617 -103.28857422 456.26074219 C-141.23857422 456.26074219 -179.18857422 456.26074219 -218.28857422 456.26074219 C-218.28857422 309.08074219 -218.28857422 161.90074219 -218.28857422 10.26074219 C-215.17723838 9.48290823 -213.14125309 9.13536381 -210.04481506 9.13375854 C-208.78528267 9.12952881 -208.78528267 9.12952881 -207.50030518 9.12521362 C-206.58746765 9.12723785 -205.67463013 9.12926208 -204.73413086 9.13134766 C-203.76622116 9.12959534 -202.79831146 9.12784302 -201.80107117 9.1260376 C-198.60027271 9.12163502 -195.39952949 9.12455173 -192.19873047 9.12792969 C-189.97440073 9.12725614 -187.75007106 9.12628568 -185.52574158 9.12503052 C-180.86277567 9.12355566 -176.19982892 9.12570112 -171.53686523 9.13037109 C-165.56026972 9.13606493 -159.58371914 9.13279021 -153.60712528 9.12679863 C-149.01321576 9.1231845 -144.41931688 9.12433559 -139.82540703 9.12692642 C-137.62178988 9.1275935 -135.41817176 9.12677491 -133.21455574 9.12444687 C-130.13381517 9.12190678 -127.05314727 9.12578032 -123.97241211 9.13134766 C-123.06159882 9.12932343 -122.15078552 9.12729919 -121.21237183 9.12521362 C-117.10729621 9.13895307 -113.29178397 9.22143898 -109.28857422 10.26074219 C-106.2941175 21.03912047 -104.4820318 31.99635434 -102.60107422 43.01074219 C-102.27791644 44.88320881 -101.95435184 46.75560528 -101.63037109 48.62792969 C-100.84508243 53.17140571 -100.06529503 57.71579397 -99.28857422 62.26074219 C-99.00771973 61.75325439 -98.72686523 61.2457666 -98.4375 60.72290039 C-92.42572533 49.92731394 -86.29832285 39.70278962 -78.28857422 30.26074219 C-77.73169922 29.60203125 -77.17482422 28.94332031 -76.60107422 28.26464844 C-56.87159034 6.90748214 -28.06717627 -0.17182637 0 0 Z " fill="#FEFDFD" transform="translate(1376.28857421875,433.7392578125)"/>
<path d="M0 0 C36.96 0 73.92 0 112 0 C112.02202485 56.92813682 112.04049691 113.85626963 112.05106533 170.78440949 C112.05231272 177.49763042 112.05360927 184.21085135 112.05493164 190.92407227 C112.0550624 191.59213619 112.05519316 192.26020012 112.05532788 192.9485084 C112.05959302 214.62182883 112.06710715 236.29514666 112.07629722 257.96846552 C112.08598699 280.86170351 112.09199362 303.75494046 112.09408849 326.64818054 C112.09546405 340.37070548 112.0998164 354.09322296 112.10791647 367.8157456 C112.11318198 377.211963 112.11480474 386.60817652 112.11350138 396.0043953 C112.11285769 401.43426378 112.11387894 406.86411918 112.11920547 412.29398537 C112.12403807 417.25626208 112.12433958 422.2185168 112.12089889 427.18079448 C112.12047306 428.98430012 112.12176997 430.78780708 112.12488318 432.59131008 C112.12884489 435.02623018 112.12676482 437.4610689 112.12304783 439.89598751 C112.12567484 440.61050291 112.12830186 441.32501831 112.13100848 442.06118569 C112.1141458 446.8858542 112.1141458 446.8858542 111 448 C74.37 448 37.74 448 0 448 C0 300.16 0 152.32 0 0 Z " fill="#FEFEFE" transform="translate(1444,442)"/>
<path d="M0 0 C36.3 0 72.6 0 110 0 C111.12527979 13.50335752 111.12527979 13.50335752 111.20321465 20.11963367 C111.21290106 20.84790769 111.22258748 21.57618171 111.23256742 22.32652463 C111.26318064 24.71625451 111.28759919 27.10600047 111.31173706 29.49580383 C111.33212633 31.22154185 111.35280458 32.94727647 111.37374806 34.67300785 C111.42872936 39.32543609 111.47752633 43.97790893 111.52447405 48.63042448 C111.55445328 51.57303323 111.58590403 54.51562309 111.61772132 57.45821249 C112.0389025 96.68704131 112.14999631 135.91356308 112.13530041 175.14435087 C112.13295969 181.56315173 112.13275264 187.98194995 112.13381577 194.40075111 C112.133969 195.33655793 112.13412223 196.27236475 112.13428011 197.23652935 C112.13459998 199.14029969 112.1349242 201.04407003 112.1352527 202.94784037 C112.1380477 220.44081812 112.13491043 237.93379047 112.12945233 255.42676733 C112.12492704 270.3973885 112.12581793 285.36800198 112.13037109 300.33862305 C112.13571778 317.92550876 112.13783759 335.51238995 112.13475883 353.09927636 C112.13444038 354.96817005 112.134126 356.83706373 112.13381577 358.70595741 C112.13358435 360.08395227 112.13358435 360.08395227 112.13334826 361.4897854 C112.13248799 367.93455377 112.13393408 374.37931922 112.13629532 380.82408714 C112.1390917 388.6226362 112.13835585 396.42117518 112.13301457 404.21972307 C112.13038504 408.188457 112.12936081 412.15717409 112.13266373 416.1259079 C112.13563806 419.75381661 112.13401515 423.38169278 112.12868617 427.00959853 C112.12703731 428.94428328 112.13030762 430.87897029 112.13374341 432.81365269 C112.12983178 434.53416324 112.12983178 434.53416324 112.12584114 436.28943157 C112.12567879 437.2787454 112.12551644 438.26805923 112.12534916 439.28735226 C112 442 112 442 111 447 C74.37 447 37.74 447 0 447 C0 299.49 0 151.98 0 0 Z " fill="#FEFEFE" transform="translate(1745,442)"/>
<path d="M0 0 C2.26690373 -0.00963512 4.5328717 -0.0406707 6.79956055 -0.07226562 C30.4738182 -0.24668909 50.963683 8.16962744 68.01635742 24.55664062 C83.75600176 40.09275508 92.48257467 59.96984272 97.73510742 81.24023438 C98.0864528 82.58794725 98.43802527 83.93560093 98.78979492 85.28320312 C101.31471747 95.20327715 102.84664463 105.04833151 103.73510742 115.24023438 C103.84725586 116.51125 103.9594043 117.78226563 104.07495117 119.09179688 C105.42074873 137.19553933 105.21903285 155.24951733 102.73510742 173.24023438 C102.6274707 174.04686523 102.51983398 174.85349609 102.40893555 175.68457031 C98.72119541 201.86335835 89.54678927 230.21990398 71.73510742 250.24023438 C71.11120117 251.0059375 70.48729492 251.77164063 69.84448242 252.56054688 C57.74397413 267.07131901 38.79191455 276.94704363 20.01586914 279.06152344 C-8.77228614 281.31724273 -38.29854791 277.68954538 -60.93676758 258.34960938 C-61.70504883 257.65351562 -62.47333008 256.95742188 -63.26489258 256.24023438 C-64.09504883 255.50289062 -64.92520508 254.76554688 -65.78051758 254.00585938 C-91.45596367 229.90559403 -99.12370596 189.93159564 -100.3369751 156.23846436 C-100.47360821 151.21859075 -100.51031719 146.19928883 -100.51489258 141.17773438 C-100.51589966 140.40076202 -100.51690674 139.62378967 -100.51794434 138.82327271 C-100.482707 98.18374021 -94.74789231 56.14711687 -65.82739258 25.42773438 C-47.43008165 8.09755285 -24.95371934 0.06394973 0 0 Z " fill="#E20714" transform="translate(910.264892578125,514.759765625)"/>
<path d="M0 0 C0.20100712 4.04110923 0.38319432 8.08287436 0.5625 12.125 C0.61857422 13.24777344 0.67464844 14.37054687 0.73242188 15.52734375 C1.03296301 22.53997017 0.82922551 29.33398578 0.24731445 36.32568359 C-0.01869387 40.27773226 -0.08853795 44.21297005 -0.10546875 48.171875 C-0.26066553 71.14648735 -1.9014523 90.55419036 -18.625 108.0625 C-47.2112251 135.27107569 -85.56594198 146.98620339 -124.60742188 146.08886719 C-141.23247933 145.47136505 -155.85018361 139.67394663 -167.38671875 127.4765625 C-171.37879419 122.68016872 -174.68212983 117.80027415 -177 112 C-177.29777344 111.31164062 -177.59554688 110.62328125 -177.90234375 109.9140625 C-182.42384983 97.70391244 -181.22017942 82.72986745 -176 71 C-170.22394892 59.52637679 -161.2152228 50.86499514 -150.6875 43.75 C-150.13255859 43.37415771 -149.57761719 42.99831543 -149.00585938 42.61108398 C-138.22656143 35.64769372 -126.66301942 30.82219889 -114.5 26.875 C-113.84948669 26.66144867 -113.19897339 26.44789734 -112.52874756 26.22787476 C-101.8184002 22.72060509 -91.07286152 19.87283265 -80.02880859 17.62158203 C-74.66007599 16.51979312 -69.305248 15.35342455 -63.95004272 14.18789673 C-62.61216518 13.89679623 -61.27413264 13.60640712 -59.9359436 13.31674194 C-46.55811369 10.41728431 -33.26064224 7.20804522 -19.97045898 3.93261719 C-19.20839142 3.74494781 -18.44632385 3.55727844 -17.66116333 3.36392212 C-16.23733522 3.01276047 -14.8137909 2.66044524 -13.39059448 2.30673218 C-4.05839268 0 -4.05839268 0 0 0 Z " fill="#E20714" transform="translate(549,665)"/>
<path d="M0 0 C1.16069775 3.48209325 1.10847008 6.16105768 1.08520508 9.83544922 C1.08202271 10.52701614 1.07884033 11.21858307 1.07556152 11.93110657 C1.06295804 14.22238802 1.04206409 16.51348323 1.01953125 18.8046875 C1.01257421 19.59108738 1.00561718 20.37748726 0.99844933 21.18771744 C0.9610244 25.35895167 0.91702919 29.53005953 0.86791992 33.70117188 C0.81887516 37.97866205 0.7924625 42.25596765 0.77148914 46.53367424 C0.75094505 49.84734655 0.713002 53.16066655 0.6706295 56.47412491 C0.65345794 58.04865988 0.64263354 59.62327904 0.63868141 61.19790268 C0.57261776 81.57497911 -5.91131406 96.43128275 -20 111 C-23.51098826 114.23264844 -27.17159028 117.15395348 -31 120 C-31.77601563 120.60199219 -32.55203125 121.20398438 -33.3515625 121.82421875 C-38.28111137 125.49252853 -43.46858639 128.41987289 -48.9375 131.1875 C-49.56938232 131.50855713 -50.20126465 131.82961426 -50.85229492 132.16040039 C-60.75542301 137.02216435 -70.92730455 139.88473444 -81.6875 142.1875 C-82.85861328 142.44724609 -84.02972656 142.70699219 -85.23632812 142.97460938 C-105.32671178 147.35982002 -127.77681767 149.46288881 -147 141 C-147.93328125 140.62746094 -148.8665625 140.25492188 -149.828125 139.87109375 C-162.52505058 134.28210964 -170.71505295 123.75764194 -176.140625 111.3359375 C-178.34171791 105.35296677 -179.36278845 100.07341366 -179.3125 93.75 C-179.30686035 93.00347168 -179.3012207 92.25694336 -179.29541016 91.48779297 C-178.97147704 76.63497844 -172.60458509 64.28208429 -162 54 C-141.17240751 35.20872445 -113.15244775 25.94375297 -86.265625 19.63671875 C-85.36058731 19.42284515 -84.45554962 19.20897156 -83.52308655 18.98861694 C-74.43059349 16.84883198 -65.31873661 14.79579125 -56.20529175 12.74749756 C-41.08165931 9.34607681 -25.99165946 5.86625712 -10.98413086 1.98095703 C-9.95682861 1.71653809 -8.92952637 1.45211914 -7.87109375 1.1796875 C-6.99380615 0.95007324 -6.11651855 0.72045898 -5.21264648 0.48388672 C-3 0 -3 0 0 0 Z " fill="#E20714" transform="translate(2186,665)"/>
<path d="M0 0 C11.59819171 9.67177973 21.07484469 24.7958561 22.6472168 40.0300293 C22.78086696 43.16065271 22.81133647 46.26905308 22.78125 49.40234375 C22.77367676 50.50594238 22.76610352 51.60954102 22.75830078 52.74658203 C22.59413606 60.86494711 21.790336 67.64908332 18.34375 75.08984375 C17.91964844 76.03472656 17.49554687 76.97960937 17.05859375 77.953125 C13.55979495 84.99945238 8.87287765 90.54168296 3.34375 96.08984375 C2.72886719 96.72792969 2.11398438 97.36601562 1.48046875 98.0234375 C-10.76161959 109.79366804 -28.48587417 114.53843259 -45.05859375 114.3671875 C-62.1207889 113.05186084 -77.91484461 105.04117927 -89.16796875 92.23046875 C-101.17403698 76.91032879 -105.69820569 60.3955134 -104.65625 41.08984375 C-102.32787826 23.87270957 -92.20139787 8.74070274 -78.70703125 -1.8046875 C-53.65788328 -19.09212765 -24.29251247 -17.46917441 0 0 Z " fill="#E20916" transform="translate(2402.65625,270.91015625)"/>
<path d="M0 0 C36.63 0 73.26 0 111 0 C111 34.65 111 69.3 111 105 C93.76827256 106.14878183 93.76827256 106.14878183 85.48461914 106.11352539 C84.05455237 106.11370619 84.05455237 106.11370619 82.59559536 106.11389065 C79.57542339 106.11315713 76.55531685 106.10560199 73.53515625 106.09765625 C71.64416534 106.09618197 69.75317402 106.09516426 67.86218262 106.09460449 C60.92894877 106.0894079 53.99572371 106.07544688 47.0625 106.0625 C31.531875 106.041875 16.00125 106.02125 0 106 C0 71.02 0 36.04 0 0 Z " fill="#FEFEFE" transform="translate(1741,262)"/>
<path d="M0 0 C36.63 0 73.26 0 111 0 C112.14923291 14.94002784 112.14923291 14.94002784 112.12939453 21.52148438 C112.13202301 22.6488073 112.13202301 22.6488073 112.13470459 23.79890442 C112.13902894 26.23054463 112.13621898 28.66210933 112.1328125 31.09375 C112.13348825 32.81522638 112.13446052 34.53670266 112.13571167 36.25817871 C112.13717591 39.84514281 112.13507543 43.43208181 112.13037109 47.01904297 C112.12467461 51.58101145 112.12796049 56.14292106 112.13394356 60.70488739 C112.13758379 64.25340201 112.13639479 67.80190303 112.13381577 71.35041809 C112.13315604 73.03107205 112.13394089 74.71172732 112.13629532 76.39237976 C112.13887943 78.7544576 112.13490196 81.11644444 112.12939453 83.47851562 C112.13141876 84.1500618 112.13344299 84.82160797 112.13552856 85.51350403 C112.107639 92.07885634 111.50847465 98.3898295 111 105 C74.37 105 37.74 105 0 105 C0 70.35 0 35.7 0 0 Z " fill="#FEFDFD" transform="translate(1446,262)"/>
<path d="M0 0 C11.59819171 9.67177973 21.07484469 24.7958561 22.6472168 40.0300293 C22.78086696 43.16065271 22.81133647 46.26905308 22.78125 49.40234375 C22.77367676 50.50594238 22.76610352 51.60954102 22.75830078 52.74658203 C22.59413606 60.86494711 21.790336 67.64908332 18.34375 75.08984375 C17.91964844 76.03472656 17.49554687 76.97960937 17.05859375 77.953125 C13.55979495 84.99945238 8.87287765 90.54168296 3.34375 96.08984375 C2.72886719 96.72792969 2.11398438 97.36601562 1.48046875 98.0234375 C-10.76161959 109.79366804 -28.48587417 114.53843259 -45.05859375 114.3671875 C-62.1207889 113.05186084 -77.91484461 105.04117927 -89.16796875 92.23046875 C-101.17403698 76.91032879 -105.69820569 60.3955134 -104.65625 41.08984375 C-102.32787826 23.87270957 -92.20139787 8.74070274 -78.70703125 -1.8046875 C-53.65788328 -19.09212765 -24.29251247 -17.46917441 0 0 Z M-65.65625 0.08984375 C-66.5328125 0.52425781 -67.409375 0.95867187 -68.3125 1.40625 C-81.12858985 8.34829867 -89.63629421 19.69480655 -94.81640625 33.08984375 C-99.33330037 48.5523278 -96.74113409 63.88420274 -89.65625 78.08984375 C-81.26416233 91.74720269 -69.16987093 101.06167752 -53.6171875 105.3046875 C-38.10437557 108.80813002 -22.49511599 104.89740719 -9.09375 96.96484375 C2.80451039 89.04947561 10.51988801 77.19449128 13.87109375 63.328125 C15.63475816 51.24483741 15.17791368 39.41516433 10.34375 28.08984375 C9.95445312 27.16042969 9.56515625 26.23101562 9.1640625 25.2734375 C2.45035332 11.30971693 -9.41099895 2.41218574 -23.65625 -2.91015625 C-37.20884831 -7.43347702 -53.07915796 -6.56965583 -65.65625 0.08984375 Z " fill="#FDF5F6" transform="translate(2402.65625,270.91015625)"/>
<path d="M0 0 C41.24011411 -0.34642122 41.24011411 -0.34642122 47.84375 5.68359375 C53.04477924 11.58381796 53.35796178 15.7039014 53.26953125 23.57421875 C52.92796231 27.91560953 52.12897513 29.94924924 49 33 C46.41784446 34.8380611 43.77816695 36.47605405 41 38 C41.47050781 38.36351562 41.94101563 38.72703125 42.42578125 39.1015625 C43.04839844 39.60429687 43.67101563 40.10703125 44.3125 40.625 C44.92738281 41.11226563 45.54226562 41.59953125 46.17578125 42.1015625 C50.5154405 46.61778176 51.3371491 50.90064871 51.26367188 56.92578125 C51.23853516 57.73402344 51.21339844 58.54226563 51.1875 59.375 C51.16719727 60.62216797 51.16719727 60.62216797 51.14648438 61.89453125 C51.11139059 63.92997066 51.05759228 65.96507291 51 68 C48.03 68 45.06 68 42 68 C41.91363281 66.84242188 41.82726563 65.68484375 41.73828125 64.4921875 C41.59750368 62.95301943 41.4555121 61.41396206 41.3125 59.875 C41.23225586 58.73417969 41.23225586 58.73417969 41.15039062 57.5703125 C40.58342533 51.8513582 39.16060705 49.00466226 35 45 C31.18906274 43.72968758 27.47776904 43.67929844 23.5 43.5 C15.40540541 43.13513514 15.40540541 43.13513514 12 42 C12 50.91 12 59.82 12 69 C8.04 69 4.08 69 0 69 C-0.88119845 58.32926887 -1.15732274 47.73373357 -1.13037109 37.02978516 C-1.12500609 34.5028687 -1.1303562 31.9761299 -1.13671875 29.44921875 C-1.14032274 19.58870043 -0.81169117 9.82904382 0 0 Z " fill="#FEF6F7" transform="translate(2343,286)"/>
<path d="M0 0 C20.71732834 -0.49326972 20.71732834 -0.49326972 27 3 C29.94750747 6.01404263 30.4317284 8.27617719 30.4375 12.4375 C30.32978135 16.10972661 30.11456437 17.79208688 28.3125 21.0625 C24.44339601 24.30418172 20.91261951 25.25659656 15.91796875 25.1953125 C14.65762817 25.18781982 14.65762817 25.18781982 13.37182617 25.18017578 C12.32099854 25.16196777 11.2701709 25.14375977 10.1875 25.125 C5.1446875 25.063125 5.1446875 25.063125 0 25 C0 16.75 0 8.5 0 0 Z " fill="#E20B18" transform="translate(2353,294)"/>
</svg>
