<?xml version="1.0" encoding="UTF-8"?>
<svg version="1.1" xmlns="http://www.w3.org/2000/svg" width="828" height="301">
<path d="M0 0 C0.84127441 -0.00563965 1.68254883 -0.0112793 2.54931641 -0.01708984 C3.93642822 -0.01101715 3.93642822 -0.01101715 5.3515625 -0.00482178 C6.32399902 -0.00832642 7.29643555 -0.01183105 8.29833984 -0.01544189 C11.5244859 -0.02427073 14.75041407 -0.01840596 17.9765625 -0.01165771 C20.21093793 -0.01300403 22.44531308 -0.01494428 24.6796875 -0.01745605 C29.36721581 -0.02040888 34.05466802 -0.01610455 38.7421875 -0.0067749 C44.76178038 0.00461968 50.78119492 -0.00193894 56.80078125 -0.01391983 C61.41602938 -0.02113413 66.03123499 -0.01885248 70.64648438 -0.01366425 C72.86653667 -0.01232656 75.08659278 -0.0139796 77.30664062 -0.01862335 C80.40505254 -0.0236815 83.50317243 -0.0159883 86.6015625 -0.00482178 C87.52630371 -0.00887024 88.45104492 -0.0129187 89.40380859 -0.01708984 C90.66572021 -0.00863037 90.66572021 -0.00863037 91.953125 0 C93.05261475 0.00113108 93.05261475 0.00113108 94.17431641 0.002285 C95.9765625 0.25396729 95.9765625 0.25396729 97.9765625 2.25396729 C98.33959961 4.83013916 98.33959961 4.83013916 98.50390625 8.22271729 C98.5373111 8.86222321 98.57071594 9.50172913 98.60513306 10.16061401 C98.71726492 12.35804356 98.81549025 14.55589057 98.9140625 16.75396729 C98.99201599 18.33066426 99.07073822 19.90732338 99.15014648 21.48394775 C99.65019288 31.58986177 100.08676079 41.69882049 100.53520203 51.80712891 C100.66803338 54.80116904 100.80135961 57.79518647 100.93513489 60.78918457 C101.00242293 62.29632515 101.0696989 63.80346626 101.13696289 65.31060791 C101.17036176 66.05852978 101.20376062 66.80645164 101.23817158 67.57703781 C101.43994501 72.10927216 101.63639344 76.64170203 101.82884979 81.1743412 C101.9513677 84.04322332 102.07730409 86.91194901 102.20396042 89.78065109 C102.29129803 91.78592 102.37416255 93.79138214 102.4569397 95.79684448 C102.53735001 97.60117447 102.53735001 97.60117447 102.61938477 99.44195557 C102.68694725 101.02328781 102.68694725 101.02328781 102.75587463 102.63656616 C102.88240499 105.36383418 102.88240499 105.36383418 103.9765625 108.25396729 C104.5324707 106.87120605 104.5324707 106.87120605 105.09960938 105.46051025 C112.96658433 85.90787804 120.9550861 66.41317263 129.17456055 47.00592041 C132.33612317 39.53843151 135.4793713 32.06535551 138.546875 24.55865479 C138.82555923 23.87809021 139.10424347 23.19752563 139.39137268 22.49633789 C140.68832639 19.32788279 141.97935539 16.15738696 143.26049805 12.98248291 C143.70949463 11.88355713 144.15849121 10.78463135 144.62109375 9.65240479 C145.00628174 8.700271 145.39146973 7.74813721 145.78833008 6.76715088 C146.98862062 4.22846364 148.08963728 2.33315559 149.9765625 0.25396729 C152.00114727 -0.23822403 152.00114727 -0.23822403 154.36149597 -0.22705078 C155.25752029 -0.23254944 156.15354462 -0.2380481 157.07672119 -0.24371338 C158.05711365 -0.22933228 159.0375061 -0.21495117 160.04760742 -0.20013428 C161.08192398 -0.20071838 162.11624054 -0.20130249 163.18190002 -0.2019043 C166.60728288 -0.19911327 170.03180005 -0.16797216 173.45703125 -0.13665771 C175.82928492 -0.12919898 178.20154474 -0.12350431 180.57380676 -0.11950684 C186.8227535 -0.10422175 193.07132936 -0.0649147 199.32012939 -0.02069092 C205.69448834 0.02019955 212.06890712 0.0384909 218.44335938 0.05865479 C230.95458547 0.10157637 243.46555428 0.16909576 255.9765625 0.25396729 C257.60997699 3.52079627 257.12072046 7.12892236 257.11700439 10.71917725 C257.12146108 12.04882012 257.12146108 12.04882012 257.1260078 13.40532446 C257.13472077 16.39329293 257.13620522 19.38122147 257.13769531 22.36920166 C257.14232155 24.50415635 257.14734594 26.63911022 257.15274048 28.77406311 C257.16588288 34.58587677 257.17231271 40.39767888 257.17675114 46.20950508 C257.17967814 49.83611839 257.18378217 53.4627285 257.18825531 57.08934021 C257.20193341 68.42373023 257.21159925 79.758113 257.2154572 91.0925107 C257.21994266 104.20019365 257.23751191 117.30777257 257.2664578 130.41542387 C257.28802868 140.53261135 257.29815897 150.64976945 257.29949832 160.76697969 C257.3005494 166.81673456 257.30652163 172.86639167 257.32431793 178.91612244 C257.34071997 184.60254242 257.34299265 190.28879034 257.33417892 195.97522545 C257.33340438 198.06749111 257.33780567 200.15976573 257.34763718 202.25200844 C257.36023027 205.09780035 257.35454945 207.94297103 257.34405518 210.78875732 C257.35613978 212.04447611 257.35613978 212.04447611 257.36846852 213.32556295 C257.3484993 215.62448883 257.3484993 215.62448883 256.9765625 219.25396729 C253.12207076 221.82362844 249.96486791 221.52756431 245.49780273 221.49688721 C244.19986282 221.49973473 244.19986282 221.49973473 242.8757019 221.50263977 C240.01209488 221.50634814 237.14874078 221.49564307 234.28515625 221.48443604 C232.29883351 221.48324423 230.31251021 221.48279107 228.32618713 221.48304749 C224.16249058 221.48148255 219.99888 221.47319156 215.83520508 221.45977783 C210.48940182 221.44277697 205.14369299 221.43896381 199.79786587 221.43972301 C195.69646803 221.43945154 191.59509097 221.43397406 187.49370003 221.42672157 C185.52205627 221.42353238 183.55041016 221.42156691 181.57876396 221.42082787 C178.82777745 221.41866759 176.07689254 221.40993042 173.32592773 221.39923096 C172.50561569 221.39968414 171.68530365 221.40013733 170.84013367 221.40060425 C165.2055185 221.36844528 165.2055185 221.36844528 162.9765625 220.25396729 C161.72601063 216.87447691 161.84968557 213.49693055 161.84716797 209.92828369 C161.84401581 208.64660309 161.84086365 207.36492249 161.83761597 206.04440308 C161.8394063 204.64811163 161.84145739 203.2518205 161.84375 201.85552979 C161.84307598 200.41830428 161.84210513 198.98107888 161.84085083 197.54385376 C161.83937755 194.53282586 161.84151591 191.52182766 161.84619141 188.51080322 C161.8518782 184.66196124 161.84861401 180.81318915 161.84261894 176.96434975 C161.83899458 173.9959969 161.8401607 171.02766045 161.84274673 168.0593071 C161.84341135 166.64081184 161.84260392 165.22231506 161.84026718 163.80382156 C161.83771101 161.81536134 161.8423015 159.82689586 161.84716797 157.83843994 C161.84836136 156.14444565 161.84836136 156.14444565 161.84957886 154.41622925 C161.97538374 151.28332175 162.3917266 148.33140362 162.9765625 145.25396729 C162.3165625 145.25396729 161.6565625 145.25396729 160.9765625 145.25396729 C160.83468506 145.80906982 160.69280762 146.36417236 160.54663086 146.93609619 C158.54992259 154.17096965 155.59975337 160.86862597 152.45159912 167.6602478 C150.87741751 171.05640959 149.32302591 174.46158474 147.76953125 177.86724854 C147.45276428 178.56090012 147.13599731 179.2545517 146.80963135 179.96922302 C144.65006951 184.718144 142.56310765 189.49372008 140.52734375 194.29693604 C140.25638382 194.9358075 139.98542389 195.57467896 139.70625305 196.23291016 C138.42292431 199.26579431 137.14945247 202.30251382 135.88500977 205.34332275 C135.42795654 206.42887451 134.97090332 207.51442627 134.5 208.63287354 C134.10731934 209.57719238 133.71463867 210.52151123 133.31005859 211.4944458 C131.70141493 214.8233545 130.41076838 217.4300977 127.9765625 220.25396729 C124.99955282 221.14398874 122.10529036 221.04382641 119.01708984 220.98272705 C118.11263626 220.98842209 117.20818268 220.99411713 116.27632141 220.99998474 C113.2875865 221.0110971 110.30104027 220.97902426 107.3125 220.94537354 C105.23792783 220.9417975 103.16335075 220.94043878 101.08877563 220.94120789 C96.7424679 220.93651556 92.39690231 220.9116634 88.05078125 220.87139893 C82.47053796 220.82036477 76.89110874 220.80895772 71.31065941 220.81123447 C67.02818991 220.81042015 62.74589957 220.7939903 58.46348953 220.77223015 C56.40533428 220.76266297 54.34715868 220.75676626 52.28898239 220.75454903 C49.41804898 220.74806884 46.5479922 220.72186352 43.67724609 220.6897583 C42.39303017 220.69179764 42.39303017 220.69179764 41.08287048 220.69387817 C38.72079468 220.65510559 38.72079468 220.65510559 34.9765625 220.25396729 C32.97872961 217.25721796 32.71169296 216.54122 32.56591797 213.16339111 C32.50609741 211.92741684 32.50609741 211.92741684 32.44506836 210.66647339 C32.4116333 209.77366669 32.37819824 208.88085999 32.34375 207.96099854 C32.28127075 206.56450577 32.28127075 206.56450577 32.2175293 205.13980103 C32.08559113 202.11568398 31.96798285 199.09121838 31.8515625 196.06646729 C31.76600352 194.00762042 31.68022884 191.9487825 31.59423828 189.88995361 C31.03327717 176.00585617 30.71018867 162.14980211 30.9765625 148.25396729 C30.3165625 148.25396729 29.6565625 148.25396729 28.9765625 148.25396729 C28.63882813 149.51724854 28.30109375 150.78052979 27.953125 152.08209229 C25.38794589 160.62068849 21.77245978 168.78208368 18.3515625 177.00396729 C17.26532945 179.62561923 16.18022079 182.24773462 15.09519958 184.86988831 C14.38126597 186.59482361 13.66672264 188.3195067 12.95155334 190.04393005 C10.94242407 194.89384012 8.96495976 199.75394952 7.02734375 204.63287354 C6.61758301 205.65993408 6.20782227 206.68699463 5.78564453 207.74517822 C5.05925937 209.57236736 4.33972902 211.40230264 3.62841797 213.2354126 C3.31404785 214.02141846 2.99967773 214.80742432 2.67578125 215.61724854 C2.41627686 216.28022949 2.15677246 216.94321045 1.8894043 217.62628174 C0.9765625 219.25396729 0.9765625 219.25396729 -2.0234375 221.25396729 C-4.96740856 221.45418441 -7.81703386 221.53726124 -10.76171875 221.52862549 C-11.65466644 221.53373642 -12.54761414 221.53884735 -13.46762085 221.54411316 C-16.42379428 221.5580309 -19.37973518 221.55705093 -22.3359375 221.55474854 C-24.38712654 221.55863391 -26.43831477 221.56296824 -28.48950195 221.56773376 C-32.79022835 221.57520041 -37.09087266 221.57490121 -41.39160156 221.56964111 C-46.91004739 221.56384208 -52.42815807 221.5807859 -57.94654846 221.60398579 C-62.18267795 221.61869726 -66.41872621 221.61959842 -70.65487671 221.61647606 C-72.6898973 221.61699045 -74.72492231 221.62225013 -76.75991821 221.63228798 C-79.60188777 221.64458669 -82.44319773 221.6379006 -85.28515625 221.62628174 C-86.12992523 221.63392548 -86.97469421 221.64156921 -87.84506226 221.64944458 C-93.63172842 221.59699598 -93.63172842 221.59699598 -95.76301575 219.73057842 C-96.38692451 218.99965591 -96.38692451 218.99965591 -97.0234375 218.25396729 C-90.05827414 201.60659765 -83.06426338 184.97167039 -76.03869629 168.34970093 C-67.06814514 147.12532956 -58.15296793 125.87824781 -49.26611328 104.61871338 C-39.98127115 82.4071495 -30.69257858 60.19713536 -21.36114502 38.00509644 C-20.69323951 36.41637043 -20.02569997 34.82749051 -19.35858154 33.23843384 C-17.25907345 28.23838392 -15.14788933 23.24346985 -13.0234375 18.25396729 C-12.70566345 17.5058075 -12.3878894 16.75764771 -12.06048584 15.98681641 C-11.10968605 13.7544238 -10.15171459 11.52525244 -9.19140625 9.29693604 C-8.90243973 8.61714188 -8.61347321 7.93734772 -8.31575012 7.23695374 C-5.17787673 0.00532663 -5.17787673 0.00532663 0 0 Z " fill="#6B6C6E" transform="translate(444.0234375,40.74603271484375)"/>
<path d="M0 0 C70.66666667 0 141.33333333 0 212 0 C211.38301513 4.71191704 210.56412045 8.56580472 208.62109375 12.91015625 C208.1202124 14.04525635 207.61933105 15.18035645 207.10327148 16.34985352 C206.83296112 16.95209747 206.56265076 17.55434143 206.28414917 18.17483521 C204.7956026 21.49365609 203.33784441 24.82604138 201.875 28.15625 C201.56271957 28.86507828 201.25043915 29.57390656 200.92869568 30.30421448 C197.1706292 38.85036951 193.55230274 47.45500407 189.9375 56.0625 C189.59643219 56.87378357 189.25536438 57.68506714 188.90396118 58.52093506 C184.13192673 69.87411916 179.40209982 81.24412562 174.70532227 92.62866211 C168.3821506 107.94385614 161.96511556 123.2198782 155.5606842 138.5012207 C152.3869553 146.07445942 149.21787333 153.64963562 146.05000305 161.22532654 C143.04545832 168.40977416 140.03658372 175.59240018 137.02568054 182.77418518 C135.12665261 187.30535494 133.2330885 191.83872426 131.34706116 196.37532043 C130.56200835 198.26201679 129.77459591 200.14770603 128.98608398 202.03295898 C128.07236419 204.21814549 127.16266548 206.40502023 126.25805664 208.59399414 C125.86481201 209.53106201 125.47156738 210.46812988 125.06640625 211.43359375 C124.73584229 212.22822021 124.40527832 213.02284668 124.06469727 213.84155273 C121.97078899 218.08650643 121.97078899 218.08650643 120 220 C117.10876012 220.39168044 114.59737523 220.52291224 111.70478821 220.48101807 C110.84876249 220.48443577 109.99273677 220.48785347 109.11077088 220.49137473 C106.23146964 220.4979833 103.35309284 220.47592864 100.47387695 220.45410156 C98.41434756 220.45297373 96.35481655 220.45360569 94.29528809 220.45587158 C88.69426467 220.45702215 83.09358191 220.43345726 77.49263787 220.40557575 C71.64299244 220.38061922 65.79333974 220.37822464 59.94364929 220.37347412 C48.86201748 220.36102743 37.78054297 220.32818286 26.69898051 220.28807616 C14.08490467 220.24341115 1.47082143 220.22138467 -11.14331377 220.20129442 C-37.09562982 220.15945176 -63.04780611 220.08906678 -89 220 C-88.3176978 214.65703475 -87.06092846 210.09754683 -84.96484375 205.15625 C-84.65496017 204.40737015 -84.3450766 203.6584903 -84.02580261 202.88691711 C-83.00373024 200.421479 -81.9705461 197.96085768 -80.9375 195.5 C-80.21056769 193.75125163 -79.48450893 192.00213992 -78.75927734 190.25268555 C-77.25388909 186.62324869 -75.74476919 182.99539831 -74.23291016 179.36865234 C-71.1594729 171.98865866 -68.12918935 164.59106864 -65.09997559 157.19284058 C-64.11352699 154.78448939 -63.12581247 152.37666118 -62.13769531 149.96899414 C-58.63873344 141.4428975 -55.14590929 132.91431811 -51.66015625 124.3828125 C-38.38310244 91.88849409 -25.01814941 59.4308634 -11.53378296 27.02197266 C-10.89694506 25.49133666 -10.26039907 23.96057917 -9.62417603 22.4296875 C-8.75191773 20.33154394 -7.87815871 18.23403204 -7.00390625 16.13671875 C-6.51736572 14.96842529 -6.0308252 13.80013184 -5.52954102 12.59643555 C-3.73446995 8.37565472 -1.87477059 4.18585859 0 0 Z M57 30 C58 32 58 32 58 32 Z M56 33 C57 35 57 35 57 35 Z M55 35 C56 37 56 37 56 37 Z M59 199 C60 201 60 201 60 201 Z " fill="#2959A5" transform="translate(217,41)"/>
<path d="M0 0 C0.67343445 -0.00043808 1.3468689 -0.00087616 2.04071045 -0.00132751 C4.26482215 0.00076117 6.48817834 0.02409467 8.7121582 0.04760742 C10.25486336 0.05320313 11.79757386 0.05747335 13.34028625 0.06047058 C17.39941137 0.07192146 21.45821411 0.10139048 25.51721191 0.13458252 C29.65962361 0.16527831 33.80208742 0.17897485 37.94458008 0.1940918 C46.07168109 0.22626018 54.19852016 0.27745919 62.32543945 0.34057617 C61.70845458 5.05249321 60.8895599 8.90638089 58.9465332 13.25073242 C58.44565186 14.38583252 57.94477051 15.52093262 57.42871094 16.69042969 C57.15840057 17.29267365 56.88809021 17.8949176 56.60958862 18.51541138 C55.12104206 21.83423226 53.66328386 25.16661755 52.20043945 28.49682617 C51.88815903 29.20565445 51.5758786 29.91448273 51.25413513 30.64479065 C47.49606866 39.19094568 43.87774219 47.79558024 40.26293945 56.40307617 C39.92187164 57.21435974 39.58080383 58.02564331 39.22940063 58.86151123 C34.45736618 70.21469533 29.72753928 81.58470179 25.03076172 92.96923828 C18.70759006 108.28443232 12.29055501 123.56045438 5.88612366 138.84179688 C2.71239475 146.41503559 -0.45668722 153.99021179 -3.6245575 161.56590271 C-6.62910223 168.75035033 -9.63797683 175.93297635 -12.64888 183.11476135 C-14.54790794 187.64593111 -16.44147205 192.17930043 -18.32749939 196.71589661 C-19.1125522 198.60259296 -19.89996464 200.4882822 -20.68847656 202.37353516 C-21.60219636 204.55872167 -22.51189507 206.7455964 -23.41650391 208.93457031 C-23.80974854 209.87163818 -24.20299316 210.80870605 -24.6081543 211.77416992 C-24.93871826 212.56879639 -25.26928223 213.36342285 -25.60986328 214.18212891 C-26.81282532 216.6208786 -27.76820582 218.37789912 -29.67456055 220.34057617 C-32.5789032 220.82159424 -32.5789032 220.82159424 -36.16552734 220.79467773 C-36.81945465 220.79526184 -37.47338196 220.79584595 -38.14712524 220.79644775 C-40.30655177 220.79366305 -42.46459426 220.76255659 -44.6237793 220.73120117 C-46.12164048 220.72374006 -47.61951143 220.71804651 -49.11738586 220.71405029 C-53.05826811 220.69878344 -56.99855991 220.65949341 -60.93920898 220.61523438 C-64.96093762 220.57430384 -68.98276175 220.55604407 -73.00463867 220.53588867 C-80.89488348 220.49299943 -88.78464855 220.42473625 -96.67456055 220.34057617 C-97.00456055 218.69057617 -97.33456055 217.04057617 -97.67456055 215.34057617 C-97.01456055 215.34057617 -96.35456055 215.34057617 -95.67456055 215.34057617 C-95.57143555 214.61870117 -95.46831055 213.89682617 -95.36206055 213.15307617 C-94.67456055 210.34057617 -94.67456055 210.34057617 -93.29956055 208.15307617 C-91.32595972 204.73722859 -90.42831249 201.34482783 -89.4206543 197.54760742 C-88.67456055 195.34057617 -88.67456055 195.34057617 -86.67456055 193.34057617 C-85.92119937 191.41476626 -85.92119937 191.41476626 -85.29956055 189.21557617 C-84.06179602 185.29388346 -82.49590968 181.77772167 -80.54174805 178.16479492 C-79.62924531 176.24525088 -79.12298185 174.41338076 -78.67456055 172.34057617 C-78.01456055 172.34057617 -77.35456055 172.34057617 -76.67456055 172.34057617 C-76.53920898 171.8275293 -76.40385742 171.31448242 -76.2644043 170.78588867 C-74.59873197 164.86128172 -72.52198169 159.13638285 -70.29956055 153.40307617 C-70.01975342 152.67685059 -69.73994629 151.950625 -69.45166016 151.20239258 C-67.46012447 146.12186393 -65.25286648 141.16265002 -62.97729492 136.20361328 C-57.19222998 123.48969713 -51.44708296 110.76823237 -48.4909668 97.07104492 C-47.60829598 94.11895449 -46.79575773 93.43519194 -44.67456055 91.34057617 C-43.76182472 89.10047756 -42.93728672 86.82358859 -42.17456055 84.52807617 C-40.63385361 79.92076986 -38.94033643 75.64159842 -36.67456055 71.34057617 C-36.01456055 71.34057617 -35.35456055 71.34057617 -34.67456055 71.34057617 C-34.49280273 70.23649414 -34.49280273 70.23649414 -34.30737305 69.11010742 C-34.13979492 68.13428711 -33.9722168 67.1584668 -33.79956055 66.15307617 C-33.63713867 65.19014648 -33.4747168 64.2272168 -33.30737305 63.23510742 C-32.69416538 60.43025013 -31.81789711 57.9683287 -30.67456055 55.34057617 C-30.01456055 55.34057617 -29.35456055 55.34057617 -28.67456055 55.34057617 C-28.46959961 54.25969727 -28.46959961 54.25969727 -28.26049805 53.15698242 C-27.705534 50.48945526 -27.05220501 47.89614589 -26.29956055 45.27807617 C-26.06495117 44.44147461 -25.8303418 43.60487305 -25.58862305 42.74291992 C-24.67456055 40.34057617 -24.67456055 40.34057617 -23.13549805 38.30932617 C-21.49742456 36.10186885 -21.12185644 34.59151086 -20.67456055 31.90307617 C-19.93572688 28.12886751 -18.73770996 25.60722941 -16.67456055 22.34057617 C-15.95289864 20.02366163 -15.27396525 17.69208694 -14.67456055 15.34057617 C-14.01456055 15.34057617 -13.35456055 15.34057617 -12.67456055 15.34057617 C-12.49280273 14.50913086 -12.31104492 13.67768555 -12.1237793 12.82104492 C-11.87241211 11.73436523 -11.62104492 10.64768555 -11.36206055 9.52807617 C-11.11842773 8.44913086 -10.87479492 7.37018555 -10.6237793 6.25854492 C-8.67664435 0.27290787 -6.06151185 -0.03312302 0 0 Z " fill="#CA212E" transform="translate(366.674560546875,40.659423828125)"/>
<path d="M0 0 C22.11 0 44.22 0 67 0 C66.2507199 5.2449607 65.71279022 8.24455746 63.70703125 12.84375 C63.24498291 13.91665283 62.78293457 14.98955566 62.30688477 16.0949707 C61.81373779 17.21863037 61.32059082 18.34229004 60.8125 19.5 C59.79583766 21.85762586 58.78020358 24.21569541 57.765625 26.57421875 C57.28029297 27.69747559 56.79496094 28.82073242 56.29492188 29.97802734 C54.82713221 33.40342337 53.42803541 36.8451917 52.0625 40.3125 C48.97726934 48.12309832 45.75187507 55.87481019 42.53170776 63.63052368 C39.65873695 70.55095304 36.79930603 77.47601278 33.98828125 84.421875 C33.50641357 85.61200195 33.0245459 86.80212891 32.52807617 88.02832031 C31.62576458 90.26094096 30.72597815 92.49458471 29.8293457 94.72949219 C27.19058831 101.25654071 24.35332692 107.65231541 21.32763672 114.00976562 C20.01466624 116.96696725 18.98155898 119.91893692 18 123 C12.67682709 138.07443977 12.67682709 138.07443977 9.04663086 144.8503418 C7.79472589 147.42160918 6.80244348 150.0412008 5.796875 152.71875 C2.77738717 160.64290562 -0.44663618 168.4767997 -3.6875 176.3125 C-4.30370997 177.80530535 -4.91983858 179.29814429 -5.53588867 180.79101562 C-9.28256856 189.86572204 -13.04108582 198.9355454 -16.8125 208 C-17.22653076 208.99555908 -17.64056152 209.99111816 -18.06713867 211.0168457 C-18.44330322 211.91878662 -18.81946777 212.82072754 -19.20703125 213.75 C-19.69393433 214.91789062 -19.69393433 214.91789062 -20.19067383 216.109375 C-20.75352493 217.42422234 -21.36037122 218.72074243 -22 220 C-44.11 220 -66.22 220 -89 220 C-88.20245733 214.41720133 -87.1111032 210.21582846 -84.96484375 205.15625 C-84.65496017 204.40737015 -84.3450766 203.6584903 -84.02580261 202.88691711 C-83.00373024 200.421479 -81.9705461 197.96085768 -80.9375 195.5 C-80.21056769 193.75125163 -79.48450893 192.00213992 -78.75927734 190.25268555 C-77.25388909 186.62324869 -75.74476919 182.99539831 -74.23291016 179.36865234 C-71.1594729 171.98865866 -68.12918935 164.59106864 -65.09997559 157.19284058 C-64.11352699 154.78448939 -63.12581247 152.37666118 -62.13769531 149.96899414 C-58.63873344 141.4428975 -55.14590929 132.91431811 -51.66015625 124.3828125 C-38.38310244 91.88849409 -25.01814941 59.4308634 -11.53378296 27.02197266 C-10.89694506 25.49133666 -10.26039907 23.96057917 -9.62417603 22.4296875 C-8.75191773 20.33154394 -7.87815871 18.23403204 -7.00390625 16.13671875 C-6.51736572 14.96842529 -6.0308252 13.80013184 -5.52954102 12.59643555 C-3.73489392 8.37665161 -1.86237116 4.19033511 0 0 Z " fill="#7BC5EF" transform="translate(217,41)"/>
<path d="M0 0 C0.66 0 1.32 0 2 0 C3.63341449 3.26682898 3.14415796 6.87495508 3.14044189 10.46520996 C3.14341302 11.35163854 3.14638414 12.23806712 3.1494453 13.15135717 C3.15815827 16.13932565 3.15964272 19.12725418 3.16113281 22.11523438 C3.16575905 24.25018907 3.17078344 26.38514293 3.17617798 28.52009583 C3.18932038 34.33190949 3.19575021 40.14371159 3.20018864 45.9555378 C3.20311564 49.5821511 3.20721967 53.20876122 3.21169281 56.83537292 C3.22537091 68.16976294 3.23503675 79.50414571 3.2388947 90.83854342 C3.24338016 103.94622637 3.26094941 117.05380528 3.2898953 130.16145658 C3.31146618 140.27864406 3.32159647 150.39580217 3.32293582 160.51301241 C3.3239869 166.56276727 3.32995913 172.61242439 3.34775543 178.66215515 C3.36415747 184.34857513 3.36643015 190.03482305 3.35761642 195.72125816 C3.35684188 197.81352383 3.36124317 199.90579845 3.37107468 201.99804115 C3.38366777 204.84383306 3.37798695 207.68900374 3.36749268 210.53479004 C3.37957728 211.79050883 3.37957728 211.79050883 3.39190602 213.07159567 C3.3719368 215.37052155 3.3719368 215.37052155 3 219 C-0.85449174 221.56966116 -4.01169459 221.27359703 -8.47875977 221.24291992 C-9.77669968 221.24576744 -9.77669968 221.24576744 -11.1008606 221.24867249 C-13.96446762 221.25238086 -16.82782172 221.24167579 -19.69140625 221.23046875 C-21.67772899 221.22927695 -23.66405229 221.22882379 -25.65037537 221.2290802 C-29.81407192 221.22751527 -33.9776825 221.21922427 -38.14135742 221.20581055 C-43.48716068 221.18880969 -48.83286951 221.18499652 -54.17869663 221.18575573 C-58.28009447 221.18548425 -62.38147153 221.18000677 -66.48286247 221.17275429 C-68.45450623 221.16956509 -70.42615234 221.16759963 -72.39779854 221.16686058 C-75.14878505 221.1647003 -77.89966996 221.15596313 -80.65063477 221.14526367 C-81.47094681 221.14571686 -82.29125885 221.14617004 -83.13642883 221.14663696 C-88.771044 221.114478 -88.771044 221.114478 -91 220 C-92.25055187 216.62050962 -92.12687693 213.24296327 -92.12939453 209.67431641 C-92.13254669 208.3926358 -92.13569885 207.1109552 -92.13894653 205.79043579 C-92.1371562 204.39414434 -92.13510511 202.99785321 -92.1328125 201.6015625 C-92.13348652 200.16433699 -92.13445737 198.72711159 -92.13571167 197.28988647 C-92.13718495 194.27885858 -92.13504659 191.26786038 -92.13037109 188.25683594 C-92.1246843 184.40799395 -92.12794849 180.55922186 -92.13394356 176.71038246 C-92.13756792 173.74202962 -92.1364018 170.77369317 -92.13381577 167.80533981 C-92.13315115 166.38684455 -92.13395858 164.96834777 -92.13629532 163.54985428 C-92.13885149 161.56139405 -92.134261 159.57292857 -92.12939453 157.58447266 C-92.12859894 156.45514313 -92.12780334 155.3258136 -92.12698364 154.16226196 C-92.00117876 151.02935446 -91.5848359 148.07743633 -91 145 C-91.66 145 -92.32 145 -93 145 C-93.28875 146.134375 -93.5775 147.26875 -93.875 148.4375 C-94.431875 150.2009375 -94.431875 150.2009375 -95 152 C-95.66 152.33 -96.32 152.66 -97 153 C-97 151.02 -97 149.04 -97 147 C-96.01 146.67 -95.02 146.34 -94 146 C-93.67 143.69 -93.34 141.38 -93 139 C-92.01 138.67 -91.02 138.34 -90 138 C-88.2917059 139.7082941 -88.88028074 141.86004377 -88.87557983 144.13786316 C-88.87917511 144.87297623 -88.88277039 145.60808929 -88.88647461 146.36547852 C-88.88632858 147.13615662 -88.88618256 147.90683472 -88.8860321 148.7008667 C-88.8867314 151.26024139 -88.89452455 153.8195442 -88.90234375 156.37890625 C-88.90420787 158.14867615 -88.9056318 159.91844656 -88.90663147 161.68821716 C-88.91045712 166.35551366 -88.9202878 171.02277923 -88.93133545 175.69006348 C-88.94154856 180.44897035 -88.94612887 185.20788221 -88.95117188 189.96679688 C-88.96191003 199.31121153 -88.97898701 208.6556032 -89 218 C-88.07427689 217.83544815 -87.14855377 217.6708963 -86.19477844 217.50135803 C-82.85138752 216.97667818 -79.85956785 216.97927777 -76.48046875 217.12109375 C-50.59047402 218.10888912 -24.97717447 218 1 218 C1 147.05 1 76.1 1 3 C0.34 3 -0.32 3 -1 3 C-0.67 2.01 -0.34 1.02 0 0 Z " fill="#635F63" transform="translate(698,41)"/>
<path d="M0 0 C1.58076791 4.74230374 -0.11547482 9.03438848 -2.125 13.5 C-2.41375 13.995 -2.7025 14.49 -3 15 C-3.66 15 -4.32 15 -5 15 C-5.10957031 15.59167969 -5.21914063 16.18335937 -5.33203125 16.79296875 C-6.28046565 21.51971904 -7.49439469 24.86030427 -10 29 C-10.165 30.175625 -10.33 31.35125 -10.5 32.5625 C-11 36 -11 36 -12.43359375 37.90625 C-14.17731721 40.23701253 -14.80800302 42.13939406 -15.5625 44.9375 C-16.53168594 48.39086253 -17.57095242 51.7021979 -19 55 C-19.66 55 -20.32 55 -21 55 C-21.20496094 55.90363281 -21.40992188 56.80726562 -21.62109375 57.73828125 C-21.89050781 58.91777344 -22.15992188 60.09726563 -22.4375 61.3125 C-22.70433594 62.48425781 -22.97117187 63.65601563 -23.24609375 64.86328125 C-24 68 -24 68 -25 71 C-25.66 71 -26.32 71 -27 71 C-27.0825 71.66 -27.165 72.32 -27.25 73 C-28.06895741 76.27582966 -29.39015806 78.83107575 -30.95703125 81.80078125 C-32.39780217 84.83881133 -33.29787786 87.97927199 -34.19140625 91.21484375 C-34.45824219 91.80394531 -34.72507812 92.39304687 -35 93 C-35.99 93.33 -36.98 93.66 -38 94 C-38.185625 95.27617187 -38.185625 95.27617187 -38.375 96.578125 C-40.84343651 111.0801895 -46.68752295 124.25501621 -52.8671875 137.53515625 C-55.82334375 143.96734451 -58.43469496 150.5499136 -61.0234375 157.13671875 C-61.55843872 158.49228882 -61.55843872 158.49228882 -62.10424805 159.87524414 C-62.81876212 161.68898586 -63.52866734 163.50455091 -64.23364258 165.32202148 C-64.56259521 166.15677002 -64.89154785 166.99151855 -65.23046875 167.8515625 C-65.66975708 168.97812256 -65.66975708 168.97812256 -66.11791992 170.12744141 C-67 172 -67 172 -69 174 C-69.78831287 175.99291139 -69.78831287 175.99291139 -70.4375 178.25 C-71.64283843 182.04864234 -73.15039494 185.46162511 -75 189 C-75.309375 189.845625 -75.61875 190.69125 -75.9375 191.5625 C-77.20450756 194.46916439 -78.94470094 196.6021511 -81 199 C-80.34226414 195.11077924 -79.19785515 191.66545607 -77.75 188 C-76.34565051 184.44447932 -74.96142107 180.89306193 -73.6640625 177.296875 C-73.02597656 175.54117188 -73.02597656 175.54117188 -72.375 173.75 C-71.99085938 172.67234375 -71.60671875 171.5946875 -71.2109375 170.484375 C-70.81132812 169.66453125 -70.41171875 168.8446875 -70 168 C-69.01 167.67 -68.02 167.34 -67 167 C-66.83564453 165.98292969 -66.83564453 165.98292969 -66.66796875 164.9453125 C-65.11793399 155.84673446 -63.60341946 147.52959489 -58 140 C-55.60563806 136.36803279 -54.2484734 132.99140199 -53.0625 128.8125 C-51.79964863 124.57568185 -50.49734134 120.38774708 -48.9375 116.25 C-48.63714844 115.45078125 -48.33679688 114.6515625 -48.02734375 113.828125 C-47 112 -47 112 -44 111 C-43.89042969 110.31035156 -43.78085937 109.62070313 -43.66796875 108.91015625 C-42.42790459 101.56050771 -41.18683749 94.28025623 -37 88 C-36.29187186 85.67891331 -35.61975848 83.34622853 -35 81 C-34.34 81 -33.68 81 -33 81 C-32.34 79.02 -31.68 77.04 -31 75 C-30.34 75 -29.68 75 -29 75 C-28.92523438 74.36835937 -28.85046875 73.73671875 -28.7734375 73.0859375 C-27.57014111 64.89880325 -25.017923 54.017923 -19 48 C-17.48131179 44.96262358 -16.87360313 42.27874763 -16.5625 38.9375 C-15.9744123 34.82088609 -15.35330664 34.1357957 -13 31 C-12.35569055 29.18719714 -11.77722185 27.35025026 -11.25 25.5 C-9.41794366 19.68428628 -6.72814069 14.89251085 -3.55078125 9.71484375 C-1.70213476 6.47854826 -0.7427986 3.6314598 0 0 Z " fill="#67456F" transform="translate(357,41)"/>
<path d="M0 0 C0.66 0.33 1.32 0.66 2 1 C1.52536543 5.8412726 0.63438847 8.93865112 -2 13 C-2.2784375 14.11375 -2.2784375 14.11375 -2.5625 15.25 C-2.706875 15.8275 -2.85125 16.405 -3 17 C-3.99 17.495 -3.99 17.495 -5 18 C-5 18.99 -5 19.98 -5 21 C-5.66 21 -6.32 21 -7 21 C-7.05607422 21.90492187 -7.05607422 21.90492187 -7.11328125 22.828125 C-7.17902344 23.62734375 -7.24476563 24.4265625 -7.3125 25.25 C-7.39951172 26.43335938 -7.39951172 26.43335938 -7.48828125 27.640625 C-8.09053188 30.41741417 -9.26503329 31.78260632 -11 34 C-11.71064589 35.93065036 -11.71064589 35.93065036 -12.1875 38.0625 C-13.91476578 44.25493158 -16.47748218 50.04382861 -19.01293945 55.93725586 C-21.30342901 61.27996209 -23.39197397 66.63917327 -25.2109375 72.1640625 C-26 74 -26 74 -28 75 C-28.73217397 77.30893122 -28.73217397 77.30893122 -29.3125 80.0625 C-30.50080152 84.73729024 -32.11458224 88.08835293 -34.8046875 92.04296875 C-36.88564157 95.45002101 -37.88025652 99.19157014 -39 103 C-40.94206775 109.51495982 -43.50619836 115.1585846 -47 121 C-47.66 121 -48.32 121 -49 121 C-47.5510886 115.67554508 -45.87942511 110.53564749 -43.72265625 105.453125 C-43.27978271 104.40286133 -42.83690918 103.35259766 -42.38061523 102.27050781 C-41.92501221 101.19124023 -41.46940918 100.11197266 -41 99 C-40.13600263 96.91750284 -39.2740449 94.83415837 -38.4140625 92.75 C-37.96562988 91.66477051 -37.51719727 90.57954102 -37.05517578 89.46142578 C-36.58321777 88.31915527 -36.11125977 87.17688477 -35.625 86 C-32.12822239 77.53856051 -28.62045234 69.08182794 -25.09375 60.6328125 C-24.76369965 59.84187195 -24.43364929 59.0509314 -24.09359741 58.23602295 C-22.48136375 54.37287158 -20.86788208 50.51024888 -19.25244141 46.6484375 C-15.8861881 38.591251 -12.59055632 30.51070483 -9.36181641 22.39746094 C-7.50392748 17.76239779 -5.57595332 13.15900675 -3.625 8.5625 C-3.27050781 7.72396484 -2.91601562 6.88542969 -2.55078125 6.02148438 C-1.70180828 4.01377802 -0.85110867 2.00680192 0 0 Z " fill="#557CAE" transform="translate(280,53)"/>
<path d="M0 0 C1.16516703 3.39451994 0.83093313 5.34075897 -0.375 8.6875 C-0.65085937 9.47511719 -0.92671875 10.26273438 -1.2109375 11.07421875 C-2 13 -2 13 -3 14 C-3.33926947 16.33247761 -3.67240066 18.66585471 -4 21 C-4.33 21.66 -4.66 22.32 -5 23 C15.79 23.33 36.58 23.66 58 24 C58.99 20.37 59.98 16.74 61 13 C61.99 12.67 62.98 12.34 64 12 C63.59559427 13.37865591 63.17570763 14.7527722 62.75 16.125 C62.51796875 16.89070313 62.2859375 17.65640625 62.046875 18.4453125 C60.69733472 21.73859362 59.25613451 24.22912376 57 27 C53.97540283 27.7215271 53.97540283 27.7215271 50.39550781 27.68115234 C49.41439781 27.68246658 49.41439781 27.68246658 48.41346741 27.68380737 C46.25879017 27.67963816 44.10725564 27.6330315 41.953125 27.5859375 C40.45670269 27.57474265 38.96025834 27.56620382 37.46380615 27.56021118 C33.53081221 27.53733458 29.59915418 27.47842456 25.66668701 27.4119873 C21.6516731 27.35053767 17.63644266 27.32319064 13.62109375 27.29296875 C5.7467837 27.22867745 -2.12644184 27.1263153 -10 27 C-10.33 25.35 -10.66 23.7 -11 22 C-10.34 22 -9.68 22 -9 22 C-8.896875 21.278125 -8.79375 20.55625 -8.6875 19.8125 C-8 17 -8 17 -6.625 14.8125 C-4.65139918 11.39665242 -3.75375194 8.00425166 -2.74609375 4.20703125 C-2 2 -2 2 0 0 Z " fill="#AF2635" transform="translate(280,234)"/>
<path d="M0 0 C0.67328842 -0.00014603 1.34657684 -0.00029205 2.04026794 -0.0004425 C4.26955366 0.00025512 6.4987562 0.0080405 8.72802734 0.01586914 C10.27216547 0.01773385 11.81630419 0.01915751 13.36044312 0.02015686 C17.42766957 0.02397785 21.49486039 0.03380457 25.56207275 0.04486084 C29.71113605 0.05508395 33.86020509 0.05965641 38.00927734 0.06469727 C46.15252287 0.0754272 54.29573943 0.09249862 62.43896484 0.11352539 C61.86763741 4.45072316 61.26466966 8.09188625 59.37646484 12.05102539 C59.01423828 12.82317383 58.65201172 13.59532227 58.27880859 14.39086914 C57.86308594 15.24358398 57.86308594 15.24358398 57.43896484 16.11352539 C57.10896484 16.11352539 56.77896484 16.11352539 56.43896484 16.11352539 C56.20790897 11.37688007 57.0737134 7.63390518 58.43896484 3.11352539 C57.18297485 3.15896484 57.18297485 3.15896484 55.90161133 3.20532227 C52.63547876 3.32077254 49.3692674 3.43217954 46.10287476 3.53994751 C44.62060937 3.58893307 43.1383701 3.63871526 41.65615845 3.68930054 C33.26142804 3.97126042 24.88532624 4.15702115 16.48583984 4.03930664 C15.42194786 4.02690445 15.42194786 4.02690445 14.33656311 4.01425171 C10.93665958 3.97280296 7.54087468 3.90937728 4.1418457 3.81274414 C2.92376221 3.79469727 1.70567871 3.77665039 0.45068359 3.75805664 C-0.61706299 3.73074463 -1.68480957 3.70343262 -2.78491211 3.67529297 C-6.23486153 4.21989408 -7.3827178 5.4611056 -9.56103516 8.11352539 C-9.30542192 5.77040409 -8.96832743 3.43509136 -8.56103516 1.11352539 C-5.68359248 -0.32519595 -3.21537593 -0.00584614 0 0 Z " fill="#A83744" transform="translate(366.56103515625,40.886474609375)"/>
<path d="M0 0 C1.39154615 3.72385589 0.59025374 5.71610011 -0.984375 9.28125 C-1.64566406 10.79138672 -1.64566406 10.79138672 -2.3203125 12.33203125 C-2.79210937 13.37746094 -3.26390625 14.42289063 -3.75 15.5 C-4.20632813 16.54542969 -4.66265625 17.59085938 -5.1328125 18.66796875 C-7.64941082 24.34849848 -7.64941082 24.34849848 -9 27 C-9.51579369 28.05335541 -9.51579369 28.05335541 -10.04200745 29.12799072 C-13.11657499 32.06754172 -16.57706394 31.52377972 -20.60229492 31.45410156 C-21.91968407 31.45497772 -21.91968407 31.45497772 -23.26368713 31.45587158 C-26.16968162 31.45308251 -29.07465324 31.42195179 -31.98046875 31.390625 C-33.99399759 31.38316554 -36.00753369 31.37747122 -38.02107239 31.37347412 C-43.32311006 31.35819463 -48.62471007 31.31889271 -53.92657471 31.2746582 C-59.3357552 31.2337555 -64.74500634 31.21547379 -70.15429688 31.1953125 C-80.76972364 31.15240083 -91.38482544 31.08412138 -102 31 C-99.0268021 28.0268021 -95.77460715 28.69183638 -91.78662109 28.68115234 C-90.9377684 28.67110672 -90.08891571 28.6610611 -89.21434021 28.65071106 C-86.40071305 28.61975093 -83.58718157 28.60280845 -80.7734375 28.5859375 C-78.825726 28.56723616 -76.87802269 28.54766353 -74.93032837 28.5272522 C-69.79785987 28.47581573 -64.66536507 28.43625177 -59.53277588 28.39910889 C-54.29782545 28.35914125 -49.06298551 28.30801598 -43.828125 28.2578125 C-33.55216082 28.16091695 -23.27613442 28.07655595 -13 28 C-12.01 25.69 -11.02 23.38 -10 21 C-9.34 21 -8.68 21 -8 21 C-7.9175 20.195625 -7.835 19.39125 -7.75 18.5625 C-6.3573 11.94717502 -3.07049096 5.98745737 0 0 Z " fill="#625E62" transform="translate(584,230)"/>
<path d="M0 0 C0.96496027 3.38042848 0.98679523 4.71292844 -0.625 7.875 C-2.60859527 12.01558174 -4.22989563 16.23419707 -5.75 20.5625 C-6.17796875 21.78066406 -6.6059375 22.99882812 -7.046875 24.25390625 C-7.36140625 25.16011719 -7.6759375 26.06632812 -8 27 C-8.66 27 -9.32 27 -10 27 C-10.12979248 27.7326709 -10.25958496 28.4653418 -10.39331055 29.22021484 C-10.95719482 31.80387133 -11.70514575 34.03587505 -12.70703125 36.4765625 C-13.04669922 37.31316406 -13.38636719 38.14976562 -13.73632812 39.01171875 C-14.09146484 39.87410156 -14.44660156 40.73648438 -14.8125 41.625 C-17.70927191 48.70116702 -20.38398958 55.80597134 -23 63 C-1.55 63 19.9 63 42 63 C42 63.66 42 64.32 42 65 C19.89 65 -2.22 65 -25 65 C-23.87498566 57.12489963 -23.87498566 57.12489963 -22.54467773 53.92675781 C-22.10302528 52.84832611 -22.10302528 52.84832611 -21.65245056 51.74810791 C-21.33272781 50.99076355 -21.01300507 50.23341919 -20.68359375 49.453125 C-20.34884537 48.64244568 -20.01409698 47.83176636 -19.66920471 46.996521 C-18.59948469 44.41115391 -17.51867723 41.8305936 -16.4375 39.25 C-15.73820485 37.56410364 -15.03963139 35.87790773 -14.34179688 34.19140625 C-9.60965821 22.7740515 -4.8048142 11.3869173 0 0 Z " fill="#7DA6C1" transform="translate(153,196)"/>
<path d="M0 0 C0.66 0.33 1.32 0.66 2 1 C1.54625 2.175625 1.0925 3.35125 0.625 4.5625 C-0.37541149 7.21010064 -1.20279384 9.75709699 -1.9375 12.5 C-2.98245803 15.94221469 -4.34116713 18.84945443 -5.98828125 22.02734375 C-8.09018591 26.12565206 -9.78405519 30.1650134 -10.9375 34.625 C-12 38 -12 38 -13.875 40.1875 C-17.89386113 45.50658091 -19.27264025 52.31786093 -21 58.6875 C-22.05421156 62.17957579 -23.46032078 65.33664371 -24.98046875 68.64453125 C-26.58142614 72.34329487 -27.80030511 76.1555232 -29 80 C-29.99 80 -30.98 80 -32 80 C-32.09796875 80.84304687 -32.1959375 81.68609375 -32.296875 82.5546875 C-32.44640625 83.65039062 -32.5959375 84.74609375 -32.75 85.875 C-32.88921875 86.96554688 -33.0284375 88.05609375 -33.171875 89.1796875 C-34 92 -34 92 -36.078125 93.3828125 C-37.02945313 93.68832031 -37.02945313 93.68832031 -38 94 C-37.3221574 89.7662372 -35.91350548 85.97831888 -34.2890625 82.03515625 C-34.00894318 81.34534668 -33.72882385 80.65553711 -33.44021606 79.94482422 C-32.5063116 77.6488528 -31.56582776 75.35564226 -30.625 73.0625 C-29.96492145 71.44533225 -29.30509627 69.82806106 -28.64550781 68.21069336 C-26.83282507 63.77115 -25.01298096 59.33457643 -23.1907959 54.89892578 C-21.95214728 51.88350523 -20.714804 48.86755103 -19.47753906 45.8515625 C-17.32790545 40.61355176 -15.17454012 35.37708891 -13.01824951 30.14181519 C-12.17562399 28.09591685 -11.3335385 26.049796 -10.49200439 24.00344849 C-9.30435662 21.11718957 -8.11359342 18.23223641 -6.921875 15.34765625 C-6.56932648 14.48978516 -6.21677795 13.63191406 -5.85354614 12.74804688 C-4.05634268 8.40813253 -2.16746107 4.17257341 0 0 Z " fill="#85B4D3" transform="translate(192,102)"/>
<path d="M0 0 C22.11 0 44.22 0 67 0 C67 1.65 67 3.3 67 5 C66.505 4.01 66.505 4.01 66 3 C44.22 3 22.44 3 0 3 C-0.66 6.3 -1.32 9.6 -2 13 C-2.91021119 14.97735535 -3.82297994 16.9568566 -4.859375 18.87109375 C-8.49506483 25.6568847 -11.35395859 32.78352342 -14 40 C-14.97183503 42.34673529 -15.98184298 44.67278394 -17 47 C-17.66 47 -18.32 47 -19 47 C-17.07674841 40.98441731 -14.91210441 35.13556472 -12.4609375 29.31640625 C-12.13461334 28.53482651 -11.80828918 27.75324677 -11.47207642 26.94798279 C-10.44272656 24.48488352 -9.40885792 22.0237099 -8.375 19.5625 C-7.67419882 17.88618488 -6.97367558 16.20975354 -6.2734375 14.53320312 C-1.18910274 2.37820547 -1.18910274 2.37820547 0 0 Z " fill="#8DB6D1" transform="translate(217,41)"/>
<path d="M0 0 C0.66 0.33 1.32 0.66 2 1 C1.690625 1.9075 1.38125 2.815 1.0625 3.75 C0.46846727 5.56704128 -0.09884991 7.39539964 -0.5625 9.25 C-1 11 -1 11 -2 13 C-2.66 13 -3.32 13 -4 13 C-4.103125 14.216875 -4.20625 15.43375 -4.3125 16.6875 C-4.77780143 20.46973589 -5.89264739 22.79682403 -8 26 C-8.9483115 28.60785663 -9.76690712 31.2377233 -10.578125 33.890625 C-13.87534399 44.24235905 -18.5614921 54.09871314 -23 64 C-23.66 64 -24.32 64 -25 64 C-25.103125 64.804375 -25.20625 65.60875 -25.3125 66.4375 C-25.86205213 69.28517924 -26.4879039 71.97595116 -27.3125 74.75 C-27.53550781 75.50796875 -27.75851563 76.2659375 -27.98828125 77.046875 C-29.26022003 79.50235526 -30.53645946 79.88328605 -33 81 C-30.48782757 72.84009178 -27.18635355 65.05042132 -23.87640381 57.19070435 C-22.52052355 53.97066435 -21.17206807 50.74753351 -19.82327271 47.52452087 C-19.1517997 45.92009957 -18.47998812 44.31581992 -17.80783081 42.71168518 C-15.13817588 36.3389994 -12.49158279 29.95718429 -9.875 23.5625 C-9.5229248 22.70221191 -9.17084961 21.84192383 -8.80810547 20.95556641 C-6.40643073 15.05948413 -4.09782328 9.13408818 -1.875 3.16796875 C-1 1 -1 1 0 0 Z " fill="#4F77AB" transform="translate(228,180)"/>
<path d="M0 0 C0.99 0 1.98 0 3 0 C3.93423645 3.01031744 4.04449911 3.86650268 3 7 C2.01 7 1.02 7 0 7 C-0.33773438 8.26328125 -0.67546875 9.5265625 -1.0234375 10.828125 C-3.58870434 19.36701321 -7.20562873 27.5272216 -10.625 35.75 C-11.34749067 37.49727656 -12.06949375 39.2447548 -12.79101562 40.99243164 C-14.20918467 44.42632029 -15.62952071 47.85929825 -17.05175781 51.29150391 C-19.55353179 57.33241358 -22.02933582 63.38380204 -24.5 69.4375 C-25.19784196 71.14456179 -25.89574872 72.85159709 -26.59375 74.55859375 C-27.28984375 76.26208984 -27.28984375 76.26208984 -28 78 C-28.99 78 -29.98 78 -31 78 C-30.71769531 77.30003906 -30.43539063 76.60007812 -30.14453125 75.87890625 C-28.96370561 72.9087066 -27.82398232 69.92493072 -26.6875 66.9375 C-23.06339951 57.5190528 -19.13024785 48.26801176 -15 39.0625 C-12.16675612 32.74127377 -9.51763863 26.38890598 -7.08984375 19.8984375 C-6.04475291 17.11902028 -4.93867665 14.372376 -3.8125 11.625 C-2.26719775 7.79615395 -1.04191938 3.99402428 0 0 Z " fill="#5E5A5E" transform="translate(473,182)"/>
<path d="M0 0 C0.99 0.33 1.98 0.66 3 1 C3.66 0.67 4.32 0.34 5 0 C7.1547893 -0.09182083 9.31249718 -0.11750462 11.46923828 -0.11352539 C12.46454056 -0.11374443 12.46454056 -0.11374443 13.47994995 -0.1139679 C15.67677053 -0.11327031 17.8735067 -0.10548514 20.0703125 -0.09765625 C21.59203037 -0.09579152 23.11374884 -0.09436788 24.63546753 -0.09336853 C28.64351047 -0.08954767 32.65151726 -0.07972104 36.6595459 -0.06866455 C40.74828604 -0.05844118 44.83703201 -0.05386892 48.92578125 -0.04882812 C56.95053744 -0.0380984 64.97526422 -0.02102713 73 0 C72.71872579 1.48117801 72.42466268 2.95993249 72.125 4.4375 C71.96257812 5.26121094 71.80015625 6.08492187 71.6328125 6.93359375 C71.42398438 7.61550781 71.21515625 8.29742187 71 9 C70.34 9.33 69.68 9.66 69 10 C69 7.69 69 5.38 69 3 C47.55 2.67 26.1 2.34 4 2 C3.67 2.99 3.34 3.98 3 5 C2.34 5 1.68 5 1 5 C0.34 7.31 -0.32 9.62 -1 12 C-1.66 11.34 -2.32 10.68 -3 10 C-2.01 6.7 -1.02 3.4 0 0 Z " fill="#4A6492" transform="translate(284,41)"/>
<path d="M0 0 C1 3 1 3 0.328125 4.796875 C-0.02765625 5.44140625 -0.3834375 6.0859375 -0.75 6.75 C-4.70587218 14.19954623 -8.16995015 22.0545891 -10 30.3125 C-10.9911652 33.96742169 -11.40212989 34.61861907 -14 37 C-15.07585059 39.72435637 -15.07585059 39.72435637 -16 43 C-16.49040037 44.6071273 -16.99084732 46.21121482 -17.5 47.8125 C-17.7371875 48.58207031 -17.974375 49.35164063 -18.21875 50.14453125 C-19 52 -19 52 -21 53 C-21.34677194 54.66392251 -21.67753718 56.33119605 -22 58 C-22.79971495 59.79608112 -23.65544586 61.56816512 -24.5625 63.3125 C-25.24505859 64.63701172 -25.24505859 64.63701172 -25.94140625 65.98828125 C-26.29074219 66.65214844 -26.64007813 67.31601563 -27 68 C-27.33 68 -27.66 68 -28 68 C-27.4643896 61.77359514 -25.43568087 56.70351067 -22.95703125 51 C-22.55095139 50.04665771 -22.14487152 49.09331543 -21.72648621 48.11108398 C-20.42965109 45.07063801 -19.12154449 42.03520661 -17.8125 39 C-16.52703197 36.00033264 -15.24395582 32.99965531 -13.96188354 29.99853516 C-13.13056102 28.05345192 -12.29751366 26.10910489 -11.462677 24.16552734 C-8.54573556 17.35499094 -5.79127876 10.49701697 -3.1628418 3.5703125 C-2 1 -2 1 0 0 Z " fill="#645E63" transform="translate(403,129)"/>
<path d="M0 0 C1.49164673 -0.00945648 1.49164673 -0.00945648 3.01342773 -0.019104 C4.09052002 -0.01505554 5.1676123 -0.01100708 6.27734375 -0.00683594 C7.37957275 -0.00874939 8.48180176 -0.01066284 9.61743164 -0.01263428 C11.95101143 -0.01399706 14.28459878 -0.01029416 16.61816406 -0.00195312 C20.20004222 0.00874485 23.78141878 -0.00184552 27.36328125 -0.01464844 C29.6263032 -0.01332686 31.88932483 -0.0107645 34.15234375 -0.00683594 C35.76798218 -0.01290863 35.76798218 -0.01290863 37.41625977 -0.019104 C38.41069092 -0.01279968 39.40512207 -0.00649536 40.4296875 0 C41.3074585 0.00159119 42.18522949 0.00318237 43.08959961 0.00482178 C45.21484375 0.25878906 45.21484375 0.25878906 47.21484375 2.25878906 C44.94481449 3.39380369 43.70291084 3.38544628 41.18334961 3.38818359 C40.35165756 3.39133575 39.51996552 3.39448792 38.66307068 3.3977356 C37.76105423 3.39571136 36.85903778 3.39368713 35.9296875 3.39160156 C34.53430504 3.39303665 34.53430504 3.39303665 33.11073303 3.39450073 C31.1360772 3.39518239 29.16141913 3.39332913 27.18676758 3.38916016 C24.18891229 3.38385379 21.19120972 3.38908367 18.19335938 3.39550781 C16.27213509 3.3948462 14.3509109 3.39356333 12.4296875 3.39160156 C11.54184067 3.39362579 10.65399384 3.39565002 9.73924255 3.3977356 C4.15684757 3.37712481 -1.24642239 2.96404354 -6.78515625 2.25878906 C-4.2757132 -0.25065399 -3.46751538 0.00628577 0 0 Z " fill="#676367" transform="translate(396.78515625,258.7412109375)"/>
<path d="M0 0 C0.33 0 0.66 0 1 0 C0.67 2.97 0.34 5.94 0 9 C-0.99 9.33 -1.98 9.66 -3 10 C-3.33 11.98 -3.66 13.96 -4 16 C-4.66 16 -5.32 16 -6 16 C-6.495 18.475 -6.495 18.475 -7 21 C-30.1 21 -53.2 21 -77 21 C-77 20.67 -77 20.34 -77 20 C-55.88 19.67 -34.76 19.34 -13 19 C-12.67 18.34 -12.34 17.68 -12 17 C-11.01 17 -10.02 17 -9 17 C-8.82984375 16.39671875 -8.6596875 15.7934375 -8.484375 15.171875 C-7.03278926 10.38473053 -5.85314721 7.35596693 -2 4 C-0.76487921 1.86690808 -0.76487921 1.86690808 0 0 Z " fill="#384C77" transform="translate(275,240)"/>
<path d="M0 0 C0.33 0.66 0.66 1.32 1 2 C0.37498605 3.68272986 -0.30177383 5.34630643 -1 7 C-1.433125 8.670625 -1.433125 8.670625 -1.875 10.375 C-3 14 -3 14 -7 21 C13.79 21.33 34.58 21.66 56 22 C56 22.33 56 22.66 56 23 C33.89 23 11.78 23 -11 23 C-10.34 22.67 -9.68 22.34 -9 22 C-8.3823553 20.08368923 -8.3823553 20.08368923 -8 17.8125 C-7.25131364 14.09283604 -6.28440797 10.57799362 -5 7 C-4.34 7 -3.68 7 -3 7 C-2.690625 6.030625 -2.38125 5.06125 -2.0625 4.0625 C-1 1 -1 1 0 0 Z " fill="#2C4A8A" transform="translate(208,237)"/>
<path d="M0 0 C2 3 2 3 1.609375 5.15625 C1.32578125 5.9296875 1.0421875 6.703125 0.75 7.5 C0.34007812 8.66015625 0.34007812 8.66015625 -0.078125 9.84375 C-1 12 -1 12 -3 15 C-3.52142846 16.35953597 -3.9972375 17.73705381 -4.4375 19.125 C-4.69660156 19.92164063 -4.95570313 20.71828125 -5.22265625 21.5390625 C-5.72011029 23.113917 -6.20802633 24.69183614 -6.68359375 26.2734375 C-8.4482641 31.95627422 -10.94831691 36.89777886 -14 42 C-14.66 42 -15.32 42 -16 42 C-14.2773761 35.66970729 -12.11834831 29.67732029 -9.5390625 23.6484375 C-7.52499309 18.87396839 -5.60633175 14.06338372 -3.6875 9.25 C-3.32567627 8.34330566 -2.96385254 7.43661133 -2.59106445 6.50244141 C-1.72663844 4.3352538 -0.86293196 2.16778285 0 0 Z " fill="#5B83B4" transform="translate(247,132)"/>
<path d="M0 0 C0.495 0.99 0.495 0.99 1 2 C-0.1796875 4.78515625 -0.1796875 4.78515625 -1.875 8.0625 C-2.42929687 9.14660156 -2.98359375 10.23070312 -3.5546875 11.34765625 C-5 14 -5 14 -6 15 C-8.08619022 15.09417773 -10.17560477 15.11742878 -12.26391602 15.11352539 C-13.2443689 15.11374443 -13.2443689 15.11374443 -14.24462891 15.1139679 C-16.41442128 15.11326883 -18.58412879 15.10547678 -20.75390625 15.09765625 C-22.25463311 15.09579205 -23.75536057 15.09436816 -25.25608826 15.09336853 C-29.21318226 15.08954352 -33.17023978 15.0797134 -37.12731934 15.06866455 C-41.16234849 15.05845006 -45.19738353 15.05387083 -49.23242188 15.04882812 C-57.15496469 15.03809111 -65.07747781 15.0210149 -73 15 C-73.33 13.35 -73.66 11.7 -74 10 C-73.34 10 -72.68 10 -72 10 C-72 11.32 -72 12.64 -72 14 C-63.70716397 13.89249862 -55.41442038 13.77986523 -47.12174511 13.66066074 C-43.27121518 13.60547233 -39.42067759 13.55205887 -35.57006836 13.50268555 C-31.85473844 13.45498176 -28.13950036 13.40263679 -24.42428017 13.34705925 C-23.00611976 13.32666295 -21.58793419 13.30794537 -20.16972923 13.29092598 C-18.18495279 13.26682194 -16.20025845 13.2362214 -14.21557617 13.20532227 C-13.08528488 13.18977798 -11.95499359 13.1742337 -10.79045105 13.15821838 C-7.91571658 13.11747033 -7.91571658 13.11747033 -5 12 C-4.04347793 9.46940757 -4.04347793 9.46940757 -3.4375 6.5 C-3.01610584 4.6525318 -2.54818572 2.81389201 -2 1 C-1.34 0.67 -0.68 0.34 0 0 Z " fill="#8E3743" transform="translate(343,246)"/>
<path d="M0 0 C0.66 0 1.32 0 2 0 C1.17688553 5.26793259 -0.16224263 11.16224263 -4 15 C-4.78831287 16.99291139 -4.78831287 16.99291139 -5.4375 19.25 C-6.64283843 23.04864234 -8.15039494 26.46162511 -10 30 C-10.309375 30.845625 -10.61875 31.69125 -10.9375 32.5625 C-12.20450756 35.46916439 -13.94470094 37.6021511 -16 40 C-15.34226414 36.11077924 -14.19785515 32.66545607 -12.75 29 C-11.34565051 25.44447932 -9.96142107 21.89306193 -8.6640625 18.296875 C-8.23867188 17.12640625 -7.81328125 15.9559375 -7.375 14.75 C-6.99085938 13.67234375 -6.60671875 12.5946875 -6.2109375 11.484375 C-5.81132812 10.66453125 -5.41171875 9.8446875 -5 9 C-4.01 8.67 -3.02 8.34 -2 8 C-1.855625 7.236875 -1.71125 6.47375 -1.5625 5.6875 C-1 3 -1 3 0 0 Z " fill="#66406C" transform="translate(292,200)"/>
<path d="M0 0 C1.48668933 3.88243712 0.45832838 6.52209984 -0.8125 10.375 C-1.16957031 11.47585937 -1.52664063 12.57671875 -1.89453125 13.7109375 C-2.25933594 14.79632813 -2.62414062 15.88171875 -3 17 C-3.46986328 18.47339844 -3.46986328 18.47339844 -3.94921875 19.9765625 C-6.15902066 26.33487728 -9.07467266 32.3549991 -12.0625 38.375 C-12.41376953 39.09816406 -12.76503906 39.82132813 -13.12695312 40.56640625 C-15.7650694 45.8825347 -15.7650694 45.8825347 -18 47 C-17.34 44.69 -16.68 42.38 -16 40 C-15.34 40 -14.68 40 -14 40 C-13.79503906 38.91912109 -13.79503906 38.91912109 -13.5859375 37.81640625 C-13.03097346 35.14887909 -12.37764446 32.55556972 -11.625 29.9375 C-11.39039063 29.10089844 -11.15578125 28.26429687 -10.9140625 27.40234375 C-10 25 -10 25 -8.4609375 22.96875 C-6.82286401 20.76129268 -6.44729589 19.25093469 -6 16.5625 C-5.26116633 12.78829134 -4.06314941 10.26665324 -2 7 C-1.27833809 4.68308546 -0.59940471 2.35151077 0 0 Z " fill="#A52B3F" transform="translate(352,56)"/>
<path d="M0 0 C0.66 0.33 1.32 0.66 2 1 C0.49086527 6.57922535 -1.19684876 11.75479937 -3.89453125 16.87109375 C-7.44299143 23.70470082 -10.35237624 30.77920792 -13 38 C-13.97183503 40.34673529 -14.98184298 42.67278394 -16 45 C-16.66 45 -17.32 45 -18 45 C-16.0700486 38.95839129 -13.89064168 33.08850974 -11.42578125 27.24609375 C-11.09708542 26.45977066 -10.76838959 25.67344757 -10.42973328 24.86329651 C-9.39368719 22.38674815 -8.35318065 19.91210389 -7.3125 17.4375 C-6.60321793 15.74426529 -5.89423091 14.05090697 -5.18554688 12.35742188 C-3.46043384 8.23684632 -1.73132184 4.11797046 0 0 Z " fill="#83B0CE" transform="translate(216,43)"/>
<path d="M0 0 C0.66 0.33 1.32 0.66 2 1 C1.690625 1.9075 1.38125 2.815 1.0625 3.75 C0.46846727 5.56704128 -0.09884991 7.39539964 -0.5625 9.25 C-1 11 -1 11 -2 13 C-2.66 13 -3.32 13 -4 13 C-4.1546875 14.8253125 -4.1546875 14.8253125 -4.3125 16.6875 C-4.77780143 20.46973589 -5.89264739 22.79682403 -8 26 C-8.67863055 27.9959722 -9.34641919 29.99568551 -10 32 C-10.66 32.99 -11.32 33.98 -12 35 C-12.66 35 -13.32 35 -14 35 C-11.91983433 28.29724395 -9.29889051 21.95762603 -6.4921875 15.52734375 C-4.74930845 11.40739668 -3.22396992 7.23805652 -1.76171875 3.01171875 C-1 1 -1 1 0 0 Z " fill="#5682B4" transform="translate(228,180)"/>
<path d="M0 0 C0.66 0 1.32 0 2 0 C1.03892717 6.01263341 -1.57459569 11.2767898 -4.03759766 16.80297852 C-4.87517045 18.68788359 -5.69765308 20.5789113 -6.51953125 22.47070312 C-7.04675781 23.65986328 -7.57398438 24.84902344 -8.1171875 26.07421875 C-8.59784668 27.16307373 -9.07850586 28.25192871 -9.57373047 29.3737793 C-11 32 -11 32 -14 34 C-11.97365562 27.35809344 -9.32238117 21.32124131 -6.20703125 15.11328125 C-4.92832733 11.81513554 -4.9304243 9.49369385 -5 6 C-3.0625 3.75 -3.0625 3.75 -1 2 C-0.67 1.34 -0.34 0.68 0 0 Z " fill="#5A5759" transform="translate(599,195)"/>
<path d="M0 0 C1.07478554 3.22435661 0.93162085 4.28796755 0.1875 7.5 C0.01605469 8.2734375 -0.15539062 9.046875 -0.33203125 9.84375 C-1 12 -1 12 -3 15 C-3.66 15 -4.32 15 -5 15 C-5.1546875 16.299375 -5.1546875 16.299375 -5.3125 17.625 C-6.04049159 21.19877687 -7.32174416 23.77774878 -9 27 C-9.69971973 28.98867713 -10.37664397 30.98608051 -11 33 C-11.99 33 -12.98 33 -14 33 C-12.15988595 26.72196384 -9.61672153 21.0585606 -6.63427734 15.25683594 C-4.09368673 10.28405324 -1.94102359 5.23232447 0 0 Z " fill="#2D5292" transform="translate(286,47)"/>
<path d="M0 0 C1.58076791 4.74230374 -0.11547482 9.03438848 -2.125 13.5 C-2.41375 13.995 -2.7025 14.49 -3 15 C-3.66 15 -4.32 15 -5 15 C-5.10957031 15.59167969 -5.21914063 16.18335937 -5.33203125 16.79296875 C-6.27291737 21.48210038 -7.37366328 24.95106422 -10 29 C-10.71143088 30.98451771 -11.38991336 32.98202112 -12 35 C-12.66 35 -13.32 35 -14 35 C-14.33 36.32 -14.66 37.64 -15 39 C-15.6875 37.25 -15.6875 37.25 -16 35 C-15.54753906 34.40703125 -15.09507812 33.8140625 -14.62890625 33.203125 C-12.75873914 30.67369035 -12.10990807 28.51779058 -11.25 25.5 C-9.41794366 19.68428628 -6.72814069 14.89251085 -3.55078125 9.71484375 C-1.70213476 6.47854826 -0.7427986 3.6314598 0 0 Z " fill="#514373" transform="translate(357,41)"/>
<path d="M0 0 C1.25541557 3.76624671 0.37061958 5.37188934 -1 9 C-1.66 9 -2.32 9 -3 9 C-3.12117188 9.56847656 -3.24234375 10.13695313 -3.3671875 10.72265625 C-3.89453666 13.15251894 -4.44459335 15.57640735 -5 18 C-5.268125 19.175625 -5.53625 20.35125 -5.8125 21.5625 C-7.28474281 25.82425552 -9.47472319 29.28919247 -12 33 C-13.26102196 30.04539621 -12.96406943 28.89613029 -11.890625 25.79296875 C-11.34921875 24.60316406 -10.8078125 23.41335937 -10.25 22.1875 C-9.45335937 20.41439453 -9.45335937 20.41439453 -8.640625 18.60546875 C-8.09921875 17.41566406 -7.5578125 16.22585937 -7 15 C-5.23591622 11.03905606 -3.65475997 7.32141581 -3 3 C-2.34 3 -1.68 3 -1 3 C-0.67 2.01 -0.34 1.02 0 0 Z " fill="#2D5597" transform="translate(270,87)"/>
<path d="M0 0 C0.66 0 1.32 0 2 0 C-0.33262357 7.36985054 -3.1797861 14.44438679 -6.1875 21.5625 C-6.65091797 22.66658203 -7.11433594 23.77066406 -7.59179688 24.90820312 C-8.72493853 27.60671574 -9.8610628 30.30392958 -11 33 C-12.92853298 27.21440107 -9.21622461 20.59981959 -6.72265625 15.26953125 C-5.88144692 13.62035186 -5.03150023 11.97559303 -4.171875 10.3359375 C-2.48811208 6.97963675 -1.24545785 3.5397223 0 0 Z " fill="#A22F3E" transform="translate(397,114)"/>
<path d="M0 0 C0.33 0 0.66 0 1 0 C0.67 2.97 0.34 5.94 0 9 C-0.99 9.33 -1.98 9.66 -3 10 C-3.33 11.98 -3.66 13.96 -4 16 C-4.99 16 -5.98 16 -7 16 C-7.33 16.99 -7.66 17.98 -8 19 C-8.99 19.33 -9.98 19.66 -11 20 C-11.66 19.67 -12.32 19.34 -13 19 C-12.67 18.34 -12.34 17.68 -12 17 C-11.01 17 -10.02 17 -9 17 C-8.74476563 16.09507812 -8.74476563 16.09507812 -8.484375 15.171875 C-7.03278926 10.38473053 -5.85314721 7.35596693 -2 4 C-0.76487921 1.86690808 -0.76487921 1.86690808 0 0 Z " fill="#374B86" transform="translate(275,240)"/>
<path d="M0 0 C1.07478554 3.22435661 0.93162085 4.28796755 0.1875 7.5 C0.01605469 8.2734375 -0.15539062 9.046875 -0.33203125 9.84375 C-1 12 -1 12 -3 15 C-3.66 15 -4.32 15 -5 15 C-5.66 17.97 -6.32 20.94 -7 24 C-7.66 24 -8.32 24 -9 24 C-8.06674204 18.34555469 -7.15264765 13.8603318 -4 9 C-3.27833809 6.68308546 -2.59940471 4.35151077 -2 2 C-1.34 2 -0.68 2 0 2 C0 1.34 0 0.68 0 0 Z " fill="#56497B" transform="translate(324,120)"/>
<path d="M0 0 C1.37156715 4.11470144 0.08332722 5.6563896 -1.6875 9.5625 C-2.24991788 10.81716218 -2.81110823 12.07237531 -3.37109375 13.328125 C-3.64937012 13.94751953 -3.92764648 14.56691406 -4.21435547 15.20507812 C-5.65146363 18.48836564 -6.89153119 21.84872202 -8.140625 25.20703125 C-9 27 -9 27 -11 28 C-10.45956664 21.85568842 -8.50854413 16.81989542 -6.0625 11.1875 C-5.70220703 10.32962891 -5.34191406 9.47175781 -4.97070312 8.58789062 C-2.27271849 2.27271849 -2.27271849 2.27271849 0 0 Z " fill="#616063" transform="translate(576,84)"/>
<path d="M0 0 C0.66 0 1.32 0 2 0 C1.23803979 5.90519161 -1.63840115 11.06732556 -4.1171875 16.40625 C-5.87334199 20.25184378 -7.45314721 23.76189088 -8 28 C-8.99 27.67 -9.98 27.34 -11 27 C-7.65430679 17.83670965 -4.21735778 8.80793307 0 0 Z " fill="#5F595F" transform="translate(358,233)"/>
<path d="M0 0 C1.33332095 2.6666419 0.67102033 4.16680303 0 7 C-0.66 7 -1.32 7 -2 7 C-2.103125 7.70125 -2.20625 8.4025 -2.3125 9.125 C-3 12 -3 12 -4.5625 15.0625 C-6.29303524 18.05374967 -6.29303524 18.05374967 -6 22 C-7.98 22.99 -7.98 22.99 -10 24 C-9.37660249 18.64561317 -7.62486538 14.11449509 -5.5625 9.1875 C-5.09360352 8.02444336 -5.09360352 8.02444336 -4.61523438 6.83789062 C-2.25139617 1.12569808 -2.25139617 1.12569808 0 0 Z " fill="#646065" transform="translate(370,208)"/>
<path d="M0 0 C1 3 1 3 0.1875 5.625 C-1 8 -1 8 -3 9 C-3.86409951 10.94863256 -4.64165763 12.93598913 -5.375 14.9375 C-5.80941406 16.10539062 -6.24382812 17.27328125 -6.69140625 18.4765625 C-7.12324219 19.63929688 -7.55507813 20.80203125 -8 22 C-8.76382866 23.94027216 -9.53377505 25.87815832 -10.3125 27.8125 C-10.63863281 28.62332031 -10.96476562 29.43414062 -11.30078125 30.26953125 C-11.53152344 30.84058594 -11.76226562 31.41164062 -12 32 C-14.34936993 24.80706603 -9.2080646 17.02707806 -6.19921875 10.59375 C-5.17258861 8.37328611 -4.22791216 6.14261996 -3.3125 3.875 C-2 1 -2 1 0 0 Z " fill="#345292" transform="translate(291,200)"/>
<path d="M0 0 C0.66 0 1.32 0 2 0 C-2.37055838 18.37055838 -2.37055838 18.37055838 -8 24 C-7.45026573 18.16971962 -5.7546141 13.41709832 -3.4375 8.0625 C-3.10814453 7.28326172 -2.77878906 6.50402344 -2.43945312 5.70117188 C-1.63366651 3.79764697 -0.81785783 1.89836975 0 0 Z " fill="#626064" transform="translate(588,52)"/>
<path d="M0 0 C-1.966369 7.36988707 -4.69582578 14.13045202 -8 21 C-8.33 21 -8.66 21 -9 21 C-9 19.02 -9 17.04 -9 15 C-8.34 15 -7.68 15 -7 15 C-6.87625 13.989375 -6.7525 12.97875 -6.625 11.9375 C-6.02276896 8.14344446 -5.2363237 4.63624616 -4 1 C-2 0 -2 0 0 0 Z " fill="#A7303B" transform="translate(373,176)"/>
<path d="M0 0 C0.66 0 1.32 0 2 0 C1.35064191 3.96181397 0.13419855 7.373439 -1.4375 11.0625 C-1.86933594 12.08472656 -2.30117188 13.10695313 -2.74609375 14.16015625 C-3.77012411 16.47937767 -4.83859598 18.74741638 -6 21 C-5.34 21.33 -4.68 21.66 -4 22 C-5.32 22.33 -6.64 22.66 -8 23 C-7.46585373 17.27485473 -5.83951338 12.76131311 -3.4375 7.5625 C-3.10814453 6.83095703 -2.77878906 6.09941406 -2.43945312 5.34570312 C-1.63422894 3.56020601 -0.81822154 1.77957845 0 0 Z " fill="#665F67" transform="translate(416,95)"/>
<path d="M0 0 C0.66 0 1.32 0 2 0 C-3.11693548 15.67741935 -3.11693548 15.67741935 -6 21 C-6.66 21 -7.32 21 -8 21 C-7.301897 16.49723568 -5.71324524 12.44421829 -4 8.25 C-3.59007812 7.22326172 -3.59007812 7.22326172 -3.171875 6.17578125 C-1.13600498 1.13600498 -1.13600498 1.13600498 0 0 Z " fill="#686067" transform="translate(434,53)"/>
<path d="M0 0 C0.66 0 1.32 0 2 0 C0.61849845 6.03025428 -1.24612493 11.68021661 -3.5 17.4375 C-3.80808594 18.25154297 -4.11617188 19.06558594 -4.43359375 19.90429688 C-4.73394531 20.67708984 -5.03429687 21.44988281 -5.34375 22.24609375 C-5.61380859 22.94404053 -5.88386719 23.6419873 -6.16210938 24.36108398 C-7 26 -7 26 -9 27 C-8.59813573 21.10599065 -6.61936797 16.35386966 -4.27734375 10.95703125 C-2.71790423 7.3469526 -1.34930323 3.6928299 0 0 Z " fill="#92405B" transform="translate(315,144)"/>
<path d="M0 0 C0.33 0.66 0.66 1.32 1 2 C0.37498605 3.68272986 -0.30177383 5.34630643 -1 7 C-1.309375 8.175625 -1.61875 9.35125 -1.9375 10.5625 C-2.91691163 13.73118468 -3.72356379 15.62871228 -6 18 C-6.66 18 -7.32 18 -8 18 C-7.32829194 14.1936543 -6.27253436 10.64793184 -5 7 C-4.34 7 -3.68 7 -3 7 C-2.690625 6.030625 -2.38125 5.06125 -2.0625 4.0625 C-1 1 -1 1 0 0 Z " fill="#2F5395" transform="translate(208,237)"/>
<path d="M0 0 C0.66 0.33 1.32 0.66 2 1 C-0.05764921 7.45353615 -2.42383482 13.7361263 -5 20 C-5.33 20 -5.66 20 -6 20 C-5.67 16.04 -5.34 12.08 -5 8 C-4.01 8 -3.02 8 -2 8 C-2 6.02 -2 4.04 -2 2 C-1.34 2 -0.68 2 0 2 C0 1.34 0 0.68 0 0 Z " fill="#A92E3C" transform="translate(411,80)"/>
<path d="M0 0 C0 4.62 0 9.24 0 14 C-0.33 14 -0.66 14 -1 14 C-1 11.69 -1 9.38 -1 7 C-1.66 7 -2.32 7 -3 7 C-3.28875 8.134375 -3.5775 9.26875 -3.875 10.4375 C-4.24625 11.613125 -4.6175 12.78875 -5 14 C-5.99 14.495 -5.99 14.495 -7 15 C-7 13.02 -7 11.04 -7 9 C-6.01 8.67 -5.02 8.34 -4 8 C-3.87625 6.865625 -3.7525 5.73125 -3.625 4.5625 C-3.41875 3.386875 -3.2125 2.21125 -3 1 C-1 0 -1 0 0 0 Z " fill="#574F56" transform="translate(608,179)"/>
<path d="M0 0 C6.27 0 12.54 0 19 0 C19 6.7627065 18.71237343 8.46223757 16 14 C15.67 14 15.34 14 15 14 C14.75258034 8.92789703 15.50964109 6.21625619 17 1 C11.39 1 5.78 1 0 1 C0 0.67 0 0.34 0 0 Z " fill="#B62433" transform="translate(408,43)"/>
<path d="M0 0 C2 4 2 4 3 7 C3.99 6.67 4.98 6.34 6 6 C6 6.99 6 7.98 6 9 C5.34 9 4.68 9 4 9 C3.67 10.65 3.34 12.3 3 14 C1.68 13.67 0.36 13.34 -1 13 C-0.67 8.71 -0.34 4.42 0 0 Z " fill="#635B63" transform="translate(545,142)"/>
<path d="M0 0 C0.33 0 0.66 0 1 0 C1.45675183 5.70939788 0.62105556 8.55127459 -3 13 C-3.99 13.66 -4.98 14.32 -6 15 C-5.74337755 13.55989519 -5.46909179 12.1229313 -5.1875 10.6875 C-5.03667969 9.88699219 -4.88585937 9.08648437 -4.73046875 8.26171875 C-3.91205223 5.72769112 -2.91140191 4.79099864 -1 3 C-0.67 2.01 -0.34 1.02 0 0 Z " fill="#A0344B" transform="translate(323,129)"/>
<path d="M0 0 C0.66 0 1.32 0 2 0 C1.29937517 4.56736441 -0.31270207 8.5699505 -2.0625 12.8125 C-2.34416016 13.50537109 -2.62582031 14.19824219 -2.91601562 14.91210938 C-3.60674973 16.60967624 -4.30283728 18.30506312 -5 20 C-5.33 20 -5.66 20 -6 20 C-6.42540993 14.7887283 -5.74401025 11.97509762 -3.0234375 7.7109375 C-1.56863774 5.27886766 -0.79251533 2.70776072 0 0 Z " fill="#9C3742" transform="translate(350,226)"/>
<path d="M0 0 C1.003813 2.63424866 1.10520035 3.72701174 0.07421875 6.40234375 C-0.61220703 7.65724609 -0.61220703 7.65724609 -1.3125 8.9375 C-3.09386491 12.23991574 -4.66306809 15.49133833 -6 19 C-7.66931202 15.66137596 -6.11925106 12.37542558 -5 9 C-1.89296636 1.89296636 -1.89296636 1.89296636 0 0 Z " fill="#685F62" transform="translate(564,113)"/>
<path d="M0 0 C1.13583456 3.71727674 0.66670026 5.47051709 -1 9 C-1.66 9 -2.32 9 -3 9 C-3.0825 9.66 -3.165 10.32 -3.25 11 C-4.24759791 14.99039163 -6.07166683 18.38549643 -8 22 C-9.60031344 18.79937313 -8.03173691 16.27728194 -7 13 C-6.34 13 -5.68 13 -5 13 C-4.9175 12.34 -4.835 11.68 -4.75 11 C-3.75240209 7.00960837 -1.92833317 3.61450357 0 0 Z " fill="#814568" transform="translate(333,103)"/>
<path d="M0 0 C1.36420006 4.09260018 -0.2335485 6.47012659 -1.9375 10.1875 C-2.22818359 10.84169922 -2.51886719 11.49589844 -2.81835938 12.16992188 C-3.53695343 13.78381344 -4.2673588 15.39243655 -5 17 C-5.33 17 -5.66 17 -6 17 C-5.38400666 6.060808 -5.38400666 6.060808 -2 2 C-1.34 2 -0.68 2 0 2 C0 1.34 0 0.68 0 0 Z " fill="#9E3641" transform="translate(363,197)"/>
<path d="M0 0 C0.66 0 1.32 0 2 0 C1.29807915 4.93321834 -0.63530775 9.25974682 -2.5625 13.8125 C-2.89185547 14.60076172 -3.22121094 15.38902344 -3.56054688 16.20117188 C-4.36958906 18.13583796 -5.18423852 20.06815753 -6 22 C-7.16585932 18.50242203 -6.75860292 17.38431934 -5.6875 13.9375 C-5.42324219 13.05964844 -5.15898437 12.18179688 -4.88671875 11.27734375 C-4 9 -4 9 -2 7 C-1.28072705 4.68234271 -0.6090107 2.34904126 0 0 Z " fill="#A4323D" transform="translate(380,154)"/>
<path d="M0 0 C0.66 0 1.32 0 2 0 C1.43668544 2.63079887 0.85066024 5.25271463 0.25 7.875 C0.09273437 8.62136719 -0.06453125 9.36773437 -0.2265625 10.13671875 C-1.5208965 15.66252929 -1.5208965 15.66252929 -4.140625 17.5078125 C-5.06101563 17.75144531 -5.06101563 17.75144531 -6 18 C-5.31583566 13.82423832 -3.98634991 10.11919593 -2.4375 6.1875 C-1.75494141 4.44533203 -1.75494141 4.44533203 -1.05859375 2.66796875 C-0.70925781 1.78753906 -0.35992187 0.90710938 0 0 Z " fill="#86AFCC" transform="translate(160,178)"/>
<path d="M0 0 C1.003813 2.63424866 1.10520035 3.72701174 0.07421875 6.40234375 C-0.61220703 7.65724609 -0.61220703 7.65724609 -1.3125 8.9375 C-3.09386491 12.23991574 -4.66306809 15.49133833 -6 19 C-7.18771723 15.57056481 -6.80226223 13.62215325 -5.5625 10.25 C-5.27503906 9.45078125 -4.98757812 8.6515625 -4.69140625 7.828125 C-4.46324219 7.22484375 -4.23507813 6.6215625 -4 6 C-3.34 6 -2.68 6 -2 6 C-1.34 4.02 -0.68 2.04 0 0 Z " fill="#496CA5" transform="translate(235,168)"/>
<path d="M0 0 C3.63 0 7.26 0 11 0 C11 0.99 11 1.98 11 3 C7.04 3 3.08 3 -1 3 C-0.67 2.01 -0.34 1.02 0 0 Z " fill="#636063" transform="translate(352,259)"/>
<path d="M0 0 C0.66 0.66 1.32 1.32 2 2 C1.60517106 5.24868019 0.139518 7.85635493 -1.4375 10.6875 C-1.86933594 11.47511719 -2.30117188 12.26273438 -2.74609375 13.07421875 C-4 15 -4 15 -6 16 C-4.25192871 10.53262809 -2.34205919 5.24175152 0 0 Z " fill="#B4242F" transform="translate(308,167)"/>
<path d="M0 0 C1.18771723 3.42943519 0.80226223 5.37784675 -0.4375 8.75 C-0.86869141 9.94882813 -0.86869141 9.94882813 -1.30859375 11.171875 C-1.53675781 11.77515625 -1.76492188 12.3784375 -2 13 C-2.66 12.67 -3.32 12.34 -4 12 C-3.5317879 7.22423661 -2.75668002 3.95523655 0 0 Z " fill="#A72638" transform="translate(280,234)"/>
<path d="M0 0 C0.66 0 1.32 0 2 0 C1.33501617 4.38889325 -0.18757677 7.9811485 -2 12 C-2.99 10.68 -3.98 9.36 -5 8 C-3.63055898 5.05043472 -2.12169591 2.47531189 0 0 Z " fill="#625F63" transform="translate(599,195)"/>
<path d="M0 0 C1.37082327 2.74164654 0.60860349 3.8688232 -0.3125 6.75 C-0.59351563 7.63945312 -0.87453125 8.52890625 -1.1640625 9.4453125 C-3.15675676 15.53513514 -3.15675676 15.53513514 -4 18 C-4.66 18 -5.32 18 -6 18 C-5.43039304 12.73113562 -3.894811 3.894811 0 0 Z " fill="#444880" transform="translate(298,182)"/>
<path d="M0 0 C1.47056771 2.94113542 0.49109505 4.79548143 -0.3125 7.9375 C-0.70888672 9.52884766 -0.70888672 9.52884766 -1.11328125 11.15234375 C-2 14 -2 14 -4 17 C-4.66 17 -5.32 17 -6 17 C-4.33846988 11.14340094 -2.52958084 5.5409866 0 0 Z " fill="#6089BC" transform="translate(237,157)"/>
<path d="M0 0 C1.25631019 3.58218177 0.7448506 6.00647476 -0.25 9.625 C-0.62898438 11.06746094 -0.62898438 11.06746094 -1.015625 12.5390625 C-2 15 -2 15 -5 17 C-4.06898067 10.84431924 -3.20578207 5.39154257 0 0 Z " fill="#AF2436" transform="translate(356,50)"/>
<path d="M0 0 C0.33 0 0.66 0 1 0 C1.27771418 4.67948398 0.54837397 7.67583336 -1.5 11.875 C-1.9640625 12.84179688 -2.428125 13.80859375 -2.90625 14.8046875 C-3.2671875 15.52914062 -3.628125 16.25359375 -4 17 C-5.27424413 13.17726761 -4.44830198 11.69293974 -3.125 7.9375 C-2.75632812 6.87402344 -2.38765625 5.81054688 -2.0078125 4.71484375 C-1 2 -1 2 0 0 Z " fill="#A82936" transform="translate(390,130)"/>
<path d="M0 0 C0.33 0.66 0.66 1.32 1 2 C0.26821134 4.07196631 -0.55899003 6.1108552 -1.4375 8.125 C-1.91058594 9.22070312 -2.38367188 10.31640625 -2.87109375 11.4453125 C-3.24363281 12.28835937 -3.61617188 13.13140625 -4 14 C-4.33 14 -4.66 14 -5 14 C-5 11.36 -5 8.72 -5 6 C-4.34 6 -3.68 6 -3 6 C-2.87625 5.195625 -2.7525 4.39125 -2.625 3.5625 C-2.41875 2.716875 -2.2125 1.87125 -2 1 C-1.34 0.67 -0.68 0.34 0 0 Z " fill="#A72D38" transform="translate(404,100)"/>
<path d="M0 0 C1.125 1.625 1.125 1.625 2 4 C1.375 7.125 1.375 7.125 0 10 C-2.125 11.375 -2.125 11.375 -4 12 C-3.33501617 7.61110675 -1.81242323 4.0188515 0 0 Z " fill="#85B4D2" transform="translate(197,89)"/>
<path d="M0 0 C0.66 0 1.32 0 2 0 C1.31113213 3.38891322 0.01283514 6.18011613 -1.5625 9.25 C-2.01753906 10.14203125 -2.47257812 11.0340625 -2.94140625 11.953125 C-3.29074219 12.62859375 -3.64007813 13.3040625 -4 14 C-5.06528748 11.26980214 -5.07998186 10.20701188 -4.00390625 7.421875 C-3.52824219 6.54015625 -3.05257813 5.6584375 -2.5625 4.75 C-2.08941406 3.85796875 -1.61632812 2.9659375 -1.12890625 2.046875 C-0.75636719 1.37140625 -0.38382812 0.6959375 0 0 Z " fill="#645F65" transform="translate(425,75)"/>
<path d="M0 0 C0 2.95451259 -0.46061914 4.8456443 -1.375 7.625 C-1.63023437 8.42164063 -1.88546875 9.21828125 -2.1484375 10.0390625 C-3 12 -3 12 -5 13 C-4.93976735 11.39479996 -4.85091401 9.79065673 -4.75 8.1875 C-4.70359375 7.29417969 -4.6571875 6.40085938 -4.609375 5.48046875 C-4 3 -4 3 -1.953125 1.17578125 C-1.30859375 0.78777344 -0.6640625 0.39976562 0 0 Z " fill="#374F8D" transform="translate(304,168)"/>
<path d="M0 0 C1.18771723 3.42943519 0.80226223 5.37784675 -0.4375 8.75 C-0.72496094 9.54921875 -1.01242187 10.3484375 -1.30859375 11.171875 C-1.53675781 11.77515625 -1.76492188 12.3784375 -2 13 C-2.66 13 -3.32 13 -4 13 C-4.33 14.32 -4.66 15.64 -5 17 C-5.33 16.01 -5.66 15.02 -6 14 C-5.0466653 12.29057226 -4.0853962 10.58430214 -3.05859375 8.91796875 C-1.47490491 6.04862845 -0.77744369 3.17456174 0 0 Z " fill="#903954" transform="translate(352,56)"/>
<path d="M0 0 C1 2 1 2 0.22265625 4.3828125 C-0.16019531 5.28773437 -0.54304688 6.19265625 -0.9375 7.125 C-1.31777344 8.03507812 -1.69804687 8.94515625 -2.08984375 9.8828125 C-2.39019531 10.58148438 -2.69054687 11.28015625 -3 12 C-4.1700097 8.08263419 -3.69584017 5.02040985 -3 1 C-2.01 0.67 -1.02 0.34 0 0 Z " fill="#5072AE" transform="translate(263,100)"/>
<path d="M0 0 C0.33 0.66 0.66 1.32 1 2 C0.26821134 4.07196631 -0.55899003 6.1108552 -1.4375 8.125 C-1.91058594 9.22070312 -2.38367188 10.31640625 -2.87109375 11.4453125 C-3.24363281 12.28835937 -3.61617188 13.13140625 -4 14 C-5.02328619 10.80588526 -4.96256253 8.5784116 -4.25 5.3125 C-4.09015625 4.52488281 -3.9303125 3.73726563 -3.765625 2.92578125 C-3.51296875 2.29027344 -3.2603125 1.65476562 -3 1 C-2.01 0.67 -1.02 0.34 0 0 Z " fill="#A13542" transform="translate(418,67)"/>
<path d="M0 0 C0.93045933 2.55144824 1.08564091 3.74006478 0.22265625 6.359375 C-0.16019531 7.14828125 -0.54304687 7.9371875 -0.9375 8.75 C-1.50791016 9.94882813 -1.50791016 9.94882813 -2.08984375 11.171875 C-2.39019531 11.77515625 -2.69054687 12.3784375 -3 13 C-4.66598857 7.95760794 -2.27200378 4.54400756 0 0 Z " fill="#2D5698" transform="translate(244,149)"/>
<path d="M0 0 C0 3 0 3 -2 6 C-2.58837246 7.71383721 -3.12719954 9.44519841 -3.625 11.1875 C-3.88539063 12.08855469 -4.14578125 12.98960938 -4.4140625 13.91796875 C-4.70410156 14.94857422 -4.70410156 14.94857422 -5 16 C-5.33 16 -5.66 16 -6 16 C-6.58173436 10.32808998 -4.79717437 5.84911616 -2 1 C-1.34 0.67 -0.68 0.34 0 0 Z " fill="#744166" transform="translate(345,75)"/>
<path d="M0 0 C1.32 0.33 2.64 0.66 4 1 C3.67 2.32 3.34 3.64 3 5 C2.34 5 1.68 5 1 5 C0.34 7.31 -0.32 9.62 -1 12 C-1.66 11.34 -2.32 10.68 -3 10 C-2.01 6.7 -1.02 3.4 0 0 Z " fill="#557BA6" transform="translate(284,41)"/>
<path d="M0 0 C0.66 0 1.32 0 2 0 C1.39301257 4.12751449 -0.03810791 7.3321148 -2 11 C-2.66 11 -3.32 11 -4 11 C-3.52269162 9.5410574 -3.04308958 8.08286504 -2.5625 6.625 C-2.29566406 5.81289062 -2.02882813 5.00078125 -1.75390625 4.1640625 C-1 2 -1 2 0 0 Z " fill="#656066" transform="translate(358,233)"/>
<path d="M0 0 C0.33 0 0.66 0 1 0 C0.67 2.97 0.34 5.94 0 9 C-0.99 9.33 -1.98 9.66 -3 10 C-3.3648363 5.74357648 -2.47460354 3.46444495 0 0 Z " fill="#633E65" transform="translate(275,240)"/>
<path d="M0 0 C0.33 0 0.66 0 1 0 C0.93999894 1.6260287 0.8512115 3.25101549 0.75 4.875 C0.70359375 5.77992188 0.6571875 6.68484375 0.609375 7.6171875 C0 10 0 10 -2.046875 11.3203125 C-2.69140625 11.54460937 -3.3359375 11.76890625 -4 12 C-3.52309796 10.37433394 -3.04340334 8.74948689 -2.5625 7.125 C-2.29566406 6.22007812 -2.02882812 5.31515625 -1.75390625 4.3828125 C-1 2 -1 2 0 0 Z " fill="#82BFE4" transform="translate(149,209)"/>
<path d="M0 0 C0.6875 1.6875 0.6875 1.6875 1 4 C-0.3125 6.75 -0.3125 6.75 -2 9 C-2.66 9 -3.32 9 -4 9 C-4 10.65 -4 12.3 -4 14 C-4.66 14 -5.32 14 -6 14 C-4.7023817 8.70139194 -2.84984298 4.65474354 0 0 Z " fill="#B92535" transform="translate(339,95)"/>
<path d="M0 0 C1.36828421 4.10485263 0.40446341 6.98840049 -1 11 C-2.625 13.5 -2.625 13.5 -4 15 C-4.20086443 11.28400809 -4.1519437 10.22791555 -2 7 C-1.29187186 4.67891331 -0.61975848 2.34622853 0 0 Z " fill="#6C4165" transform="translate(357,41)"/>
<path d="M0 0 C0.66 0 1.32 0 2 0 C1.609375 5.95703125 1.609375 5.95703125 1 8 C-0.32 8.99 -1.64 9.98 -3 11 C-2.01 7.37 -1.02 3.74 0 0 Z " fill="#A92434" transform="translate(288,213)"/>
<path d="M0 0 C0.66 0 1.32 0 2 0 C0.125 7.625 0.125 7.625 -1 11 C-1.99 11.33 -2.98 11.66 -4 12 C-2.87204037 7.89100419 -1.66489182 3.92438786 0 0 Z " fill="#824469" transform="translate(315,144)"/>
<path d="M0 0 C1.25541557 3.76624671 0.37061958 5.37188934 -1 9 C-1.66 9 -2.32 9 -3 9 C-3.33 10.32 -3.66 11.64 -4 13 C-4.6875 11.25 -4.6875 11.25 -5 9 C-3.6875 7.0625 -3.6875 7.0625 -2 5 C-1.28837557 3.35202764 -0.60968047 1.68834592 0 0 Z " fill="#46477B" transform="translate(346,67)"/>
<path d="M0 0 C1.15957207 3.47871621 0.77456651 4.34219645 -0.4375 7.6875 C-0.86869141 8.89986328 -0.86869141 8.89986328 -1.30859375 10.13671875 C-1.53675781 10.75160156 -1.76492188 11.36648437 -2 12 C-2.66 12 -3.32 12 -4 12 C-3.33501617 7.61110675 -1.81242323 4.0188515 0 0 Z " fill="#AA2332" transform="translate(296,196)"/>
<path d="M0 0 C0.66 0.99 1.32 1.98 2 3 C1.34 3.66 0.68 4.32 0 5 C-0.88778692 6.96488831 -0.88778692 6.96488831 -1.625 9.125 C-1.88539063 9.84945312 -2.14578125 10.57390625 -2.4140625 11.3203125 C-2.60742188 11.87460938 -2.80078125 12.42890625 -3 13 C-3.93045933 10.44855176 -4.08564091 9.25993522 -3.22265625 6.640625 C-2.83980469 5.85171875 -2.45695313 5.0628125 -2.0625 4.25 C-1.68222656 3.45078125 -1.30195313 2.6515625 -0.91015625 1.828125 C-0.60980469 1.22484375 -0.30945313 0.6215625 0 0 Z " fill="#2E5595" transform="translate(252,130)"/>
<path d="M0 0 C0.33 0 0.66 0 1 0 C1.36871508 6.51396648 1.36871508 6.51396648 -0.375 8.8125 C-0.91125 9.204375 -1.4475 9.59625 -2 10 C-2.66 10.66 -3.32 11.32 -4 12 C-3.33501617 7.61110675 -1.81242323 4.0188515 0 0 Z " fill="#2A5094" transform="translate(213,224)"/>
<path d="M0 0 C0.66 0 1.32 0 2 0 C2 1.98 2 3.96 2 6 C1.34 6 0.68 6 0 6 C0 6.66 0 7.32 0 8 C-0.99 7.67 -1.98 7.34 -3 7 C-2.01 4.69 -1.02 2.38 0 0 Z " fill="#696167" transform="translate(382,176)"/>
<path d="M0 0 C0.33 0 0.66 0 1 0 C1.3125 2.6875 1.3125 2.6875 1 6 C-1.5 8.875 -1.5 8.875 -4 11 C-3.21681311 7.08406554 -1.60820142 3.63593365 0 0 Z " fill="#A53447" transform="translate(328,117)"/>
<path d="M0 0 C1.39195915 4.17587745 -0.17676781 6.13474776 -2 10 C-2.66 10 -3.32 10 -4 10 C-3.43454163 6.04179141 -2.19097652 3.3340947 0 0 Z " fill="#605E62" transform="translate(439,42)"/>
<path d="M0 0 C1 3 1 3 0.22265625 5.04296875 C-0.16019531 5.75066406 -0.54304688 6.45835938 -0.9375 7.1875 C-1.31777344 7.90292969 -1.69804687 8.61835938 -2.08984375 9.35546875 C-2.54037109 10.16951172 -2.54037109 10.16951172 -3 11 C-4.60031344 7.79937313 -3.03173691 5.27728194 -2 2 C-1.34 2 -0.68 2 0 2 C0 1.34 0 0.68 0 0 Z " fill="#3B467F" transform="translate(324,120)"/>
<path d="M0 0 C0.33 0 0.66 0 1 0 C0.88601335 1.62580966 0.75844341 3.25067157 0.625 4.875 C0.52058594 6.23238281 0.52058594 6.23238281 0.4140625 7.6171875 C0 10 0 10 -2 12 C-2.28571429 3.42857143 -2.28571429 3.42857143 0 0 Z " fill="#5079AD" transform="translate(267,85)"/>
<path d="M0 0 C0.33 0.66 0.66 1.32 1 2 C0.06421005 4.35981813 -0.93347808 6.69631264 -2 9 C-2.99 9 -3.98 9 -5 9 C-3.7508258 5.54074837 -2.32472205 2.85306797 0 0 Z " fill="#6F3A60" transform="translate(287,215)"/>
<path d="M0 0 C1.39195915 4.17587745 -0.17676781 6.13474776 -2 10 C-2.66 10 -3.32 10 -4 10 C-3.52449439 8.51965236 -3.04448784 7.04074979 -2.5625 5.5625 C-2.29566406 4.73878906 -2.02882812 3.91507813 -1.75390625 3.06640625 C-1 1 -1 1 0 0 Z " fill="#2C5093" transform="translate(229,186)"/>
<path d="M0 0 C0.6875 1.6875 0.6875 1.6875 1 4 C-0.3125 6.75 -0.3125 6.75 -2 9 C-2.66 9 -3.32 9 -4 9 C-2.25 2.25 -2.25 2.25 0 0 Z " fill="#656266" transform="translate(407,119)"/>
<path d="M0 0 C1.27351308 2.54702616 0.80191925 3.4282945 0.0625 6.125 C-0.13214844 6.84945312 -0.32679688 7.57390625 -0.52734375 8.3203125 C-0.68332031 8.87460938 -0.83929688 9.42890625 -1 10 C-1.66 10 -2.32 10 -3 10 C-3.36629408 5.72656908 -2.40814077 3.51187196 0 0 Z " fill="#36508B" transform="translate(329,106)"/>
<path d="M0 0 C0.66 0 1.32 0 2 0 C1.67 2.31 1.34 4.62 1 7 C0.34 7 -0.32 7 -1 7 C-1 7.66 -1 8.32 -1 9 C-1.66 9 -2.32 9 -3 9 C-2.01 6.03 -1.02 3.06 0 0 Z " fill="#5884B6" transform="translate(258,106)"/>
<path d="M0 0 C0.5625 1.9375 0.5625 1.9375 1 4 C0 5 0 5 -2.28515625 5.09765625 C-3.65994141 5.08025391 -3.65994141 5.08025391 -5.0625 5.0625 C-5.98160156 5.05347656 -6.90070313 5.04445313 -7.84765625 5.03515625 C-8.55792969 5.02355469 -9.26820313 5.01195312 -10 5 C-10 4.67 -10 4.34 -10 4 C-9.04287109 3.81824219 -9.04287109 3.81824219 -8.06640625 3.6328125 C-7.24011719 3.46523438 -6.41382813 3.29765625 -5.5625 3.125 C-4.73878906 2.96257812 -3.91507812 2.80015625 -3.06640625 2.6328125 C-2.38449219 2.42398437 -1.70257813 2.21515625 -1 2 C-0.67 1.34 -0.34 0.68 0 0 Z " fill="#3A446C" transform="translate(268,256)"/>
<path d="M0 0 C0.66 0 1.32 0 2 0 C1.01 2.97 0.02 5.94 -1 9 C-1.33 9 -1.66 9 -2 9 C-1.125 2.25 -1.125 2.25 0 0 Z " fill="#2C5596" transform="translate(238,163)"/>
<path d="M0 0 C0.33 0.66 0.66 1.32 1 2 C0.06421005 4.35981813 -0.93347808 6.69631264 -2 9 C-2.33 9 -2.66 9 -3 9 C-3.1875 5.625 -3.1875 5.625 -3 2 C-2.01 1.34 -1.02 0.68 0 0 Z " fill="#A23544" transform="translate(422,57)"/>
<path d="M0 0 C0.66 0.66 1.32 1.32 2 2 C0.68 4.31 -0.64 6.62 -2 9 C-2.6875 7.3125 -2.6875 7.3125 -3 5 C-1.5625 2.25 -1.5625 2.25 0 0 Z " fill="#605F62" transform="translate(593,42)"/>
<path d="M0 0 C1.55932272 3.11864545 0.65549131 5.66295335 0 9 C-0.66 9.66 -1.32 10.32 -2 11 C-1.85957123 9.35369672 -1.71250671 7.70795821 -1.5625 6.0625 C-1.48128906 5.14597656 -1.40007812 4.22945312 -1.31640625 3.28515625 C-1 1 -1 1 0 0 Z " fill="#AF2B37" transform="translate(359,203)"/>
<path d="M0 0 C0.66 0 1.32 0 2 0 C1.01 2.97 0.02 5.94 -1 9 C-2.10107995 5.69676014 -1.86709271 4.29495231 -1 1 C-0.67 0.67 -0.34 0.34 0 0 Z " fill="#284D98" transform="translate(222,201)"/>
<path d="M0 0 C0.33 0.66 0.66 1.32 1 2 C0.22265625 3.7265625 0.22265625 3.7265625 -0.9375 5.625 C-1.618125 6.73875 -2.29875 7.8525 -3 9 C-3.75 7.3125 -3.75 7.3125 -4 5 C-2.0625 2.25 -2.0625 2.25 0 0 Z " fill="#B12738" transform="translate(320,141)"/>
<path d="M0 0 C0.66 0 1.32 0 2 0 C1.01 2.97 0.02 5.94 -1 9 C-1.33 9 -1.66 9 -2 9 C-2.25 3.375 -2.25 3.375 0 0 Z " fill="#9C303C" transform="translate(425,48)"/>
</svg>
