<?xml version="1.0" encoding="UTF-8"?>
<svg version="1.1" xmlns="http://www.w3.org/2000/svg" width="1280" height="1028">
<path d="M0 0 C1.36369553 4.52583422 0.53177484 7.29801982 -1.03515625 11.6953125 C-1.26478058 12.34783997 -1.49440491 13.00036743 -1.73098755 13.67266846 C-2.4948158 15.82847757 -3.27768623 17.97674936 -4.0625 20.125 C-4.60674532 21.63875605 -5.15076823 23.15259208 -5.69458008 24.66650391 C-13.91237489 47.38946792 -22.74478507 69.99334983 -33.01171875 91.875 C-34.01002489 94.0215555 -34.97640304 96.18030906 -35.9375 98.34375 C-61.94920574 156.27383576 -109.3098202 181.38646972 -166.1953125 203.17578125 C-189.55366873 212.05211516 -213.20455735 220.15861589 -236.786026 228.41636658 C-247.05384665 232.01399867 -257.30828308 235.6487156 -267.56045532 239.29064941 C-287.86407475 246.50196093 -308.19948692 253.62014149 -328.54475021 260.7128334 C-346.37925044 266.93032071 -364.20264869 273.17673451 -382 279.5 C-401.15830642 286.30680264 -420.34817362 293.02082555 -439.54656982 299.71343994 C-457.38049279 305.93063902 -475.20325218 312.17694892 -493 318.5 C-512.15830642 325.30680264 -531.34817362 332.02082555 -550.54656982 338.71343994 C-568.38049279 344.93063902 -586.20325218 351.17694892 -604 357.5 C-622.47752908 364.06492756 -640.98382709 370.54512673 -659.5 377 C-679.03394966 383.80978454 -698.5544447 390.65477034 -718.04833984 397.57861328 C-735.01443029 403.60349515 -752.00383679 409.56063542 -769 415.5 C-787.01365968 421.79504179 -805.0178726 428.11530711 -823 434.5 C-840.98212839 440.88469324 -858.98639652 447.20479589 -877 453.5 C-896.04129225 460.15446618 -915.07039472 466.84177131 -934.07910156 473.58886719 C-950.53943723 479.43070522 -967.01660121 485.22357942 -983.5 491 C-1002.8203755 497.77176326 -1022.13419215 504.56126434 -1041.42651367 511.41259766 C-1043.3859011 512.10840928 -1045.34529243 512.80420991 -1047.3046875 513.5 C-1048.29360489 513.85121918 -1049.28252228 514.20243835 -1050.30140686 514.56430054 C-1056.75693848 516.85503169 -1063.21668892 519.1335705 -1069.67932034 521.40418053 C-1075.18123252 523.33726279 -1080.6815962 525.27470987 -1086.18109226 527.21465492 C-1089.5244199 528.39370333 -1092.86848644 529.57053343 -1096.21469116 530.74139404 C-1145.37817287 545.07168333 -1145.37817287 545.07168333 -1182.28125 577.36328125 C-1187.19877665 588.0940269 -1187.05669059 597.60443013 -1183.25390625 608.80078125 C-1179.81142671 617.58392998 -1175.3242299 624.23161108 -1168.7578125 631.00390625 C-1167 633 -1167 633 -1167 635 C-1166.41734375 635.25394531 -1165.8346875 635.50789062 -1165.234375 635.76953125 C-1162.75811967 637.13320333 -1161.19479374 638.64225203 -1159.25 640.6875 C-1156.04338464 644.04905685 -1152.63770587 647.08288307 -1149.13232422 650.1237793 C-1145.65354728 653.18473657 -1142.29942498 656.37439958 -1138.9375 659.5625 C-1137.43904786 660.97812478 -1135.94034522 662.39348445 -1134.44140625 663.80859375 C-1133.69648926 664.51226074 -1132.95157227 665.21592773 -1132.18408203 665.94091797 C-1128.92489993 669.01356964 -1125.65138552 672.07071291 -1122.375 675.125 C-1121.76454834 675.69420166 -1121.15409668 676.26340332 -1120.52514648 676.84985352 C-1119.29778502 677.99408109 -1118.0703278 679.13820594 -1116.84277344 680.28222656 C-1113.72706096 683.18659236 -1110.61364547 686.09341863 -1107.5 689 C-1103.76228583 692.48888962 -1100.0243238 695.97751174 -1096.28515625 699.46484375 C-1086.50067968 708.59145401 -1076.73778575 717.74091729 -1066.97949219 726.89550781 C-1059.82709123 733.6049928 -1052.67153546 740.3109647 -1045.5 747 C-1038.32694966 753.69044827 -1031.16997151 760.39792758 -1024.01611328 767.10888672 C-1020.67807332 770.23996658 -1017.33898654 773.36992964 -1014 776.5 C-1012.66666159 777.74999459 -1011.33332826 778.99999459 -1010 780.25 C-1009.34 780.86875 -1008.68 781.4875 -1008 782.125 C-995.33333333 794 -982.66666667 805.875 -970 817.75 C-969.33919434 818.36939453 -968.67838867 818.98878906 -967.99755859 819.62695312 C-966.67191598 820.86996585 -965.34671639 822.11345121 -964.02197266 823.35742188 C-960.57455954 826.59345704 -957.11852245 829.81952626 -953.6484375 833.03125 C-952.93300781 833.69576172 -952.21757813 834.36027344 -951.48046875 835.04492188 C-950.1239655 836.30453203 -948.76478941 837.56127291 -947.40234375 838.81445312 C-946.78230469 839.39130859 -946.16226562 839.96816406 -945.5234375 840.5625 C-944.98638184 841.05878906 -944.44932617 841.55507813 -943.89599609 842.06640625 C-941.11346286 844.9041172 -938.58644295 847.98248322 -936 851 C-971.31 851 -1006.62 851 -1043 851 C-1044.65 846.71 -1046.3 842.42 -1048 838 C-1049.03484836 835.62412107 -1050.10838921 833.2639644 -1051.25 830.9375 C-1051.75015625 829.89464844 -1052.2503125 828.85179687 -1052.765625 827.77734375 C-1059.37324536 815.93318826 -1069.01058887 806.58004426 -1078.55664062 797.13452148 C-1080.01198968 795.68330168 -1081.466657 794.23139795 -1082.92070007 792.77886963 C-1086.03301847 789.67260746 -1089.14995894 786.57108913 -1092.27067566 783.47326469 C-1097.21330552 778.56667671 -1102.14478163 773.6489774 -1107.0748291 768.72975159 C-1116.65235567 759.17627373 -1126.24115501 749.63415622 -1135.83106232 740.09310913 C-1148.038622 727.94651344 -1160.2405225 715.79424778 -1172.43332624 703.63283974 C-1177.32743658 698.75205178 -1182.22673716 693.87655416 -1187.13030243 689.00526607 C-1190.18762651 685.96614831 -1193.24075734 682.92284337 -1196.29285622 679.878479 C-1197.69989057 678.47674966 -1199.10865128 677.07675055 -1200.51933861 675.67869759 C-1208.15655489 668.10805607 -1215.41422968 660.5217122 -1222 652 C-1222.73532833 651.06312426 -1222.73532833 651.06312426 -1223.48551178 650.10732174 C-1242.11127564 626.00844178 -1250.24994308 597.94621104 -1246.71142578 567.51855469 C-1242.55427758 543.28991374 -1224.23411777 522.5967519 -1204.75 508.75 C-1188.88957512 497.86056665 -1172.03365606 490.11695701 -1154.24768066 482.91070557 C-1151.77479988 481.90875438 -1149.30291026 480.90438001 -1146.83105469 479.89990234 C-1135.80226688 475.42078521 -1124.76462426 470.96379017 -1113.72329712 466.51568604 C-1104.79043452 462.91678417 -1095.86236013 459.30619646 -1086.9375 455.6875 C-1086.21550415 455.39486267 -1085.4935083 455.10222534 -1084.74963379 454.80072021 C-1075.00567057 450.85083454 -1065.26707569 446.88786819 -1055.53125 442.91796875 C-1054.434142 442.47061874 -1053.337034 442.02326874 -1052.2066803 441.56236267 C-1051.09183762 441.10777176 -1049.97699493 440.65318085 -1048.82836914 440.18481445 C-1046.53141516 439.24820375 -1044.23445876 438.31159899 -1041.9375 437.375 C-1040.79102997 436.90750336 -1039.64455994 436.44000671 -1038.46334839 435.95834351 C-1020.58203468 428.66815035 -1002.68371717 421.42105762 -984.77462769 414.19940186 C-968.16834826 407.50219598 -951.57929584 400.76371287 -935 394 C-911.64602939 384.47280863 -888.26361838 375.01730861 -864.87263489 365.5814209 C-851.73348847 360.28013413 -838.60430429 354.95431418 -825.47573853 349.62689209 C-820.45340776 347.58904777 -815.43006617 345.55371057 -810.40625 343.51953125 C-790.8574162 335.60284675 -771.32270753 327.65186157 -751.79226685 319.68991089 C-736.03858905 313.26817309 -720.27706432 306.86641879 -704.50445557 300.49133301 C-688.04546849 293.83787891 -671.60432545 287.1409251 -655.16503906 280.43896484 C-640.56789924 274.48813643 -625.96679786 268.54746183 -611.35540771 262.63171387 C-595.82431249 256.34275884 -580.30878831 250.01570886 -564.79263306 243.69000244 C-549.76587215 237.56439562 -534.73254521 231.45555512 -519.6875 225.375 C-501.7638352 218.13029069 -483.86277885 210.83089059 -465.96598816 203.52008057 C-464.93049332 203.09708679 -463.89499847 202.67409302 -462.828125 202.23828125 C-461.26249565 201.5987149 -461.26249565 201.5987149 -459.66523743 200.94622803 C-448.58329597 196.41998411 -437.49708594 191.90423229 -426.41061401 187.38909912 C-419.61151227 184.61991263 -412.81280776 181.849751 -406.01405334 179.07971191 C-400.51265564 176.83830837 -395.01112762 174.59722602 -389.50927734 172.35693359 C-303.82489781 137.46458395 -218.42439037 101.49359293 -126.18823242 56.92260742 C-118.20780854 53.04500756 -110.18245234 49.27715653 -102.125 45.5625 C-92.19469578 40.98358465 -82.33204077 36.28517516 -72.5 31.5 C-59.11779253 24.98765425 -45.64645354 18.69211386 -32.13525391 12.45166016 C-27.39419733 10.25649411 -22.66290487 8.04113537 -17.9375 5.8125 C-17.16374023 5.44979004 -16.38998047 5.08708008 -15.59277344 4.71337891 C-5.21053541 -0.19662398 -5.21053541 -0.19662398 0 0 Z " fill="#FF0000" transform="translate(1247,0)"/>
<path d="M0 0 C1.48736555 4.66077197 0.4221588 7.00335931 -1.76171875 11.27734375 C-2.0632637 11.87617874 -2.36480865 12.47501373 -2.67549133 13.09199524 C-3.66548599 15.0480012 -4.67571729 16.99268687 -5.6875 18.9375 C-6.38426758 20.29939363 -7.0802239 21.6617026 -7.77539062 23.02441406 C-13.63556703 34.46721441 -19.69406921 45.79655983 -26 57 C-26.58249512 58.04140137 -27.16499023 59.08280273 -27.76513672 60.15576172 C-38.90971155 80.02600208 -50.44915415 99.24171222 -66 116 C-66.49935059 116.54317871 -66.99870117 117.08635742 -67.51318359 117.64599609 C-78.89818556 129.90313354 -91.66753188 140.041416 -106.4375 147.9375 C-107.22189453 148.3617627 -108.00628906 148.78602539 -108.81445312 149.22314453 C-124.30936772 157.13550755 -141.86303657 160.98944595 -158.59375 165.375 C-160.87591585 165.97791456 -163.15793531 166.58138347 -165.43981934 167.18536377 C-170.27788738 168.46487777 -175.11683525 169.74098442 -179.95654297 171.01428223 C-187.60935494 173.02786404 -195.26000248 175.04958843 -202.91015625 177.07324219 C-204.20223438 177.41499907 -205.49431304 177.75675399 -206.78639221 178.09850693 C-208.72401592 178.61100952 -210.66163709 179.12352165 -212.59924793 179.63607287 C-217.11650236 180.83095474 -221.63401371 182.02486111 -226.15161133 183.21844482 C-246.64095516 188.63293381 -267.11664283 194.09688726 -287.5823555 199.59996033 C-290.83225882 200.47377204 -294.08230722 201.3470435 -297.33234882 202.22034073 C-303.08685715 203.76660882 -308.8412951 205.31313835 -314.5955658 206.86029053 C-333.53147048 211.95128635 -352.47166246 217.02628182 -371.41174316 222.10171509 C-377.56068644 223.74947776 -383.70955012 225.3975373 -389.85839844 227.0456543 C-408.35806981 232.00418999 -426.85791721 236.96206809 -445.358078 241.91877747 C-496.80012462 255.70157937 -548.23611586 269.50668638 -599.6651001 283.33815002 C-609.31242691 285.93272517 -618.9598181 288.52706032 -628.60742188 291.12060547 C-630.04529336 291.50714578 -630.04529336 291.50714578 -631.51221275 291.90149498 C-636.36199456 293.20521798 -641.21181152 294.50881001 -646.06167603 295.81222534 C-654.73547563 298.14341145 -663.40913566 300.47510678 -672.08185005 302.81032753 C-676.85913577 304.09664811 -681.63656235 305.38244485 -686.4140625 306.66796875 C-687.36265514 306.92322453 -688.31124779 307.1784803 -689.28858566 307.4414711 C-702.73447453 311.05849956 -716.18692504 314.65027833 -729.64385986 318.22598267 C-737.2464786 320.24622374 -744.84738377 322.27287732 -752.44791031 324.30097389 C-758.65562393 325.95677007 -764.86554649 327.60392227 -771.07726097 329.2446413 C-774.90353545 330.25750106 -778.72757518 331.27859972 -782.55104446 332.30199242 C-784.32191255 332.77415856 -786.09370228 333.2428837 -787.86646652 333.70788002 C-790.29487589 334.34532574 -792.71969424 334.99501278 -795.14404297 335.64770508 C-796.19191105 335.91796635 -796.19191105 335.91796635 -797.26094818 336.19368744 C-802.05496632 337.50363349 -805.85180136 339.32864943 -810 342 C-811.52491998 345.04983996 -811.23562548 347.6423369 -811 351 C-809.45737187 353.10358381 -808.31891683 353.84054159 -806 355 C-806 355.66 -806 356.32 -806 357 C-806.69567078 357.18109314 -807.39134155 357.36218628 -808.10809326 357.54876709 C-841.08725048 366.13466608 -874.06162992 374.73848439 -907.0177002 383.41262817 C-910.86884634 384.42619889 -914.7202923 385.43862546 -918.57180786 386.45079136 C-935.55590755 390.91481393 -952.53312951 395.40361323 -969.50057983 399.93054199 C-976.89263464 401.90256528 -984.28636671 403.86826721 -991.68045235 405.83266068 C-997.84919308 407.47216322 -1004.01557741 409.12018524 -1010.18039894 410.7743597 C-1014.00804928 411.79927635 -1017.83778473 412.81621846 -1021.66814041 413.83097267 C-1023.45872369 414.30712489 -1025.24841506 414.78664513 -1027.03715134 415.26968956 C-1029.48865892 415.93124439 -1031.94301464 416.58093803 -1034.3984375 417.2277832 C-1035.11575861 417.42442377 -1035.83307972 417.62106434 -1036.57213783 417.82366371 C-1042.78608097 419.43655533 -1042.78608097 419.43655533 -1046 418 C-1048.515625 415.7421875 -1048.515625 415.7421875 -1051.25 412.875 C-1054.48248448 409.5199543 -1057.69844431 406.32752334 -1061.3125 403.375 C-1067.989681 397.64192861 -1073.00206393 389.6652273 -1074.31640625 380.88671875 C-1074.72630484 373.44243154 -1072.12331085 366.59329528 -1068.375 360.25 C-1062.52796487 354.71070356 -1056.43007418 350.91955106 -1048.84692383 348.1796875 C-1048.15441686 347.92505234 -1047.46190989 347.67041718 -1046.74841785 347.4080658 C-1038.12937934 344.27080103 -1029.41468533 341.4177525 -1020.69921875 338.5625 C-1018.85202826 337.9546964 -1017.00492864 337.34661659 -1015.15791321 336.73828125 C-1010.31102005 335.14280458 -1005.46280678 333.55137698 -1000.61431885 331.96075439 C-996.78185806 330.70271495 -992.95034895 329.44179318 -989.11889172 328.18070126 C-968.47075928 321.38469667 -947.81002771 314.6279978 -927.1379509 307.90519905 C-910.09359453 302.36196691 -893.06366683 296.77570393 -876.03956223 291.17062759 C-869.74339536 289.09798965 -863.44661143 287.02722619 -857.14995766 284.95606804 C-854.75215185 284.16734015 -852.35436946 283.37854111 -849.95658875 282.58973694 C-834.45273232 277.48968331 -818.94556474 272.39974041 -803.4375 267.3125 C-802.12220199 266.88101367 -800.80690455 266.44952563 -799.49160767 266.01803589 C-794.25066501 264.29873395 -789.00970105 262.57949694 -783.76869202 260.86039734 C-774.5240006 257.82805139 -765.27950836 254.79509894 -756.03515625 251.76171875 C-755.37423288 251.54484846 -754.71330952 251.32797817 -754.03235817 251.10453606 C-750.02331107 249.78903509 -746.01426973 248.47351657 -742.00522995 247.15799332 C-735.99568357 245.18602928 -729.98612588 243.21409973 -723.9765625 241.2421875 C-722.98554566 240.9170048 -722.98554566 240.9170048 -721.97450829 240.58525276 C-712.71078945 237.54555736 -703.44693672 234.50627032 -694.18299675 231.46724892 C-688.24696682 229.51992714 -682.31097483 227.57248973 -676.375 225.625 C-675.39336695 225.30294523 -675.39336695 225.30294523 -674.39190292 224.97438431 C-652.52999503 217.80183022 -630.67076671 210.62114196 -608.8125 203.4375 C-586.91917522 196.24233633 -565.0238849 189.0532247 -543.125 181.875 C-541.88439819 181.46834106 -540.64379639 181.06168213 -539.36560059 180.6427002 C-534.35859597 179.00146203 -529.35158761 177.36023531 -524.34457397 175.71902466 C-510.74672742 171.26171067 -497.1497541 166.80173631 -483.55315018 162.34063339 C-481.56716878 161.68903183 -479.58117719 161.03746136 -477.59518433 160.38589478 C-462.03325758 155.28021217 -446.47273747 150.17027111 -430.9140625 145.0546875 C-376.89939605 127.29539411 -376.89939605 127.29539411 -357.375 120.9375 C-356.54976837 120.6686499 -355.72453674 120.3997998 -354.8742981 120.12280273 C-345.25867173 116.99154573 -335.63667144 113.88076057 -326.00706482 110.79275513 C-288.51272944 98.7667627 -251.11832086 86.44600765 -213.76087475 74.00193959 C-209.29669911 72.51492981 -204.83206592 71.02930186 -200.36724854 69.54421997 C-171.74112619 60.0201744 -143.17087418 50.36285817 -114.71032429 40.35437012 C-107.94453207 37.9762125 -101.1667582 35.63451313 -94.3828125 33.30859375 C-75.65422613 26.87663856 -56.96190109 20.37697113 -38.4375 13.375 C-37.33695282 12.96071243 -37.33695282 12.96071243 -36.21417236 12.53805542 C-29.96034767 10.17745856 -23.72842101 7.80622 -17.63720703 5.04785156 C-16.91864029 4.723461 -16.20007355 4.39907043 -15.45973206 4.06484985 C-14.09450412 3.44218906 -12.73384746 2.80936141 -11.37901306 2.16439819 C-7.4138922 0.34758605 -4.35377744 -0.33217059 0 0 Z " fill="#FF0000" transform="translate(1157,220)"/>
<path d="M0 0 C0.97832103 2.56503432 1.16075441 3.63030193 0.04711914 6.19140625 C-0.45182861 6.97386719 -0.95077637 7.75632812 -1.46484375 8.5625 C-2.01350098 9.43559814 -2.5621582 10.30869629 -3.12744141 11.20825195 C-4.02342041 12.59016724 -4.02342041 12.59016724 -4.9375 14 C-5.53997559 14.9489917 -6.14245117 15.8979834 -6.76318359 16.87573242 C-8.49462257 19.59327818 -10.24311757 22.29885274 -12 25 C-12.40524902 25.62600098 -12.81049805 26.25200195 -13.22802734 26.89697266 C-15.43736241 30.29811718 -17.70826649 33.65397974 -20 37 C-20.82435557 38.21475091 -21.64856479 39.42960115 -22.47265625 40.64453125 C-32.91427492 55.98805833 -43.62775778 71.07275738 -55.56884766 85.29443359 C-56.83086949 86.79843982 -58.07867436 88.31435111 -59.32421875 89.83203125 C-68.87046953 101.03696517 -80.93136199 109.38967999 -94 116 C-94.59441895 116.30389648 -95.18883789 116.60779297 -95.80126953 116.92089844 C-119.03053428 128.55104595 -146.02551451 131.67431165 -171.29577637 136.39465332 C-181.76457503 138.35020999 -192.22807827 140.33387244 -202.69232178 142.31362915 C-206.49430854 143.03270419 -210.29646364 143.75088433 -214.09863281 144.46899414 C-243.49572078 150.02462751 -272.86976931 155.69930502 -302.24315643 161.37868881 C-306.7578375 162.25157887 -311.27261796 163.12395406 -315.78741455 163.99624634 C-352.133923 171.01893041 -388.47694435 178.05956363 -424.81816006 185.10958242 C-427.64939265 185.65882596 -430.48062937 186.20804822 -433.31186676 186.757267 C-450.74866472 190.13979424 -468.18539079 193.52268987 -485.62138844 196.90934044 C-492.45944109 198.23750623 -499.29760074 199.56512018 -506.13583279 200.89236206 C-510.8113965 201.79989552 -515.48681877 202.70815221 -520.16211033 203.61708659 C-523.05247404 204.17879459 -525.94300176 204.73965575 -528.8335495 205.30041587 C-530.93073542 205.70762126 -533.02768488 206.11602929 -535.12463379 206.52445316 C-541.93414202 207.84756486 -548.74743621 209.14433628 -555.57114339 210.39238936 C-558.98361385 211.0165305 -562.39498261 211.64659979 -565.80642271 212.27634466 C-567.44285877 212.57628205 -569.07990832 212.87289401 -570.71759081 213.16594946 C-572.99230011 213.57299859 -575.26473812 213.99109605 -577.53704834 214.41130066 C-578.83544521 214.6462131 -580.13384209 214.88112555 -581.47158432 215.12315655 C-586.5654504 216.38902869 -590.04364053 217.5654608 -593 222 C-593.5838196 224.9149255 -593.5838196 224.9149255 -593 228 C-590.62494782 230.70848923 -590.62494782 230.70848923 -588 233 C-587.67 233.99 -587.34 234.98 -587 236 C-610.3314889 240.40118444 -633.66315815 244.80141181 -656.99501514 249.20064449 C-667.84042357 251.24557199 -678.68578131 253.29076746 -689.53100586 255.33666992 C-693.72313998 256.12746556 -697.9152791 256.91823464 -702.10742188 257.70898438 C-703.14715645 257.90510921 -704.18689102 258.10123404 -705.2581327 258.30330205 C-716.82331475 260.48471563 -728.38881797 262.66440684 -739.95510864 264.8399353 C-741.5196445 265.13422151 -741.5196445 265.13422151 -743.11578715 265.43445289 C-747.32785682 266.22670249 -751.539932 267.01892265 -755.75205064 267.81091189 C-768.70015998 270.24564887 -781.64662228 272.68884598 -794.59090048 275.14387292 C-803.18938871 276.77444496 -811.78893011 278.39937716 -820.38926691 280.02017051 C-825.46011514 280.97610297 -830.530356 281.93502676 -835.5992527 282.90125847 C-840.28579802 283.79457746 -844.97373768 284.68015417 -849.66289735 285.55964351 C-851.37689599 285.88258776 -853.0903466 286.20845616 -854.80319762 286.53743291 C-857.13345763 286.9845769 -859.46543229 287.42132803 -861.79814148 287.85548401 C-862.81487205 288.05447065 -862.81487205 288.05447065 -863.85214263 288.25747722 C-867.16796488 288.86294301 -869.83501487 289.30652956 -873 288 C-875.01647821 286.34318603 -876.87698478 284.68128618 -878.75 282.875 C-879.59111328 282.08125977 -879.59111328 282.08125977 -880.44921875 281.27148438 C-881.66485994 280.12367437 -882.87764389 278.97283243 -884.08789062 277.81933594 C-887.37343147 274.69320591 -890.68947149 271.59961613 -894 268.5 C-895.35808083 267.22526885 -896.71615381 265.95052933 -898.07421875 264.67578125 C-901.64080841 261.33237589 -905.22084568 258.00395455 -908.8125 254.6875 C-909.33287842 254.20619629 -909.85325684 253.72489258 -910.3894043 253.22900391 C-912.98906033 250.83064595 -915.60512085 248.45391162 -918.25 246.10546875 C-918.7658667 245.64503174 -919.2817334 245.18459473 -919.81323242 244.71020508 C-921.22168797 243.45587461 -922.63603804 242.20817188 -924.05078125 240.9609375 C-926 239 -926 239 -926 237 C-912.46785122 233.06054174 -898.89806385 229.35595052 -885.234375 225.90234375 C-883.38014892 225.43105403 -881.52600502 224.95944091 -879.67193604 224.48753357 C-875.74165112 223.48764676 -871.81094779 222.48943029 -867.87988281 221.49261475 C-857.32934057 218.81689774 -846.7819193 216.12891178 -836.234375 213.44140625 C-834.63019463 213.03279861 -834.63019463 213.03279861 -832.99360657 212.61593628 C-812.80030839 207.47156539 -792.62517563 202.25905294 -772.45777893 197.01417923 C-743.98846921 189.6103435 -715.50228154 182.27587557 -687 175 C-659.15153707 167.89092131 -631.31756793 160.72903007 -603.5 153.5 C-575.68243145 146.27096977 -547.84843175 139.10920217 -520 132 C-492.06836708 124.86950494 -464.15096813 117.68706737 -436.25 110.4375 C-409.18042373 103.40395493 -382.09743139 96.42545966 -355 89.5 C-327.8193737 82.55322007 -300.65296759 75.55411621 -273.5 68.5 C-247.20093441 61.66772046 -220.88995946 54.88434543 -194.56425095 48.15544128 C-167.02908784 41.11725234 -139.50316099 34.04479146 -111.99229431 26.91217804 C-109.45456218 26.25442235 -106.91669531 25.59718916 -104.37878418 24.94012451 C-87.24332618 20.50337861 -70.1148041 16.04315469 -53.00848579 11.49520874 C-50.67578686 10.87549104 -48.34272752 10.25715221 -46.00950623 9.6394043 C-45.25777791 9.44037254 -44.50604959 9.24134079 -43.73154163 9.03627777 C-42.2404621 8.64155343 -40.74936268 8.24690423 -39.25824261 7.85233307 C-34.98643913 6.72096662 -30.7174346 5.57972962 -26.45035839 4.43066978 C-24.48007602 3.90181029 -22.50857889 3.37781218 -20.53642273 2.85598755 C-18.15845118 2.22662869 -15.78255283 1.58936016 -13.40925598 0.94259644 C-12.36637924 0.66908356 -11.3235025 0.39557068 -10.24902344 0.11376953 C-9.34972107 -0.12711395 -8.4504187 -0.36799744 -7.52386475 -0.61618042 C-4.73845885 -1.03977417 -2.70894373 -0.7104459 0 0 Z " fill="#FF0000" transform="translate(1053,413)"/>
<path d="M0 0 C0.30859375 2.1484375 0.30859375 2.1484375 0 5 C-1.58887129 7.07295731 -3.10360594 8.79834261 -4.9375 10.625 C-5.96211761 11.69032654 -6.98421677 12.75808049 -8.00390625 13.828125 C-8.76985107 14.62766602 -8.76985107 14.62766602 -9.55126953 15.44335938 C-11.61399256 17.65972642 -13.49231312 20.00498821 -15.375 22.375 C-19.98405054 28.10315454 -24.97306712 33.42723191 -30 38.78515625 C-32.81018474 41.7830904 -35.52491637 44.85150417 -38.2109375 47.9609375 C-40.98206165 51.11929297 -43.82630903 54.2105262 -46.67895508 57.29516602 C-49.0416075 59.85140635 -51.37923756 62.42116553 -53.66015625 65.05078125 C-80.49804598 95.7283247 -116.89710182 105.53181795 -155.83203125 111.1015625 C-158.29087272 111.46299383 -160.74954795 111.82555767 -163.20806885 112.18916321 C-168.39709326 112.95413825 -173.58715729 113.71154341 -178.77835083 114.4616394 C-186.20469442 115.53479336 -193.62862558 116.62395721 -201.05209434 117.71679866 C-224.31710411 121.14087152 -247.58963601 124.51294435 -270.86506653 127.86541748 C-274.83194965 128.43682573 -278.79866169 129.00939502 -282.7651825 129.58331299 C-283.70303746 129.71900444 -284.64089243 129.85469589 -285.60716724 129.99449921 C-287.4463907 130.26064306 -289.28560335 130.52686152 -291.1248045 130.79315948 C-296.34703844 131.54833184 -301.57052574 132.29390516 -306.79527092 133.03149509 C-309.97456902 133.48190305 -313.1528134 133.93943344 -316.33083344 134.39876366 C-317.77038853 134.60518293 -319.21039437 134.80848938 -320.65088654 135.00826454 C-332.61365012 136.05785061 -332.61365012 136.05785061 -342.5625 141.8125 C-343.17767818 144.88839088 -342.87840725 146.98831799 -342 150 C-340.02098426 152.22977996 -340.02098426 152.22977996 -338 154 C-338 154.66 -338 155.32 -338 156 C-380.41272018 161.35635937 -422.82609521 166.70750541 -465.24035564 172.05165535 C-470.24715591 172.68251119 -475.25395073 173.31341022 -480.26074219 173.94433594 C-481.25750904 174.06994176 -482.25427589 174.19554758 -483.28124779 174.32495964 C-499.42310915 176.35915252 -515.56452704 178.3968438 -531.7057839 180.43582714 C-548.26682272 182.52775876 -564.82833218 184.61593288 -581.39028502 186.70061588 C-591.61077924 187.98720841 -601.83089459 189.27673426 -612.05054551 190.57000852 C-619.05750502 191.45643863 -626.06491814 192.33922021 -633.07269925 193.21913123 C-637.11644572 193.72698165 -641.15997235 194.23644099 -645.2029686 194.7502327 C-648.90617293 195.2208069 -652.60992596 195.68678487 -656.31416363 196.1491524 C-658.28503761 196.39636177 -660.25529751 196.64845191 -662.22552919 196.90072918 C-678.65465024 198.93876462 -678.65465024 198.93876462 -682.46875 196.27734375 C-683.1390625 195.50519531 -683.809375 194.73304688 -684.5 193.9375 C-687.7654864 190.2638278 -691.17882255 187.03942353 -694.89453125 183.83618164 C-698.2642981 180.89740422 -701.5014065 177.82131691 -704.75 174.75 C-709.49437683 170.28266707 -714.25090028 165.83239825 -719.0625 161.4375 C-723.74043967 157.15795629 -728.41076381 152.87053108 -733.0625 148.5625 C-733.70646729 147.97073975 -734.35043457 147.37897949 -735.01391602 146.76928711 C-735.61905029 146.20733643 -736.22418457 145.64538574 -736.84765625 145.06640625 C-737.38398682 144.57084229 -737.92031738 144.07527832 -738.47290039 143.56469727 C-740.16991335 141.82590333 -741.55812277 139.95275062 -743 138 C-701.89607962 130.26952343 -660.79191706 122.54033515 -619.6875 114.8125 C-618.92388897 114.66893721 -618.16027793 114.52537443 -617.37352717 114.37746125 C-466.33073539 85.98072896 -466.33073539 85.98072896 -393.875 72.4375 C-393.13941722 72.30000462 -392.40383445 72.16250923 -391.64596128 72.02084732 C-386.44326255 71.04836188 -381.24055386 70.07592973 -376.0378418 69.10351562 C-374.55708089 68.82675306 -373.07632 68.54999042 -371.59555912 68.27322769 C-370.86349096 68.13640005 -370.13142279 67.99957241 -369.37717074 67.85859847 C-366.42205927 67.30626903 -363.46694954 66.75393026 -360.51183963 66.20159245 C-358.3151831 65.79102419 -356.11852254 65.38047748 -353.92186165 64.96993256 C-319.29453407 58.49807675 -284.6713576 52.00409673 -250.04823017 45.50981522 C-237.88765968 43.22889886 -225.72688976 40.94904861 -213.56596863 38.67000246 C-206.26413692 37.30157066 -198.96233487 35.93298062 -191.66053987 34.56435299 C-189.84883808 34.22477355 -188.0371352 33.8852 -186.2254312 33.54563236 C-164.01373932 29.38243539 -141.80332686 25.21254711 -119.59539223 21.02935123 C-106.34534792 18.53352254 -93.09461877 16.04135572 -79.84334373 13.55206966 C-71.43759358 11.97280814 -63.03259316 10.38966697 -54.62856001 8.80129337 C-49.00428752 7.7386272 -43.37917997 6.68046506 -37.75337321 5.62595177 C-34.54405436 5.0242336 -31.33530087 4.41974648 -28.12730217 3.81102371 C-24.67309159 3.15586433 -21.21751267 2.50847566 -17.76147461 1.86303711 C-16.76294464 1.67167836 -15.76441467 1.48031961 -14.73562622 1.28316212 C-9.73134132 0.35747307 -5.08946186 -0.20959694 0 0 Z " fill="#FF0000" transform="translate(937,575)"/>
<path d="M0 0 C1.6881538 1.09865303 3.37698885 2.19625978 5.06640625 3.29296875 C5.95730957 3.8761084 6.84821289 4.45924805 7.76611328 5.06005859 C12.61648805 8.20810173 17.529143 11.25597348 22.4375 14.3125 C23.45320068 14.94687988 24.46890137 15.58125977 25.51538086 16.23486328 C32.87629633 20.83155805 40.25307331 25.40225671 47.63500977 29.96508789 C54.22649378 34.04175117 60.80367342 38.14093135 67.375 42.25 C68.37805176 42.87720947 69.38110352 43.50441895 70.41455078 44.15063477 C75.44563131 47.29757685 80.47528549 50.44678535 85.50390625 53.59765625 C95.93447898 60.12964782 106.38685099 66.62329643 116.875 73.0625 C124.64916099 77.83705892 132.40935833 82.63132705 140.125 87.5 C140.85565674 87.96043701 141.58631348 88.42087402 142.33911133 88.89526367 C146.10908634 91.28263723 149.85782801 93.70214448 153.58984375 96.1484375 C154.349021 96.64520996 155.10819824 97.14198242 155.89038086 97.65380859 C156.71807983 98.25829834 156.71807983 98.25829834 157.5625 98.875 C157.5625 99.205 157.5625 99.535 157.5625 99.875 C100.27001753 100.24141628 42.97764856 100.52328496 -14.31577557 100.69204527 C-21.0834846 100.71200158 -27.85119111 100.73274659 -34.61889648 100.75390625 C-35.29234248 100.75599839 -35.96578847 100.75809054 -36.65964192 100.76024608 C-58.46398991 100.82835337 -80.2676718 100.94847712 -102.07161673 101.09575553 C-125.12603311 101.25119657 -148.18013074 101.34698609 -171.23509985 101.38041592 C-185.03825365 101.40234401 -198.83949456 101.47153397 -212.64205933 101.60166347 C-222.11382496 101.68640041 -231.58460529 101.71176629 -241.05672222 101.69102204 C-246.51823273 101.68079679 -251.97640737 101.69618847 -257.43732071 101.7822876 C-293.62607667 102.32479236 -293.62607667 102.32479236 -303.05177075 94.39333248 C-305.62146618 91.74577982 -307.80928611 88.99597546 -309.89362729 85.95524406 C-312.62714027 82.27205561 -316.091738 79.35613382 -319.5 76.3125 C-320.82716423 75.07476537 -322.15175194 73.83425676 -323.47265625 72.58984375 C-324.12637207 71.97737793 -324.78008789 71.36491211 -325.45361328 70.73388672 C-327.44723707 68.86587644 -329.44049002 66.9974714 -331.43359375 65.12890625 C-332.09520508 64.50870605 -332.75681641 63.88850586 -333.43847656 63.24951172 C-334.76241076 62.00804045 -336.08598346 60.76618356 -337.40917969 59.52392578 C-340.8952531 56.25218132 -344.38913384 52.98932221 -347.89453125 49.73828125 C-348.62349609 49.06023438 -349.35246094 48.3821875 -350.10351562 47.68359375 C-351.49951957 46.385399 -352.89783728 45.08968638 -354.29882812 43.796875 C-355.24338867 42.91708984 -355.24338867 42.91708984 -356.20703125 42.01953125 C-356.75979736 41.50753174 -357.31256348 40.99553223 -357.88208008 40.46801758 C-359.58980631 38.71901214 -360.98718925 36.83982061 -362.4375 34.875 C-326.11967679 30.24525144 -289.76621327 25.93923407 -253.40066707 21.70506133 C-245.43910119 20.77797748 -237.4778138 19.8485118 -229.51653695 18.9189497 C-215.32028137 17.26144301 -201.12383209 15.60560187 -186.92724609 13.95092773 C-173.19571183 12.35045272 -159.46425477 10.74931816 -145.73291016 9.1472168 C-144.8808284 9.04780069 -144.02874664 8.94838459 -143.15084422 8.84595587 C-134.67218722 7.85670051 -126.19354261 6.86733893 -117.71490294 5.87793508 C-114.4188036 5.49330106 -111.1227037 5.10867178 -107.82660353 4.72404488 C-106.20052048 4.53429422 -104.57443766 4.34454154 -102.94835508 4.1547868 C-92.64982428 2.95301812 -82.35122692 1.75182204 -72.05255413 0.55127084 C-66.87950656 -0.05177378 -61.70648384 -0.65503135 -56.53346831 -1.25835071 C-53.10946372 -1.65767122 -49.68544544 -2.05687348 -46.26139259 -2.45578003 C-42.54890157 -2.88833976 -38.83645732 -3.32129888 -35.12402344 -3.75434875 C-33.50969122 -3.94227878 -33.50969122 -3.94227878 -31.86274624 -4.13400537 C-30.86275128 -4.25073167 -29.86275633 -4.36745798 -28.8324585 -4.48772144 C-27.90561501 -4.5957678 -26.97877151 -4.70381416 -26.02384186 -4.81513464 C-23.65468445 -5.09897949 -21.28968069 -5.40577678 -18.9241333 -5.71798992 C-10.98083264 -6.64524643 -6.37210201 -4.27141651 0 0 Z " fill="#FF0000" transform="translate(635.4375,751.125)"/>
<path d="M0 0 C38.28 0 76.56 0 116 0 C116 6.6 116 13.2 116 20 C109.88298192 21.35933735 103.965095 22.52368963 97.796875 23.4375 C94.93527178 24.01301797 92.57393191 24.61263244 90 26 C87.40790543 36.36837827 88.38145251 47.31932979 88 58 C116.71 58 145.42 58 175 58 C177.38722274 31.47746508 177.38722274 31.47746508 170 25 C165.23445459 22.96946326 160.20707251 22.21955413 155.125 21.375 C152.44375 20.92125 149.7625 20.4675 147 20 C147 13.4 147 6.8 147 0 C185.28 0 223.56 0 263 0 C263 6.6 263 13.2 263 20 C261.54207031 20.25394531 260.08414062 20.50789062 258.58203125 20.76953125 C256.65875861 21.11665851 254.73558669 21.46434408 252.8125 21.8125 C251.85279297 21.97814453 250.89308594 22.14378906 249.90429688 22.31445312 C242.93485034 23.44931718 242.93485034 23.44931718 237 27 C235.03435304 31.64967348 234.70813929 35.95061121 234.7253418 40.9296875 C234.72023087 41.70121155 234.71511993 42.4727356 234.70985413 43.26763916 C234.69601846 45.80350625 234.69691005 48.33909979 234.69921875 50.875 C234.69532907 52.64567159 234.69099383 54.41634225 234.68623352 56.18701172 C234.67878469 59.89228343 234.67905329 63.59745982 234.68432617 67.30273438 C234.69012503 72.04396461 234.67317333 76.78480472 234.6499815 81.52597046 C234.63523122 85.18060577 234.63437412 88.83514733 234.63749123 92.48980713 C234.63697886 94.23765843 234.6317571 95.98551508 234.62167931 97.7333374 C234.60930425 100.1792521 234.61611212 102.62440938 234.62768555 105.0703125 C234.62004181 105.78737366 234.61239807 106.50443481 234.60452271 107.2432251 C234.65295572 111.88820516 235.56773679 115.04862912 238 119 C242.10185629 122.44555928 246.48194293 122.67739606 251.625 123.125 C259.71051069 123.90350356 259.71051069 123.90350356 263 125 C263 131.6 263 138.2 263 145 C224.72 145 186.44 145 147 145 C147 138.4 147 131.8 147 125 C148.77375 124.71125 150.5475 124.4225 152.375 124.125 C153.46683594 123.93808594 154.55867187 123.75117187 155.68359375 123.55859375 C157.73421425 123.21320066 159.78860189 122.88857888 161.84765625 122.59765625 C162.70230469 122.46230469 163.55695313 122.32695313 164.4375 122.1875 C165.58025391 122.02314453 165.58025391 122.02314453 166.74609375 121.85546875 C169.81770318 120.86592034 169.81770318 120.86592034 174 116 C174.33 106.76 174.66 97.52 175 88 C146.29 88 117.58 88 88 88 C85.74012741 113.87582496 85.74012741 113.87582496 94 121 C96.28612689 121.97081866 96.28612689 121.97081866 98.6875 122.25 C99.54730469 122.38792969 100.40710938 122.52585937 101.29296875 122.66796875 C104.84641008 123.10381653 108.39929782 123.47716075 111.96875 123.75390625 C114 124 114 124 116 125 C116 131.6 116 138.2 116 145 C77.72 145 39.44 145 0 145 C0 138.4 0 131.8 0 125 C1.77375 124.71125 3.5475 124.4225 5.375 124.125 C6.46683594 123.939375 7.55867187 123.75375 8.68359375 123.5625 C10.73583398 123.21441685 12.79024559 122.87859053 14.84765625 122.5625 C19.86546784 121.71484555 23.43063931 120.9147827 27 117 C28.40720848 113.20998315 28.15505598 109.19352613 28.16113281 105.20556641 C28.16609772 104.42458084 28.17106262 103.64359528 28.17617798 102.83894348 C28.19076215 100.25980747 28.19759495 97.68073294 28.203125 95.1015625 C28.20887904 93.30561319 28.21463674 91.50966389 28.22039795 89.7137146 C28.23089693 85.94943964 28.23674698 82.18518597 28.24023438 78.42089844 C28.24572022 73.60341038 28.26975481 68.78620478 28.29820633 63.96880531 C28.31685133 60.2592792 28.32203928 56.54982093 28.32357025 52.84025192 C28.32659253 51.0644819 28.33460671 49.28871296 28.34775543 47.51298904 C28.36485687 45.0261828 28.36292599 42.54006424 28.35644531 40.05322266 C28.3656601 39.32366867 28.37487488 38.59411469 28.3843689 37.842453 C28.34629999 33.16675796 27.45376944 29.97801279 25 26 C23.33349772 24.73295551 23.33349772 24.73295551 21.375 24.23046875 C20.67117187 24.01052246 19.96734375 23.79057617 19.2421875 23.56396484 C15.51842945 22.62734887 11.79101077 21.91421799 8 21.3125 C5.36 20.879375 2.72 20.44625 0 20 C0 13.4 0 6.8 0 0 Z " fill="#FF0000" transform="translate(6,877)"/>
<path d="M0 0 C13.71705334 -0.06777544 27.43399547 -0.12281612 41.15117836 -0.15543652 C47.52060797 -0.17109261 53.88991708 -0.1923302 60.25927734 -0.22631836 C66.40601155 -0.25891329 72.55262985 -0.27685344 78.69944382 -0.28463173 C81.04459838 -0.29017495 83.38974661 -0.30099944 85.73485184 -0.31719017 C89.01950035 -0.33896575 92.30366983 -0.34196681 95.58837891 -0.34057617 C97.04278885 -0.35675491 97.04278885 -0.35675491 98.52658081 -0.3732605 C105.08739673 -0.34320239 109.5423127 0.53823016 114.3515625 5.35546875 C115.10179687 6.29003906 115.85203125 7.22460938 116.625 8.1875 C117.0468457 8.70940918 117.46869141 9.23131836 117.90332031 9.76904297 C121.80583252 14.64362515 125.53995669 19.64962622 129.26293945 24.66186523 C133.04204311 29.74822478 136.90633261 34.76072912 140.8125 39.75 C145.78645284 46.10988823 150.67157263 52.52898263 155.5 59 C162.02294678 67.7398352 168.68657236 76.36140402 175.40283203 84.953125 C177.86302209 88.10601914 180.30916534 91.26960821 182.75 94.4375 C183.52859375 95.44683594 184.3071875 96.45617187 185.109375 97.49609375 C186.46322094 99.28910046 187.75374137 101.13061205 189 103 C189.11590588 93.43805415 189.20472098 83.87635051 189.25906086 74.31385517 C189.2851429 69.87345358 189.32051482 65.43353297 189.37719727 60.9934082 C189.43156779 56.70750904 189.46143102 52.42207217 189.47438622 48.13585472 C189.48361715 46.50154531 189.50164355 44.8672609 189.52865028 43.23314857 C189.56501015 40.94174377 189.56994283 38.65224308 189.56762695 36.3605957 C189.58428154 34.40534721 189.58428154 34.40534721 189.60127258 32.41059875 C188.84580398 28.12535387 187.35746595 26.67507178 184 24 C181.4466165 23.08148258 181.4466165 23.08148258 178.734375 22.890625 C177.27644531 22.71853516 177.27644531 22.71853516 175.7890625 22.54296875 C174.28472656 22.39794922 174.28472656 22.39794922 172.75 22.25 C170.74444854 22.02913547 168.73921688 21.80534041 166.734375 21.578125 C165.84975586 21.48950195 164.96513672 21.40087891 164.05371094 21.30957031 C162 21 162 21 161 20 C161 13.4 161 6.8 161 0 C192.02 0 223.04 0 255 0 C255 6.6 255 13.2 255 20 C253.54207031 20.18175781 252.08414063 20.36351562 250.58203125 20.55078125 C248.65877513 20.80408815 246.73560225 21.05802761 244.8125 21.3125 C243.37293945 21.48942383 243.37293945 21.48942383 241.90429688 21.66992188 C234.98158504 22.56505415 234.98158504 22.56505415 229 26 C226.85809845 29.21285233 226.74551453 30.06651008 226.7215271 33.76457214 C226.71036362 34.74473801 226.69920013 35.72490387 226.68769836 36.73477173 C226.68445808 38.34562149 226.68445808 38.34562149 226.68115234 39.98901367 C226.67110672 41.12086594 226.6610611 42.2527182 226.65071106 43.41886902 C226.61976393 47.16856365 226.60281174 50.91818652 226.5859375 54.66796875 C226.56723515 57.26443606 226.54766245 59.86089724 226.5272522 62.45735168 C226.48108577 68.59835436 226.44371297 74.73935317 226.41057932 80.88043815 C226.37236803 87.8719677 226.32295531 94.86340399 226.27259517 101.85485494 C226.169254 116.23649965 226.08000073 130.61820748 226 145 C216.21177164 145.06962235 206.42360255 145.12287333 196.63517666 145.15543652 C192.08962166 145.1710681 187.54423654 145.19226041 182.9987793 145.22631836 C178.60916037 145.25900146 174.21970447 145.27687187 169.82997322 145.28463173 C168.15828957 145.2901592 166.48661447 145.30095301 164.81500053 145.31719017 C162.46688686 145.33908385 160.11944015 145.34196201 157.77124023 145.34057617 C157.08575104 145.351362 156.40026184 145.36214783 155.69400024 145.3732605 C149.84242252 145.33608298 145.09849261 144.00887727 140.8046875 139.8984375 C140.16789063 139.06570313 139.53109375 138.23296875 138.875 137.375 C138.11445312 136.3953125 137.35390625 135.415625 136.5703125 134.40625 C135.71342344 133.27092256 134.85666044 132.13549996 134 131 C132.99863929 129.69696015 131.99596957 128.3949255 130.9921875 127.09375 C128.21532583 123.48590623 125.45675902 119.86447711 122.70263672 116.23925781 C119.91316959 112.57063256 117.11268698 108.91044549 114.3125 105.25 C113.76883789 104.5389209 113.22517578 103.8278418 112.66503906 103.09521484 C109.45024357 98.89147591 106.22841465 94.69328817 103 90.5 C97.55110368 83.4225967 92.12742242 76.32601395 86.70410156 69.22900391 C84.96780374 66.95788656 83.2301784 64.68779066 81.4921875 62.41796875 C80.91766846 61.66741211 80.34314941 60.91685547 79.7512207 60.14355469 C78.66410917 58.72341015 77.57672825 57.30347177 76.48901367 55.88378906 C73.91462376 52.51979799 71.35417848 49.14618165 68.81420898 45.75610352 C68.28415756 45.04881607 67.75410614 44.34152863 67.20799255 43.61280823 C66.80935501 43.08058151 66.41071747 42.5483548 66 42 C65.90733212 51.57925361 65.83625155 61.158353 65.79275131 70.737957 C65.77187362 75.18614277 65.74355298 79.63402194 65.69824219 84.08203125 C65.65479043 88.37439234 65.63086426 92.66645848 65.62049103 96.95902252 C65.6130984 98.59692275 65.59866225 100.23480677 65.57707977 101.87258148 C65.54805353 104.16638609 65.54404349 106.45897106 65.54589844 108.75292969 C65.53257477 110.71150909 65.53257477 110.71150909 65.51898193 112.70965576 C66.0816768 116.5587 66.94075548 117.68536948 70 120 C74.62877869 122.00359992 79.28462389 122.53958951 84.25 123.0625 C91.75171625 123.87585812 91.75171625 123.87585812 94 125 C94 131.6 94 138.2 94 145 C62.98 145 31.96 145 0 145 C0 138.4 0 131.8 0 125 C11.65178571 122.99107143 11.65178571 122.99107143 16.9375 122.5625 C20.59869106 122.18444223 23.05153825 121.32303047 26 119 C28.53340435 115.19989347 28.29553934 112.14069937 28.29052734 107.73657227 C28.29724457 106.89399872 28.30396179 106.05142517 28.31088257 105.18331909 C28.3299016 102.39428839 28.3337886 99.60549779 28.3359375 96.81640625 C28.34236227 94.87971395 28.34909039 92.94302263 28.35610962 91.0063324 C28.36809184 86.94519805 28.37178943 82.88414883 28.37060547 78.82299805 C28.37040213 73.61619509 28.39771595 68.40993702 28.43214989 63.20326328 C28.45437355 59.20299262 28.45844442 55.20285408 28.45738602 51.202528 C28.45974837 49.28275612 28.46860743 47.36298095 28.48405075 45.44326973 C28.50362102 42.75939748 28.49790853 40.07671316 28.48583984 37.39282227 C28.50269836 36.20119225 28.50269836 36.20119225 28.51989746 34.98548889 C28.47956873 31.46076764 28.30811991 29.41244517 26.1690979 26.54917908 C20.9314988 22.80846321 14.29313231 22.52700749 8.0625 21.875 C5.401875 21.58625 2.74125 21.2975 0 21 C0 14.07 0 7.14 0 0 Z " fill="#FF0000" transform="translate(516,877)"/>
<path d="M0 0 C20.68089846 -0.06968604 41.36176827 -0.12310567 62.04276085 -0.15543652 C71.64703768 -0.17085265 81.25123986 -0.1918407 90.85546875 -0.22631836 C99.23434683 -0.25638266 107.61317079 -0.27561309 115.99210131 -0.28226548 C120.42157424 -0.28614914 124.85089246 -0.29516428 129.2803154 -0.31719017 C133.46474328 -0.33782566 137.6489554 -0.3437803 141.83342934 -0.33932304 C143.35458494 -0.34013633 144.87574913 -0.34593867 146.39686012 -0.35761642 C172.81374414 -0.55016468 199.1346791 5.57672751 219.34765625 23.375 C233.1577638 37.04273531 238.5984677 53.90667224 239.00683594 72.87841797 C238.94794022 91.15712513 232.90830162 107.92969529 220.25 121.25 C199.36632697 141.09889644 171.08966412 145.36802527 143.40429688 145.22705078 C141.8157502 145.22648477 140.227203 145.22680692 138.63865662 145.22793579 C134.38142799 145.2285029 130.12431514 145.21685424 125.86711311 145.20278788 C121.3975396 145.19017188 116.9279626 145.18910154 112.45837402 145.18673706 C104.01925664 145.18055391 95.58019189 145.16418654 87.14109755 145.14403808 C77.52302091 145.12157979 67.90494159 145.11066083 58.28684521 145.10064721 C38.52453344 145.07981702 18.76227192 145.04429426 -1 145 C-1 138.4 -1 131.8 -1 125 C0.93875 124.71125 2.8775 124.4225 4.875 124.125 C6.05835938 123.93808594 7.24171875 123.75117187 8.4609375 123.55859375 C10.60910395 123.21953437 12.75973991 122.89510293 14.9140625 122.59765625 C20.42675059 121.72328729 23.47941438 120.6562584 27 116 C28.21437426 112.35687721 28.15546447 109.00492823 28.16113281 105.21142578 C28.16609772 104.41922638 28.17106262 103.62702698 28.17617798 102.81082153 C28.19078815 100.18897637 28.19759945 97.56719169 28.203125 94.9453125 C28.2088771 93.12311807 28.21463483 91.30092365 28.22039795 89.47872925 C28.23090447 85.65720335 28.23674952 81.83569847 28.24023438 78.01416016 C28.24572041 73.11919755 28.2697522 68.22451293 28.29820633 63.32963753 C28.31683605 59.56524851 28.32203847 55.80092643 28.32357025 52.03649521 C28.32659622 50.23198806 28.33462287 48.42748207 28.34775543 46.62302017 C28.3648241 44.09758634 28.3629339 41.57283151 28.35644531 39.04736328 C28.3656601 38.30329224 28.37487488 37.55922119 28.3843689 36.79260254 C28.34866029 32.35240208 27.71782037 29.54187992 25 26 C18.24569654 21.73003804 7.64711764 21.83539941 0 21 C0 14.07 0 7.14 0 0 Z M86 29 C86 58.04 86 87.08 86 117 C98.7771875 117.061875 98.7771875 117.061875 111.8125 117.125 C114.47932861 117.14320801 117.14615723 117.16141602 119.89379883 117.18017578 C122.03987426 117.18602448 124.18595194 117.19111914 126.33203125 117.1953125 C127.42012085 117.20554443 128.50821045 117.21577637 129.62927246 117.22631836 C141.0047378 117.22887666 151.86260615 116.30047651 160.75 108.625 C171.75888118 95.78130529 171.96259142 79.18022586 171 63 C169.89783808 53.07824651 167.09509301 43.29217893 160 36 C150.8405556 29.10536352 142.5963212 28.71224286 131.41015625 28.8046875 C129.68097961 28.80770874 129.68097961 28.80770874 127.91687012 28.81079102 C123.6320393 28.821214 119.34726544 28.84913645 115.0625 28.875 C105.471875 28.91625 95.88125 28.9575 86 29 Z " fill="#FF0000" transform="translate(780,877)"/>
<path d="M0 0 C1.27423828 1.03253906 1.27423828 1.03253906 2.57421875 2.0859375 C15.05458888 12.71943671 22.8425922 26.68667791 25 43 C26.58770752 63.39238096 23.29516266 81.63811828 10.5 98.125 C-7.49556766 118.70289128 -35.7182315 126.81804647 -62 130 C-63.13731567 130.14139404 -63.13731567 130.14139404 -64.29760742 130.28564453 C-73.56685891 131.28545381 -82.87523184 131.24363231 -92.1875 131.25 C-93.51834122 131.25101212 -93.51834122 131.25101212 -94.87606812 131.25204468 C-129.46183225 131.2103502 -167.3079572 126.55752948 -193 101 C-193.62519531 100.40960937 -194.25039063 99.81921875 -194.89453125 99.2109375 C-207.18737114 86.6128578 -211.50747913 68.77531954 -211.35424805 51.68554688 C-210.78415026 32.81390005 -203.86295109 16.60197929 -190.3984375 3.4609375 C-146.28726443 -34.40440575 -45.39782758 -37.36773899 0 0 Z M-132 16 C-141.26950836 27.37008302 -143.32952815 39.4167435 -143.4375 53.625 C-143.44773193 54.66156738 -143.45796387 55.69813477 -143.46850586 56.76611328 C-143.32293455 69.63135956 -140.28342214 82.48653287 -131.5 92.25 C-119.78987558 103.10328605 -104.17479726 104.54396032 -88.9296875 104.1875 C-73.85416966 103.468191 -62.38975733 100.39463887 -52 89 C-41.82963438 75.91769812 -40.91012498 58.12767158 -42.625 42.1875 C-44.46008788 30.72731543 -48.84107102 19.41371744 -58.35546875 12.21875 C-79.45070011 -1.1252103 -112.90539387 -0.56072474 -132 16 Z " fill="#FF0000" transform="translate(485,896)"/>
<path d="M0 0 C14.89050087 -0.06776307 29.78092259 -0.12300858 44.67154121 -0.15543652 C51.58577119 -0.17089467 58.49989846 -0.19196395 65.4140625 -0.22631836 C72.0859913 -0.25945333 78.75779131 -0.27685113 85.42980576 -0.28463173 C87.97591711 -0.29017691 90.52202259 -0.30100517 93.06808853 -0.31719017 C96.63292335 -0.33895112 100.19731653 -0.3419674 103.76220703 -0.34057617 C104.81597031 -0.351362 105.86973358 -0.36214783 106.95542908 -0.3732605 C112.39689451 -0.35026519 116.31464732 -0.0996102 121 3 C122.89526367 4.91455078 122.89526367 4.91455078 124.48046875 7.0703125 C125.06876465 7.86985352 125.65706055 8.66939453 126.26318359 9.49316406 C129.07116443 13.5460664 131.71312894 17.68598223 134.3125 21.875 C139.64391816 30.35821649 145.10910773 38.73980735 150.6875 47.0625 C156.61049408 55.90420662 162.49064816 64.77133387 168.31112671 73.6809082 C170.67330441 77.29526989 173.04086513 80.90610821 175.4080658 84.5171814 C177.44381289 87.62306411 179.47730507 90.73038312 181.50683594 93.84033203 C183.56225325 96.98863196 185.62624186 100.13116047 187.69604492 103.27001953 C188.47292548 104.45118686 189.24692621 105.63425411 190.01782227 106.81933594 C191.08489757 108.4588221 192.16331968 110.09090602 193.2421875 111.72265625 C194.15266846 113.11109741 194.15266846 113.11109741 195.08154297 114.52758789 C198.44681567 118.86458416 201.60779119 121.35163254 207.0625 122.125 C208.00867187 122.269375 208.95484375 122.41375 209.9296875 122.5625 C210.94289063 122.706875 211.95609375 122.85125 213 123 C215.22987132 123.37078692 217.45906241 123.74569147 219.6875 124.125 C221.440625 124.41375 223.19375 124.7025 225 125 C225 131.6 225 138.2 225 145 C183.75 145 142.5 145 100 145 C100 138.07 100 131.14 100 124 C101.55332031 123.89042969 103.10664062 123.78085937 104.70703125 123.66796875 C106.74224369 123.50852814 108.77739709 123.34833265 110.8125 123.1875 C111.83666016 123.11724609 112.86082031 123.04699219 113.91601562 122.97460938 C114.89892578 122.89404297 115.88183594 122.81347656 116.89453125 122.73046875 C117.80050049 122.66239014 118.70646973 122.59431152 119.63989258 122.52416992 C122.3742231 121.91688663 123.34855961 121.23567796 125 119 C125.5188183 115.34831734 125.29564695 113.52190737 123.46875 110.296875 C122.49421875 109.03617188 122.49421875 109.03617188 121.5 107.75 C118 103.16666667 118 103.16666667 118 101 C88.63 101 59.26 101 29 101 C28.34 102.65 27.68 104.3 27 106 C25.68348523 108.26797824 24.31559242 110.49505212 22.92578125 112.71875 C21.75157823 115.61214478 21.96340842 117.08002371 23 120 C25.91123662 121.94082441 27.12493979 122.36072936 30.44921875 122.8515625 C31.21322998 122.96838379 31.97724121 123.08520508 32.7644043 123.20556641 C33.72902588 123.34397949 34.69364746 123.48239258 35.6875 123.625 C38.760625 124.07875 41.83375 124.5325 45 125 C45 131.6 45 138.2 45 145 C14.31 145 -16.38 145 -48 145 C-48 138.07 -48 131.14 -48 124 C-38.375 123.1875 -38.375 123.1875 -35.37646484 122.95385742 C-29.26324186 122.38850478 -24.47719689 121.550777 -20.02734375 116.96875 C-17.03151113 112.58178894 -14.29379794 108.05517791 -11.5625 103.5 C-10.3040851 101.41624395 -9.0449554 99.33291945 -7.78515625 97.25 C-7.15109863 96.20070313 -6.51704102 95.15140625 -5.86376953 94.0703125 C-3.10635834 89.52784418 -0.30536236 85.01295544 2.5 80.5 C7.71715209 72.09472144 12.90136374 63.66978971 18.015625 55.20141602 C20.60938331 50.90660911 23.21787906 46.63220143 25.953125 42.42578125 C26.38850586 41.74306152 26.82388672 41.0603418 27.27246094 40.35693359 C28.0611094 39.12376848 28.86531159 37.90033887 29.68847656 36.68994141 C31.60546561 33.65455732 32.05612618 32.30980175 31.40625 28.72265625 C30.14918622 25.74938763 30.14918622 25.74938763 27 24 C24.09807033 23.44721768 24.09807033 23.44721768 20.80078125 23.1484375 C19.59228516 23.01953125 18.38378906 22.890625 17.13867188 22.7578125 C15.2447168 22.56832031 15.2447168 22.56832031 13.3125 22.375 C12.03826172 22.2409375 10.76402344 22.106875 9.45117188 21.96875 C6.30154656 21.63845221 3.15086354 21.31826904 0 21 C0 14.07 0 7.14 0 0 Z M71 33 C69.78862147 34.56210672 69.78862147 34.56210672 68.63671875 36.63671875 C68.16782227 37.43231201 67.69892578 38.22790527 67.21582031 39.04760742 C66.45930176 40.35435425 66.45930176 40.35435425 65.6875 41.6875 C64.61480498 43.51131372 63.54052985 45.33419882 62.46484375 47.15625 C61.90265137 48.11015625 61.34045898 49.0640625 60.76123047 50.046875 C57.26756708 55.90483901 53.63548214 61.67799574 50.0144043 67.45776367 C49.48886963 68.30056885 48.96333496 69.14337402 48.421875 70.01171875 C47.95362305 70.75897217 47.48537109 71.50622559 47.00292969 72.27612305 C45.91618773 73.81166048 45.91618773 73.81166048 46 75 C63.82 75 81.64 75 100 75 C96.86824716 69.36284489 93.79452026 63.97678487 90.20703125 58.6640625 C89.77492844 58.0180307 89.34282562 57.3719989 88.89762878 56.70639038 C87.53920706 54.67703326 86.17597269 52.65096599 84.8125 50.625 C83.88834723 49.24631131 82.96451664 47.8674066 82.04101562 46.48828125 C80.35720577 43.97473727 78.67164608 41.46238972 76.98364258 38.95166016 C75.65205576 36.97025897 74.324221 34.9863315 73 33 C72.34 33 71.68 33 71 33 Z " fill="#FF0000" transform="translate(1054,877)"/>
</svg>
