<?xml version="1.0" encoding="UTF-8"?>
<svg version="1.1" xmlns="http://www.w3.org/2000/svg" width="666" height="375">
<path d="M0 0 C0 10.56 0 21.12 0 32 C-7.0625 34.8125 -7.0625 34.8125 -9.24243164 35.67895508 C-39.71719287 47.84312846 -60.36603576 66.73207153 -75 96 C-50.25 96 -25.5 96 0 96 C0 124.71 0 153.42 0 183 C-24.75 183.33 -49.5 183.66 -75 184 C-69.11472664 194.97409741 -69.11472664 194.97409741 -62.28515625 205.07421875 C-61 207 -61 207 -61 209 C-60.34 209 -59.68 209 -59 209 C-58 210.66666667 -57 212.33333333 -56 214 C-51.08410349 219.18618635 -45.56982702 223.54572072 -40 228 C-39.34 228.55042969 -38.68 229.10085937 -38 229.66796875 C-28.11989518 237.6103806 -16.19862927 241.86720632 -4.32421875 245.8359375 C-1 247 -1 247 0 248 C0.08790975 250.29151417 0.10694038 252.58572524 0.09765625 254.87890625 C0.0962413 255.5655687 0.09482635 256.25223114 0.09336853 256.95970154 C0.08775479 259.16067801 0.07520007 261.36155409 0.0625 263.5625 C0.05748676 265.05143083 0.05292355 266.54036324 0.04882812 268.02929688 C0.03778093 271.68623075 0.02050713 275.34310558 0 279 C-5.87250486 278.49042005 -11.4088471 277.61085129 -17.0625 275.9375 C-17.78566406 275.72416016 -18.50882812 275.51082031 -19.25390625 275.29101562 C-27.31033944 272.78037368 -34.60047408 269.00396569 -42 265 C-43.27617187 264.35224609 -43.27617187 264.35224609 -44.578125 263.69140625 C-63.62241892 253.79248369 -81.79175526 236.24086889 -93 218 C-93.49113281 217.22011719 -93.98226562 216.44023437 -94.48828125 215.63671875 C-103.27374495 201.40290547 -109.84647501 186.41690775 -113.375 170.0625 C-113.54273926 169.29413818 -113.71047852 168.52577637 -113.88330078 167.73413086 C-114.98771456 162.21623182 -115 157.92769303 -115 152 C-87.61 152 -60.22 152 -32 152 C-32 143.75 -32 135.5 -32 127 C-59.39 127 -86.78 127 -115 127 C-115 119.741076 -114.54271187 114.41596645 -112.9375 107.5625 C-112.71489502 106.60601562 -112.49229004 105.64953125 -112.26293945 104.6640625 C-107.55163008 85.3112308 -99.1147488 68.79548737 -87 53 C-86.39027344 52.1853125 -85.78054687 51.370625 -85.15234375 50.53125 C-81.71887304 46.00359632 -78.21416058 41.82214564 -74 38 C-73.34 38 -72.68 38 -72 38 C-71.773125 37.42894531 -71.54625 36.85789063 -71.3125 36.26953125 C-61.49903868 19.30042104 -32.41380544 7.70082082 -14.25 2.73266602 C-3.8011612 0 -3.8011612 0 0 0 Z " fill="#080808" transform="translate(307,8)"/>
<path d="M0 0 C26.85350277 5.37070055 49.4866368 16.34636686 69.640625 34.88671875 C71.97671664 37.03147967 71.97671664 37.03147967 74.51953125 38.94140625 C79.02055599 42.67690238 82.39273589 47.42352436 86 52 C86.53882813 52.66128906 87.07765625 53.32257812 87.6328125 54.00390625 C92.52109086 60.18771194 96.23052766 67.10366806 100 74 C100.46535156 74.845625 100.93070312 75.69125 101.41015625 76.5625 C109.55196603 92.06073598 115 109.42484445 115 127 C87.61 127 60.22 127 32 127 C32 135.25 32 143.5 32 152 C59.39 152 86.78 152 115 152 C115 174.61380463 106.76244964 195.97250794 95 215 C93.65057597 217.32452956 92.32471762 219.66122863 91 222 C90.34 222 89.68 222 89 222 C88.78472656 222.69609375 88.56945312 223.3921875 88.34765625 224.109375 C86.64514122 227.76114636 84.19349694 230.37630924 81.4375 233.25 C80.89810791 233.82065186 80.35871582 234.39130371 79.80297852 234.97924805 C78.71348714 236.12753481 77.62035201 237.27237638 76.5234375 238.41357422 C75.20340313 239.78818693 73.8972713 241.1761246 72.59375 242.56640625 C67.23093612 248.15267071 61.40405372 252.6623447 55 257 C54.12472656 257.59683594 53.24945313 258.19367188 52.34765625 258.80859375 C37.48035802 268.61096806 18.18328312 279 0 279 C0 268.44 0 257.88 0 247 C9.5 243.8125 9.5 243.8125 12.44335938 242.84301758 C17.47778019 241.11589172 21.85926146 239.11162979 26.28344727 236.14282227 C27.94062688 235.0395286 29.68973774 234.07832487 31.4375 233.125 C51.48728203 221.70023681 64.88502884 203.22994232 75 183 C50.25 183 25.5 183 0 183 C0 154.29 0 125.58 0 96 C24.42 95.67 48.84 95.34 74 95 C69.52214371 85.68132783 69.52214371 85.68132783 64.125 77.375 C61 73.19480519 61 73.19480519 61 71 C60.34 71 59.68 71 59 71 C56 67.53846154 56 67.53846154 56 65 C55.443125 64.773125 54.88625 64.54625 54.3125 64.3125 C51.34162851 62.62632969 49.39177042 60.44612884 47 58 C35.88650234 47.75401165 24.10880334 41.42646282 10 36 C5.05 34.02 5.05 34.02 0 32 C0 21.44 0 10.88 0 0 Z " fill="#080808" transform="translate(359,8)"/>
<path d="M0 0 C5.94 0 11.88 0 18 0 C18.33 3.96 18.66 7.92 19 12 C19.61101562 11.13375 20.22203125 10.2675 20.8515625 9.375 C24.44045213 4.83698253 27.84545234 0.65733861 33.72753906 -0.56835938 C40.16763192 -1.06424017 46.58432241 -0.66794294 53 0 C51.57888017 3.2720594 49.86464013 5.31965496 47.26953125 7.75 C46.18961914 8.78640625 46.18961914 8.78640625 45.08789062 9.84375 C43.56477811 11.28711156 42.03606515 12.72458502 40.50195312 14.15625 C39.78587891 14.8471875 39.06980469 15.538125 38.33203125 16.25 C37.66921143 16.87390625 37.0063916 17.4978125 36.32348633 18.140625 C34.76213274 19.90525982 34.76213274 19.90525982 35.1965332 22.08203125 C36.27483328 24.65605901 37.74141849 26.73917833 39.375 29 C39.98085937 29.845625 40.58671875 30.69125 41.2109375 31.5625 C42.34697389 33.11028757 43.51585339 34.63489648 44.7265625 36.125 C46 38 46 38 46 41 C46.66 41 47.32 41 48 41 C49.625 43 49.625 43 51 45 C50.99097656 44.33613281 50.98195312 43.67226563 50.97265625 42.98828125 C51.21193464 35.86194648 51.21193464 35.86194648 53.625 33.22265625 C55.5625 31.875 55.5625 31.875 59 30 C56.69 29.34 54.38 28.68 52 28 C51.56608534 23.66085336 51.68470122 21.51236051 54 17.75 C59.38649823 12.20027455 65.61204984 11.68963004 73 11.5625 C79.28869142 11.56974754 83.73684238 12.49122825 89 16 C89.33 15.34 89.66 14.68 90 14 C95.61 14 101.22 14 107 14 C108.32 17.63 109.64 21.26 111 25 C112.66832577 22.49751135 113.62381674 20.58850813 114.625 17.8125 C115.07875 16.554375 115.5325 15.29625 116 14 C120.95 14 125.9 14 131 14 C132.98 20.435 132.98 20.435 135 27 C135.45375 25.5975 135.9075 24.195 136.375 22.75 C137.39012279 19.61234773 138.50748294 16.98503412 140 14 C145.61 14 151.22 14 157 14 C157.33 14.66 157.66 15.32 158 16 C158.4640625 15.71125 158.928125 15.4225 159.40625 15.125 C167.30870922 10.87890251 177.0671898 10.3967695 185.703125 12.73046875 C189.83260309 14.60402825 192.33911448 16.79893662 194 21 C195.21634229 26.63940516 195.10393172 32.26065921 195 38 C197.64 37.67 200.28 37.34 203 37 C202.030625 36.360625 201.06125 35.72125 200.0625 35.0625 C197 33 197 33 196 32 C195.5105344 26.76833491 195.19984246 21.78216907 197.375 16.9375 C203.58098124 12.3568948 211.43303188 11.06215845 219 12 C223.88048477 12.92995943 227.78789337 13.93571125 231.5625 17.25 C233.27271393 20.52171361 233.7128191 23.33844351 234 27 C231.69 27.33 229.38 27.66 227 28 C227.763125 28.391875 228.52625 28.78375 229.3125 29.1875 C232.24716071 31.16668978 233.40126898 32.8866817 235 36 C237.64 34.02 240.28 32.04 243 30 C240.69 29.34 238.38 28.68 236 28 C235.56608534 23.66085336 235.68470122 21.51236051 238 17.75 C243.38369818 12.20315945 249.6138749 11.68362568 257 11.5625 C262.23869678 11.60643668 266.81308095 12.01817669 271.51953125 14.44140625 C276.88377232 20.08872073 276.49636924 27.44561038 276.625 34.75 C276.67598852 36.80738667 276.73051389 38.8646896 276.7890625 40.921875 C276.81540771 42.27684082 276.81540771 42.27684082 276.84228516 43.65917969 C276.91177811 46.15489876 276.91177811 46.15489876 278 49 C278.33 32.83 278.66 16.66 279 0 C284.28 0 289.56 0 295 0 C295.33 6.27 295.66 12.54 296 19 C297.65 17.35 299.3 15.7 301 14 C303.31176758 13.43237305 303.31176758 13.43237305 305.64453125 13.51171875 C306.48564453 13.52783203 307.32675781 13.54394531 308.19335938 13.56054688 C309.48983398 13.62338867 309.48983398 13.62338867 310.8125 13.6875 C312.13797852 13.72133789 312.13797852 13.72133789 313.49023438 13.75585938 C315.6608891 13.81452572 317.8306669 13.90420021 320 14 C320 18.12677336 317.8002029 19.83173933 315.125 22.6875 C314.66480469 23.19861328 314.20460938 23.70972656 313.73046875 24.23632812 C312.53364992 25.53548363 311.27071716 26.77302884 310 28 C309.34 28 308.68 28 308 28 C308.42410156 28.66644531 308.84820312 29.33289063 309.28515625 30.01953125 C313.5234375 36.6796875 317.76171875 43.33984375 322 50 C322.33 38.12 322.66 26.24 323 14 C328.61 14 334.22 14 340 14 C340.02290734 19.5359399 340.04283491 25.07171655 340.05493164 30.60766602 C340.05997244 32.4924373 340.06680498 34.37720465 340.07543945 36.26196289 C340.08751617 38.96501636 340.09323068 41.66801831 340.09765625 44.37109375 C340.10281754 45.21900986 340.10797882 46.06692596 340.11329651 46.9405365 C340.11349195 48.96071068 340.06206211 50.98077934 340 53 C337.22032535 55.77967465 328.24168665 54.5931898 324.35546875 54.6796875 C322.71180377 54.72627958 321.06859748 54.79438913 319.42675781 54.88476562 C314.09732935 55.17307544 309.21326561 55.25054652 304 54 C300.54469172 50.73226929 298.90381726 47.29522844 297 43 C296.34 42.67 295.68 42.34 295 42 C295.01160156 42.78246094 295.02320313 43.56492187 295.03515625 44.37109375 C295.04869141 45.88896484 295.04869141 45.88896484 295.0625 47.4375 C295.07410156 48.44683594 295.08570313 49.45617187 295.09765625 50.49609375 C295 53 295 53 294 54 C289.61835974 54.21860439 285.23126872 54.18579078 280.84472656 54.18530273 C278.64107816 54.18748408 276.43793438 54.20562168 274.234375 54.22460938 C272.83593922 54.22754428 271.43750105 54.22952843 270.0390625 54.23046875 C268.12407959 54.23663208 268.12407959 54.23663208 266.17041016 54.24291992 C263 54 263 54 260 52 C258.31092805 52.72861927 256.6240991 53.46403334 254.9609375 54.25 C250.44735946 55.97630873 246.2596418 55.46025373 241.75 53.8125 C238.80004674 51.86821263 237.02221007 49.87776048 235 47 C234.20335937 47.74056641 234.20335937 47.74056641 233.390625 48.49609375 C232.68421875 49.13675781 231.9778125 49.77742188 231.25 50.4375 C230.55390625 51.07558594 229.8578125 51.71367187 229.140625 52.37109375 C223.288287 56.82442395 214.01162202 55.51423194 207 55 C202.47320941 53.68807504 199.23903136 51.39466049 196 48 C196.185625 48.804375 196.37125 49.60875 196.5625 50.4375 C196.7790625 51.7059375 196.7790625 51.7059375 197 53 C196 54 196 54 192.62109375 54.09765625 C191.22652923 54.09098369 189.83198257 54.07902532 188.4375 54.0625 C187.72658203 54.05798828 187.01566406 54.05347656 186.28320312 54.04882812 C184.52209987 54.03700864 182.76103964 54.01907263 181 54 C180.67 53.01 180.34 52.02 180 51 C178.88625 51.7115625 178.88625 51.7115625 177.75 52.4375 C173.11419272 55.07148141 169.34313626 55.36224653 164 55 C159.78843153 53.7151147 157.52771032 52.58183446 154.5625 49.3125 C152.71962152 45.40559762 151.90337732 42.19296907 153 38 C155.09272307 34.6822683 157.45918616 31.77040692 161 30 C158.36 29.34 155.72 28.68 153 28 C152.63648438 29.32451172 152.63648438 29.32451172 152.265625 30.67578125 C146.43070045 51.56929955 146.43070045 51.56929955 144 54 C141.71406683 54.20462317 139.41926263 54.31400733 137.125 54.375 C135.86945313 54.42398438 134.61390625 54.47296875 133.3203125 54.5234375 C130 54 130 54 128.16015625 51.74609375 C127.77730469 50.83988281 127.39445312 49.93367188 127 49 C126.68675781 48.26136719 126.37351562 47.52273438 126.05078125 46.76171875 C125.3671875 44.84114583 124.68359375 42.92057292 124 41 C123.566875 42.216875 123.13375 43.43375 122.6875 44.6875 C122.16988073 46.14176366 121.60267577 47.57887565 121 49 C120.443125 50.36125 120.443125 50.36125 119.875 51.75 C118 54 118 54 114.42578125 54.48828125 C113.05383624 54.45514248 111.6823247 54.39563595 110.3125 54.3125 C109.61060547 54.28994141 108.90871094 54.26738281 108.18554688 54.24414062 C106.4561167 54.18531647 104.72778562 54.09563389 103 54 C99.12774801 45.15149227 95.94884341 36.18533351 93 27 C92.9456749 30.02107902 92.90617073 33.04116528 92.875 36.0625 C92.84986328 37.33383789 92.84986328 37.33383789 92.82421875 38.63085938 C92.78403865 43.83418201 93.30254185 48.07469821 95 53 C94 54 94 54 90.62109375 54.09765625 C89.22652923 54.09098369 87.83198257 54.07902532 86.4375 54.0625 C85.72658203 54.05798828 85.01566406 54.05347656 84.28320312 54.04882812 C82.52209987 54.03700864 80.76103964 54.01907263 79 54 C78.67 53.01 78.34 52.02 78 51 C77.2575 51.474375 76.515 51.94875 75.75 52.4375 C71.0121375 55.12946733 66.43112487 55.62426723 61 55 C57.5 53.5 57.5 53.5 55 52 C54.505 52.99 54.505 52.99 54 54 C35.3286205 55.63101689 35.3286205 55.63101689 30.22265625 52.0546875 C28.45968202 49.44020871 27.21436472 46.90624235 26 44 C25.04685185 42.44211295 24.06989181 40.89837298 23.0625 39.375 C22.381875 38.26125 21.70125 37.1475 21 36 C20.01 36.495 20.01 36.495 19 37 C18.7137306 39.69152264 18.53256862 42.30097868 18.4375 45 C18.11929275 52.88070725 18.11929275 52.88070725 17 54 C14.3226862 54.09981214 11.67695825 54.13879875 9 54.125 C7.87464844 54.13080078 7.87464844 54.13080078 6.7265625 54.13671875 C1.12661053 54.12661053 1.12661053 54.12661053 0 53 C-0.09346915 51.34261557 -0.11744977 49.68125356 -0.11352539 48.02124023 C-0.11344986 46.96021591 -0.11337433 45.89919159 -0.11329651 44.80601501 C-0.10813522 43.651866 -0.10297394 42.49771698 -0.09765625 41.30859375 C-0.0962413 40.13361832 -0.09482635 38.95864288 -0.09336853 37.74806213 C-0.08774992 33.97784936 -0.07519426 30.20769496 -0.0625 26.4375 C-0.0574874 23.88867273 -0.05292408 21.33984453 -0.04882812 18.79101562 C-0.03777444 12.5273211 -0.02049734 6.26367046 0 0 Z M90 17 C91 19 91 19 91 19 Z M156 17 C157 19 157 19 157 19 Z M70 23 C68.21030974 25.42672567 68.21030974 25.42672567 67 28 C70.465 27.505 70.465 27.505 74 27 C74 25.68 74 24.36 74 23 C72.68 23 71.36 23 70 23 Z M172 23 C171.34 23.66 170.68 24.32 170 25 C170 25.99 170 26.98 170 28 C171.65 28 173.3 28 175 28 C175.66 26.68 176.32 25.36 177 24 C174.60280568 23.32041397 174.60280568 23.32041397 172 23 Z M212 23 C211.67 23.66 211.34 24.32 211 25 C214.86763446 26.87543354 214.86763446 26.87543354 219 26 C218.34 25.01 217.68 24.02 217 23 C214.41619823 22.74969023 214.41619823 22.74969023 212 23 Z M254 23 C252.21030974 25.42672567 252.21030974 25.42672567 251 28 C254.465 27.505 254.465 27.505 258 27 C258 25.68 258 24.36 258 23 C256.68 23 255.36 23 254 23 Z M75 36 C71.04 37.98 71.04 37.98 67 40 C67.99 41.485 67.99 41.485 69 43 C71.43717258 42.72965366 71.43717258 42.72965366 74 42 C74.66 41.01 75.32 40.02 76 39 C75.67 38.01 75.34 37.02 75 36 Z M177 36 C173.535 37.485 173.535 37.485 170 39 C170.33 40.32 170.66 41.64 171 43 C173.43717258 42.72965366 173.43717258 42.72965366 176 42 C176.66 41.01 177.32 40.02 178 39 C177.67 38.01 177.34 37.02 177 36 Z M259 36 C255.04 37.98 255.04 37.98 251 40 C251.99 41.485 251.99 41.485 253 43 C256.93075644 42.42547254 256.93075644 42.42547254 260 40 C259.67 38.68 259.34 37.36 259 36 Z M210 39 C210.63979849 41.03241727 210.63979849 41.03241727 212 43 C214.87939419 43.93580311 216.25509788 44.37245106 219 43 C219 42.34 219 41.68 219 41 C215.86501708 39.14223235 213.62528568 38.79859524 210 39 Z " fill="#111111" transform="translate(163,314)"/>
<path d="M0 0 C1.25159912 0.00523682 2.50319824 0.01047363 3.79272461 0.01586914 C4.78942421 0.01799156 4.78942421 0.01799156 5.80625916 0.02015686 C7.93590735 0.02577021 10.06545175 0.03832485 12.19506836 0.05102539 C13.63582205 0.05603868 15.07657739 0.06060188 16.51733398 0.06469727 C20.05577938 0.07574394 23.59416375 0.09301747 27.13256836 0.11352539 C27.15543351 36.14902962 27.17306596 72.18453257 27.18363369 108.22004255 C27.18488447 112.46977447 27.18617878 116.71950638 27.1875 120.96923828 C27.18776231 121.81531995 27.18802462 122.66140162 27.18829488 123.53312213 C27.19265183 137.25118466 27.20053951 150.96924301 27.20972116 164.68730306 C27.21905701 178.75257197 27.22462382 192.8178387 27.22665685 206.88311058 C27.22803222 215.56928509 27.23238357 224.25544781 27.24048483 232.94161869 C27.24575144 238.88977209 27.24737285 244.83791936 27.24606974 250.78607493 C27.24542622 254.22308416 27.24644535 257.66007272 27.25177383 261.09707832 C27.25670344 264.8145679 27.25556937 268.53200585 27.25282288 272.24949646 C27.25573572 273.34772199 27.25864856 274.44594751 27.26164967 275.5774526 C27.25965862 276.5652446 27.25766757 277.55303659 27.25561619 278.57076168 C27.25599591 279.43006879 27.25637563 280.2893759 27.25676686 281.17472261 C27.13256836 283.11352539 27.13256836 283.11352539 26.13256836 284.11352539 C23.99903662 284.21355828 21.86219294 284.24433587 19.72631836 284.24633789 C18.4256543 284.24762695 17.12499023 284.24891602 15.78491211 284.25024414 C15.10412598 284.24814941 14.42333984 284.24605469 13.72192383 284.24389648 C11.64128321 284.23854779 9.56085847 284.24384219 7.48022461 284.25024414 C5.52922852 284.24831055 5.52922852 284.24831055 3.53881836 284.24633789 C2.33547852 284.24520996 1.13213867 284.24408203 -0.10766602 284.24291992 C-2.86743164 284.11352539 -2.86743164 284.11352539 -3.86743164 283.11352539 C-3.96514984 281.60799238 -3.99298654 280.09787326 -3.99327278 278.58917236 C-3.99588053 277.60548046 -3.99848828 276.62178856 -4.00117505 275.60828781 C-3.99894432 274.51463535 -3.9967136 273.42098289 -3.99441528 272.29418945 C-3.99597527 271.14247883 -3.99753526 269.9907682 -3.99914253 268.80415726 C-4.00245569 265.59309065 -4.00124342 262.38206143 -3.99815631 259.17099571 C-3.995904 255.71356373 -3.99938097 252.25613701 -4.00213623 248.79870605 C-4.00659475 242.01995878 -4.0056171 235.24122254 -4.00272359 228.46247482 C-4.00046987 222.95573587 -4.0001569 217.44900002 -4.00124741 211.94226074 C-4.00140064 211.16003309 -4.00155387 210.37780543 -4.00171175 209.5718739 C-4.00203146 207.98304717 -4.00235567 206.39422043 -4.00268434 204.8053937 C-4.00553937 189.88909722 -4.00225175 174.97280687 -3.99688397 160.0565114 C-3.99241591 147.24348174 -3.99319184 134.43046114 -3.99780273 121.61743164 C-4.00314809 106.75636521 -4.00526468 91.89530416 -4.00219047 77.03423691 C-4.0018719 75.45108795 -4.00155753 73.867939 -4.00124741 72.28479004 C-4.00109313 71.50574664 -4.00093885 70.72670325 -4.0007799 69.92405248 C-3.99991463 64.42068049 -4.00137784 58.91731189 -4.00372696 53.41394043 C-4.00652473 46.71183341 -4.00578719 40.00973811 -4.00044622 33.30763245 C-3.99780889 29.88479466 -3.99680466 26.46197645 -4.00009537 23.03913879 C-4.00280358 19.3370264 -3.99942979 15.63497009 -3.99441528 11.93286133 C-3.996646 10.83920887 -3.99887673 9.74555641 -4.00117505 8.61876297 C-3.9985673 7.63507107 -3.99595955 6.65137917 -3.99327278 5.63787842 C-3.99311043 4.78215115 -3.99294808 3.92642387 -3.9927808 3.04476547 C-3.78776876 -0.11383144 -3.20814095 0.12701452 0 0 Z " fill="#040404" transform="translate(320.867431640625,5.886474609375)"/>
<path d="M0 0 C5.28 0 10.56 0 16 0 C16.33 6.27 16.66 12.54 17 19 C18.65 17.35 20.3 15.7 22 14 C24.31176758 13.43237305 24.31176758 13.43237305 26.64453125 13.51171875 C27.48564453 13.52783203 28.32675781 13.54394531 29.19335938 13.56054688 C30.48983398 13.62338867 30.48983398 13.62338867 31.8125 13.6875 C32.69615234 13.71005859 33.57980469 13.73261719 34.49023438 13.75585938 C36.6608891 13.81452572 38.8306669 13.90420021 41 14 C41 18.12677336 38.8002029 19.83173933 36.125 22.6875 C35.66480469 23.19861328 35.20460938 23.70972656 34.73046875 24.23632812 C33.53364992 25.53548363 32.27071716 26.77302884 31 28 C30.34 28 29.68 28 29 28 C29.42410156 28.66644531 29.84820312 29.33289063 30.28515625 30.01953125 C34.5234375 36.6796875 38.76171875 43.33984375 43 50 C43.33 38.12 43.66 26.24 44 14 C49.61 14 55.22 14 61 14 C61.02290734 19.5359399 61.04283491 25.07171655 61.05493164 30.60766602 C61.05997244 32.4924373 61.06680498 34.37720465 61.07543945 36.26196289 C61.08751617 38.96501636 61.09323068 41.66801831 61.09765625 44.37109375 C61.10281754 45.21900986 61.10797882 46.06692596 61.11329651 46.9405365 C61.11349195 48.96071068 61.06206211 50.98077934 61 53 C58.22032535 55.77967465 49.24168665 54.5931898 45.35546875 54.6796875 C43.71180377 54.72627958 42.06859748 54.79438913 40.42675781 54.88476562 C35.09732935 55.17307544 30.21326561 55.25054652 25 54 C21.54469172 50.73226929 19.90381726 47.29522844 18 43 C17.34 42.67 16.68 42.34 16 42 C16.01160156 42.78246094 16.02320313 43.56492187 16.03515625 44.37109375 C16.04417969 45.38300781 16.05320312 46.39492188 16.0625 47.4375 C16.07410156 48.44683594 16.08570313 49.45617187 16.09765625 50.49609375 C16 53 16 53 15 54 C12.46950598 54.07313567 9.96695163 54.09247527 7.4375 54.0625 C6.37112305 54.05573242 6.37112305 54.05573242 5.28320312 54.04882812 C3.52209987 54.03700864 1.76103964 54.01907263 0 54 C-1.26218322 51.47563356 -1.08309335 49.82229412 -1.02172852 46.99951172 C-0.99158409 45.43811966 -0.99158409 45.43811966 -0.96083069 43.84518433 C-0.93379562 42.71807037 -0.90676056 41.59095642 -0.87890625 40.4296875 C-0.85529526 39.27832306 -0.83168427 38.12695862 -0.80735779 36.94070435 C-0.7305941 33.25201473 -0.64662433 29.56352839 -0.5625 25.875 C-0.50929205 23.3789163 -0.45655158 20.88282259 -0.40429688 18.38671875 C-0.27496173 12.25768302 -0.13916227 6.12882016 0 0 Z " fill="#101010" transform="translate(442,314)"/>
<path d="M0 0 C3.36901288 3.11883865 5.36265875 5.47894313 5.86328125 10.08398438 C5.90017753 13.19762081 5.82765358 16.28710981 5.703125 19.3984375 C5.35346129 29.1065056 5.35346129 29.1065056 7.578125 38.4609375 C6.578125 39.4609375 6.578125 39.4609375 3.19921875 39.55859375 C1.80465423 39.55192119 0.41010757 39.53996282 -0.984375 39.5234375 C-1.69529297 39.51892578 -2.40621094 39.51441406 -3.13867188 39.50976562 C-4.89977513 39.49794614 -6.66083536 39.48001013 -8.421875 39.4609375 C-8.751875 38.4709375 -9.081875 37.4809375 -9.421875 36.4609375 C-10.164375 36.9353125 -10.906875 37.4096875 -11.671875 37.8984375 C-16.4097375 40.59040483 -20.99075013 41.08520473 -26.421875 40.4609375 C-29.921875 38.9609375 -29.921875 38.9609375 -32.421875 37.4609375 C-32.751875 38.1209375 -33.081875 38.7809375 -33.421875 39.4609375 C-40.351875 39.4609375 -47.281875 39.4609375 -54.421875 39.4609375 C-54.421875 39.1309375 -54.421875 38.8009375 -54.421875 38.4609375 C-47.821875 38.4609375 -41.221875 38.4609375 -34.421875 38.4609375 C-34.916875 35.9859375 -34.916875 35.9859375 -35.421875 33.4609375 C-36.081875 33.4609375 -36.741875 33.4609375 -37.421875 33.4609375 C-37.091875 32.4709375 -36.761875 31.4809375 -36.421875 30.4609375 C-36.3723055 28.83615937 -36.33145301 27.21110379 -36.296875 25.5859375 C-36.04118871 22.51770198 -35.90283964 20.98478333 -33.80078125 18.6953125 C-31.859375 17.3359375 -31.859375 17.3359375 -28.421875 15.4609375 C-30.731875 14.8009375 -33.041875 14.1409375 -35.421875 13.4609375 C-35.85578966 9.12179086 -35.73717378 6.97329801 -33.421875 3.2109375 C-25.68290082 -4.76255105 -9.45554158 -5.16961853 0 0 Z M-17.421875 8.4609375 C-19.21156526 10.88766317 -19.21156526 10.88766317 -20.421875 13.4609375 C-16.956875 12.9659375 -16.956875 12.9659375 -13.421875 12.4609375 C-13.421875 11.1409375 -13.421875 9.8209375 -13.421875 8.4609375 C-14.741875 8.4609375 -16.061875 8.4609375 -17.421875 8.4609375 Z M-12.421875 21.4609375 C-16.381875 23.4409375 -16.381875 23.4409375 -20.421875 25.4609375 C-19.431875 26.9459375 -19.431875 26.9459375 -18.421875 28.4609375 C-15.98470242 28.19059116 -15.98470242 28.19059116 -13.421875 27.4609375 C-12.761875 26.4709375 -12.101875 25.4809375 -11.421875 24.4609375 C-11.751875 23.4709375 -12.081875 22.4809375 -12.421875 21.4609375 Z " fill="#151515" transform="translate(250.421875,328.5390625)"/>
<path d="M0 0 C5.28 0 10.56 0 16 0 C16.02464775 5.53588533 16.04283496 11.071739 16.05493164 16.60766602 C16.05997244 18.4924373 16.06680498 20.37720465 16.07543945 22.26196289 C16.08751617 24.96501636 16.09323068 27.66801831 16.09765625 30.37109375 C16.10281754 31.21900986 16.10797882 32.06692596 16.11329651 32.9405365 C16.11349195 34.96071068 16.06206211 36.98077934 16 39 C15.505 39.495 15.505 39.495 15 40 C10.05 40 5.1 40 0 40 C0 26.8 0 13.6 0 0 Z " fill="#080808" transform="translate(487,328)"/>
<path d="M0 0 C5.61 0 11.22 0 17 0 C17 3.96 17 7.92 17 12 C11.39 12 5.78 12 0 12 C0 8.04 0 4.08 0 0 Z " fill="#232323" transform="translate(486,314)"/>
<path d="M0 0 C0.99 0.33 1.98 0.66 3 1 C-0.465 3.97 -0.465 3.97 -4 7 C-2.92598892 4.08482708 -2.22189824 2.22189824 0 0 Z " fill="#616161" transform="translate(363,329)"/>
</svg>
