<?xml version="1.0" encoding="UTF-8"?>
<svg version="1.1" xmlns="http://www.w3.org/2000/svg" width="2560" height="498">
<path d="M0 0 C4.12744204 0.43295475 6.72532853 1.89051226 10.1015625 4.234375 C11.12757568 4.93925049 12.15358887 5.64412598 13.21069336 6.37036133 C13.76336884 6.75559967 14.31604431 7.14083801 14.88546753 7.53775024 C17.30649907 9.22492479 19.74022938 10.89339766 22.17301941 12.56355286 C23.52751429 13.49375862 24.88134332 14.42493452 26.23457336 15.35697937 C34.83057241 21.27378983 43.48821894 27.09925137 52.14300537 32.92956543 C54.85676662 34.75810173 57.56939968 36.58829959 60.28173828 38.41894531 C68.99556395 44.29771794 77.72252328 50.15586012 86.47265625 55.98046875 C98.0829246 63.70913751 109.64101303 71.51437134 121.19775391 79.32275391 C130.94338282 85.90630297 140.69761852 92.4757464 150.48828125 98.9921875 C161.25274308 106.15676864 171.9727694 113.3863307 182.6875 120.625 C193.67614791 128.04814586 204.67185126 135.45914321 215.71217346 142.80526733 C222.37890966 147.24450515 229.0076811 151.73744714 235.625 156.25 C236.74734099 157.01440345 237.86973688 157.77872629 238.9921875 158.54296875 C241.66199218 160.3611978 244.33126493 162.18020155 247 164 C245.8801824 167.3594528 245.35513769 167.72340873 242.52734375 169.6015625 C241.80087646 170.0872168 241.07440918 170.57287109 240.32592773 171.07324219 C239.53774658 171.58532227 238.74956543 172.09740234 237.9375 172.625 C237.12547119 173.15770508 236.31344238 173.69041016 235.47680664 174.23925781 C227.84242957 179.19458014 220.0630416 183.78031487 212 188 C211.36900391 188.33451172 210.73800781 188.66902344 210.08789062 189.01367188 C175.19320616 207.26135091 134.1652801 215.07164584 95.84765625 203.66015625 C74.66768994 196.75280032 56.34006178 183.83421836 38.31176758 171.12304688 C25.81405125 162.37090089 13.00761711 154.07633103 0.23657227 145.73071289 C-15.50383173 135.42691496 -31.10017113 124.85293204 -46.23542786 113.67178345 C-48.09297709 112.32797787 -48.09297709 112.32797787 -51 111 C-53.58585859 111.34640962 -53.58585859 111.34640962 -56 113 C-56.55550537 113.32742187 -57.11101074 113.65484375 -57.68334961 113.9921875 C-59.5655098 115.1237407 -61.40821504 116.30398611 -63.25 117.5 C-63.88679687 117.90347656 -64.52359375 118.30695313 -65.1796875 118.72265625 C-68.64948827 120.81837881 -68.64948827 120.81837881 -71 124 C-70.35289062 124.21011719 -69.70578125 124.42023438 -69.0390625 124.63671875 C-64.79337211 126.54127652 -61.18462061 129.15599274 -57.375 131.8125 C-55.42805685 133.15505869 -53.480034 134.49605228 -51.53125 135.8359375 C-50.97895721 136.21610519 -50.42666443 136.59627289 -49.8576355 136.98796082 C-41.53162244 142.71006895 -33.14478025 148.3428731 -24.76690674 153.98861694 C-21.92145275 155.90619506 -19.07663743 157.82471748 -16.23193359 159.7434082 C-5.64472602 166.88443854 -5.64472602 166.88443854 4.97265625 173.98046875 C15.07013725 180.69752757 25.10504601 187.50856073 35.15600586 194.29492188 C48.30749173 203.17803148 48.30749173 203.17803148 61.5 212 C71.26227452 218.49238234 80.97097546 225.06444802 90.6875 231.625 C104.31649819 240.84046786 104.31649819 240.84046786 117.98828125 249.9921875 C128.15684309 256.75434894 138.2610752 263.61314326 148.38232422 270.44580078 C162.04670676 279.66997958 162.04670676 279.66997958 175.75341797 288.83105469 C184.91180501 294.94950186 194.02779135 301.13159407 203.15600586 307.29492188 C213.38677168 314.20203647 223.62167159 321.10189008 233.90136719 327.93603516 C244.90861092 335.26783775 244.90861092 335.26783775 247 337 C247 337.66 247 338.32 247 339 C246.43531006 339.22437744 245.87062012 339.44875488 245.28881836 339.67993164 C220.33750526 349.66692417 196.17049549 361.29266113 172.74267578 374.46240234 C169.80354189 376.11013826 166.85374266 377.73762459 163.90234375 379.36328125 C150.69118766 386.66453303 137.70293489 394.26945885 124.87255859 402.22021484 C121.97754795 404.01391088 119.07677579 405.79803344 116.17578125 407.58203125 C94.98917862 420.66467954 74.16398362 434.38465356 54 449 C53.21657227 449.56702637 52.43314453 450.13405273 51.62597656 450.71826172 C42.19725973 457.55989819 32.89078428 464.46679056 24 472 C22.92217513 472.9040038 21.84403258 473.80762892 20.765625 474.7109375 C14.41958031 480.04033393 8.1547376 485.44960356 2 491 C-1.33378154 489.75773197 -4.19382319 488.36326988 -7.1340332 486.36474609 C-7.91805008 485.83529388 -8.70206696 485.30584167 -9.50984192 484.76034546 C-10.3483519 484.18716583 -11.18686188 483.61398621 -12.05078125 483.0234375 C-12.93251511 482.42632965 -13.81424896 481.8292218 -14.72270203 481.21401978 C-17.58884931 479.2718902 -20.45061144 477.3233983 -23.3125 475.375 C-25.29845353 474.02809334 -27.2847832 472.68174113 -29.27148438 471.3359375 C-32.2132411 469.34316678 -35.1548269 467.35015269 -38.09524536 465.35540771 C-44.70811267 460.86975496 -51.3401378 456.41564177 -58 452 C-69.8292566 444.14426068 -81.58867406 436.18544213 -93.35647583 428.23809814 C-106.68639728 419.23766085 -120.0464844 410.28425875 -133.4375 401.375 C-145.32404652 393.46547089 -157.18192516 385.51829054 -168.9855957 377.4855957 C-179.06454363 370.6270327 -189.16643261 363.80271147 -199.27355957 356.98574829 C-201.1388549 355.72763817 -203.00401347 354.46932525 -204.86901855 353.21078491 C-216.33524017 345.47344446 -227.82078032 337.76617731 -239.33834839 330.10545349 C-240.89287484 329.07126757 -242.44647208 328.03568528 -244 327 C-242.47971832 322.8382289 -239.5079632 320.81517438 -236 318.375 C-235.38406982 317.9426001 -234.76813965 317.5102002 -234.13354492 317.06469727 C-226.4272691 311.77243556 -218.29083798 307.30055802 -210 303 C-209.25121582 302.60925293 -208.50243164 302.21850586 -207.73095703 301.81591797 C-190.30143052 292.8354722 -171.45913794 285.8574705 -152 283 C-150.18435547 282.72736328 -150.18435547 282.72736328 -148.33203125 282.44921875 C-109.96379743 277.83056593 -78.19896788 290.53175097 -46.9375 311.625 C-45.95128662 312.28612793 -44.96507324 312.94725586 -43.94897461 313.62841797 C-40.29580845 316.08043585 -36.64740608 318.53942641 -33 321 C-32.23594849 321.51530273 -31.47189697 322.03060547 -30.68469238 322.56152344 C-22.61300651 328.00547035 -14.54211806 333.4505978 -6.47338867 338.89892578 C6.5957893 347.72089757 19.69701803 356.49329345 32.83569336 365.21142578 C33.47184067 365.63424835 34.10798798 366.05707092 34.76341248 366.4927063 C35.9664671 367.29174611 37.17064838 368.08909299 38.37611389 368.88449097 C41.37141888 370.87030699 44.24870388 372.94244783 47.078125 375.15625 C49.7706655 377.18787538 49.7706655 377.18787538 52.44921875 377.12890625 C56.19497688 375.47113581 59.45685757 373.27199956 62.8125 370.9375 C63.50537109 370.46505859 64.19824219 369.99261719 64.91210938 369.50585938 C66.6130648 368.3445174 68.30722395 367.1732322 70 366 C66.52415673 363.15421776 62.96495763 360.54813118 59.2421875 358.03515625 C58.67816727 357.65358368 58.11414703 357.27201111 57.53303528 356.87887573 C55.64841209 355.60468156 53.76172846 354.33357436 51.875 353.0625 C50.52568404 352.15129107 49.17648481 351.23990927 47.82739258 350.32836914 C44.85896726 348.32337843 41.88954615 346.31987323 38.91943359 344.31738281 C34.55867581 341.37723597 30.19969268 338.43446779 25.84106445 335.49116516 C21.12374523 332.30581648 16.40566486 329.12159595 11.6875 325.9375 C10.79037292 325.33197296 9.89324585 324.72644592 8.96893311 324.10256958 C0.01896355 318.06275869 -8.93689441 312.03255643 -17.92578125 306.05078125 C-28.27393385 299.16425958 -38.57382878 292.20651865 -48.875 285.25 C-62.40440413 276.10096287 -62.40440413 276.10096287 -75.9765625 267.015625 C-86.14902002 260.25084143 -96.25718314 253.38948419 -106.38232422 246.55419922 C-120.04670676 237.33002042 -120.04670676 237.33002042 -133.75341797 228.16894531 C-142.91180501 222.05049814 -152.02779135 215.86840593 -161.15600586 209.70507812 C-174.29578272 200.82979557 -174.29578272 200.82979557 -187.4765625 192.015625 C-197.37175683 185.43487882 -207.21308166 178.77396085 -217.0625 172.125 C-219.96706271 170.16464349 -222.87170746 168.20440873 -225.776474 166.24435425 C-227.56742805 165.03582951 -229.3582577 163.8271204 -231.14894104 162.61819458 C-231.96096481 162.07017181 -232.77298859 161.52214905 -233.60961914 160.95751953 C-234.74211594 160.18991302 -234.74211594 160.18991302 -235.89749146 159.40679932 C-237.22744511 158.51692046 -238.56717385 157.641336 -239.91964722 156.78607178 C-241.31058419 155.90420987 -242.66135055 154.95937675 -244 154 C-244 153.34 -244 152.68 -244 152 C-243.33395752 151.7097998 -242.66791504 151.41959961 -241.98168945 151.12060547 C-216.09770567 139.80999412 -190.61186634 127.90203076 -166 114 C-164.41034424 113.10740479 -164.41034424 113.10740479 -162.78857422 112.19677734 C-128.58944361 92.96932093 -95.23506986 72.38040237 -63 50 C-61.81639893 49.17991455 -61.81639893 49.17991455 -60.60888672 48.34326172 C-51.76894435 42.2054032 -43.08477793 35.91806122 -34.62109375 29.26953125 C-32.89956529 27.92134631 -31.16912648 26.585185 -29.4375 25.25 C-23.17193063 20.40018807 -17.10005924 15.44360816 -11.26171875 10.078125 C-8.38587398 7.43572531 -5.44350119 4.87443162 -2.49609375 2.3125 C-1.64347059 1.56450684 -0.80201622 0.80201622 0 0 Z " fill="#DE0038" transform="translate(244,0)"/>
<path d="M0 0 C0.85673309 -0.00100708 1.71346619 -0.00201416 2.59616089 -0.00305176 C55.37877518 0.03831726 115.64777285 5.87050098 156 43.5 C164.69018986 52.57358059 170.41538055 63.34334549 174.25 75.25 C174.49492188 75.96542969 174.73984375 76.68085938 174.9921875 77.41796875 C176.84354313 83.56801998 176.25 88.39801865 176.25 95.25 C137.31 95.25 98.37 95.25 58.25 95.25 C55.94 90.96 53.63 86.67 51.25 82.25 C41.66208622 70.88654663 27.66241684 66.19638276 13.25 64.25 C9.30729911 63.97050484 5.38916909 63.91578929 1.4375 63.9375 C-0.13463257 63.94378418 -0.13463257 63.94378418 -1.73852539 63.95019531 C-15.52071889 64.15038479 -28.6726189 66.40726656 -39.33984375 75.6875 C-42.94999333 79.68766574 -43.26650318 83.56303973 -43.10546875 88.78515625 C-42.67498934 91.77012887 -41.75103941 93.83595101 -39.5625 95.953125 C-20.91003502 109.29928529 9.05124084 108.68554093 31.1875 111.25 C55.03473601 114.01528483 79.00565775 116.8278435 102.125 123.5625 C103.14126465 123.85390869 104.1575293 124.14531738 105.20458984 124.44555664 C132.38294445 132.46480696 162.8896606 145.55350321 177.75 171.1875 C181.18529529 177.62957141 183.52526495 184.16591875 185.25 191.25 C185.53617188 192.38308594 185.53617188 192.38308594 185.828125 193.5390625 C189.05707042 214.28802656 183.93386168 234.18534375 172.1171875 251.34765625 C147.28529626 282.98829187 106.96101124 294.33375098 68.67285156 299.11499023 C52.22591318 300.99864901 35.97701823 301.69402731 19.4284668 301.58618164 C15.55301175 301.56244188 11.67824478 301.56567753 7.80273438 301.57226562 C-13.03659816 301.54944493 -33.88653559 300.6832898 -54.5 297.4375 C-56.16518677 297.17984863 -56.16518677 297.17984863 -57.86401367 296.91699219 C-86.05244658 292.40877847 -112.92323941 285.07766326 -135.75 267.25 C-136.39582031 266.75886719 -137.04164063 266.26773437 -137.70703125 265.76171875 C-149.61626625 256.21820086 -157.27292029 242.17550743 -161.625 227.75 C-161.81602295 227.12343506 -162.0070459 226.49687012 -162.20385742 225.85131836 C-164.18731102 218.68479916 -164.74689902 211.77325736 -165.75 204.25 C-122.85 204.25 -79.95 204.25 -35.75 204.25 C-33.44 208.87 -31.13 213.49 -28.75 218.25 C-20.11198189 228.92049295 -7.24515583 234.69786593 6.25 236.25 C23.38206059 237.48432945 43.79951728 238.22043528 58.25 227.25 C63.09675028 222.1609122 63.62848022 217.84715419 63.51171875 211.0390625 C63.12394116 206.90662674 62.21977392 204.19663282 59.25 201.25 C48.8902052 193.97229386 35.20624063 192.90283268 22.97761345 191.63386154 C20.82729089 191.41058119 18.67821538 191.1774711 16.52919006 190.94204712 C13.46916325 190.60742622 10.40880194 190.27618035 7.34811401 189.94766235 C-43.785952 184.44327847 -43.785952 184.44327847 -68.75 179.25 C-70.29494141 178.93168213 -70.29494141 178.93168213 -71.87109375 178.60693359 C-100.75471234 172.51992922 -131.49392303 162.50593548 -149 137.05859375 C-160.77799594 118.15596187 -161.71082102 95.03408636 -156.96875 73.7421875 C-150.52154737 50.6767643 -134.2097957 33.78639162 -113.75 22.25 C-79.233157 3.52006203 -38.62079382 0.03199306 0 0 Z " fill="#00358F" transform="translate(767.75,96.75)"/>
<path d="M0 0 C35.31 0 70.62 0 107 0 C107 33 107 66 107 100 C113.3382991 94.81411892 119.44514928 89.73986395 125.46875 84.25 C128.97799486 81.13067124 132.63162123 78.20250867 136.28125 75.25 C138.92147729 73.06498431 141.4672972 70.80828609 144 68.5 C148.29991791 64.58108748 152.75919547 60.90829131 157.28125 57.25 C159.92147729 55.06498431 162.4672972 52.80828609 165 50.5 C169.29991791 46.58108748 173.75919547 42.90829131 178.28125 39.25 C181.77908151 36.35524289 185.11785404 33.30410461 188.47265625 30.24609375 C191.06962393 27.93812402 193.73404013 25.74444137 196.4375 23.5625 C201.09658218 19.79460654 205.53013524 15.84195146 209.90625 11.75 C210.59734501 11.14232615 210.59734501 11.14232615 211.30240154 10.52237606 C212.6429728 9.32017563 213.93844606 8.06769547 215.21588612 6.79861546 C222.66909206 -0.09513789 228.03673559 -1.2777684 238.00854492 -1.02172852 C239.37960644 -1.01918371 240.75068017 -1.02062683 242.12173462 -1.02571106 C245.81008317 -1.02827253 249.49574761 -0.97571508 253.18347716 -0.91254544 C257.0496918 -0.85592515 260.91598172 -0.85096906 264.782547 -0.84031677 C272.08908235 -0.81244722 279.39439221 -0.73873686 286.70039016 -0.64817137 C295.02437585 -0.54724745 303.34842297 -0.49800915 311.67286909 -0.45291245 C328.78261921 -0.35907472 345.89117965 -0.20097886 363 0 C361.10871507 4.2023592 358.2480635 6.61390873 354.75 9.5 C353.4738096 10.57273975 352.19777214 11.64566146 350.921875 12.71875 C350.26896484 13.26402344 349.61605469 13.80929688 348.94335938 14.37109375 C345.94012955 16.88837383 342.97099126 19.44483809 340 22 C338.83480788 22.99889913 337.66944269 23.99759641 336.50390625 24.99609375 C334.15658474 27.00799002 331.81033583 29.02112758 329.46484375 31.03515625 C323.29340193 36.3327656 317.10598459 41.61015999 310.89208984 46.85791016 C305.15831236 51.70396642 299.46176847 56.59313781 293.76611328 61.48388672 C290.26349055 64.49069999 286.75766627 67.49377971 283.25244141 70.49755859 C280.32218196 73.00885886 277.39270413 75.52105919 274.46484375 78.03515625 C268.29340193 83.3327656 262.10598459 88.61015999 255.89208984 93.85791016 C250.15831236 98.70396642 244.46176847 103.59313781 238.76611328 108.48388672 C235.2686142 111.48630161 231.76792273 114.48499363 228.26782227 117.484375 C225.25039839 120.07037471 222.23386279 122.65739963 219.21875 125.24609375 C218.59613281 125.78041016 217.97351562 126.31472656 217.33203125 126.86523438 C216.15204596 127.87790832 214.97233671 128.89090404 213.79296875 129.90429688 C210.22156608 132.96854332 206.62135808 135.99492726 203 139 C204.56480825 142.92558833 207.05741687 145.09551997 210.1875 147.875 C211.27549524 148.85072055 212.36269738 149.82732598 213.44921875 150.8046875 C214.02591309 151.3212793 214.60260742 151.83787109 215.19677734 152.37011719 C218.33509655 155.20675664 221.41444809 158.10623237 224.5 161 C228.97875317 165.19044087 233.47264711 169.36209682 238 173.5 C243.15403568 178.21127288 248.2629371 182.96899392 253.36328125 187.73828125 C257.39533714 191.50701921 261.44047252 195.26087919 265.5 199 C270.82643878 203.90655631 276.12343104 208.84394166 281.4140625 213.7890625 C285.42969951 217.54029543 289.45830753 221.27686457 293.5 225 C298.8264067 229.90659139 304.12343075 234.84394139 309.4140625 239.7890625 C313.42969951 243.54029543 317.45830753 247.27686457 321.5 251 C326.81723367 255.89814136 332.10750105 260.8245015 337.38549805 265.76489258 C340.49863531 268.67629368 343.62159402 271.57544345 346.76953125 274.44921875 C347.36636719 274.99513672 347.96320312 275.54105469 348.578125 276.10351562 C349.70455712 277.13227289 350.83333593 278.15846866 351.96484375 279.18164062 C354.34416109 281.35658071 356.19987495 283.29981242 358 286 C339.63203512 286.35164719 321.26495286 286.61551151 302.89434052 286.77718258 C294.36281793 286.85427301 285.83339594 286.95920647 277.30322266 287.1315918 C269.86117603 287.28191456 262.42065126 287.37805922 254.97712851 287.41132742 C251.041066 287.43075469 247.1093536 287.47580632 243.17469788 287.58595085 C216.09360398 288.31494237 216.09360398 288.31494237 207.32370758 280.79940891 C204.81836406 278.27616951 202.55972385 275.66235908 200.41545105 272.82719612 C198.32997126 270.13506447 195.94975406 267.8623119 193.5 265.5 C192.72398437 264.71367187 191.94796875 263.92734375 191.1484375 263.1171875 C189.19992506 261.19701706 187.20538898 259.39969917 185.125 257.625 C181.56713773 254.58569255 178.28558309 251.3263598 175 248 C171.75548422 244.71531689 168.52077616 241.49265974 165 238.5 C161.47922306 235.5073396 158.2445247 232.2846735 155 229 C151.77601913 225.73617385 148.56482153 222.53169859 145.0625 219.5625 C140.7213693 215.87389834 136.78165659 211.80756243 132.77978516 207.76025391 C129.91473098 204.87523999 127.03838945 202.07228498 123.9375 199.4375 C118.36589451 194.57339996 113.22983064 189.22983064 108 184 C107.67 217.66 107.34 251.32 107 286 C71.69 286 36.38 286 0 286 C0 191.62 0 97.24 0 0 Z " fill="#00368F" transform="translate(2067,105)"/>
<path d="M0 0 C107.91 0 215.82 0 327 0 C327 20.13 327 40.26 327 61 C322.85600448 65.14399552 318.89259431 69.00040023 314.4921875 72.79296875 C311.14409075 75.75797606 307.88719879 78.81608242 304.625 81.875 C300.45001793 85.78879012 296.26874741 89.6881085 292 93.5 C287.77599986 97.27344012 283.63362908 101.12830385 279.5 105 C274.60100528 109.58856337 269.6622163 114.12175344 264.65625 118.59375 C261.23588054 121.69220233 257.86831892 124.84517196 254.5 128 C249.55124877 132.63446686 244.56598164 137.21868419 239.51171875 141.73828125 C234.8582295 145.92859272 230.27312358 150.19346168 225.67773438 154.44726562 C222.93282508 156.9876648 220.18538781 159.52532337 217.4375 162.0625 C216.89891357 162.55983643 216.36032715 163.05717285 215.80541992 163.56958008 C211.71880524 167.34122461 207.6208802 171.10037135 203.51928711 174.85571289 C199.83772478 178.2280119 196.16694599 181.61181813 192.5 185 C186.34850286 190.68329935 180.17710239 196.34454583 174 202 C171.77056363 204.04137241 169.54145376 206.08310066 167.3125 208.125 C166.53604126 208.83571655 166.53604126 208.83571655 165.74389648 209.56079102 C163.33931305 211.74600232 163.33931305 211.74600232 161 214 C243.17 214.495 243.17 214.495 327 215 C327 238.43 327 261.86 327 286 C217.44 286 107.88 286 -5 286 C-5 266.2 -5 246.4 -5 226 C7.88888889 213.11111111 7.88888889 213.11111111 13.140625 208.640625 C15.89082773 206.21397553 18.42388177 203.58513769 20.99609375 200.97265625 C23.58246151 198.42662171 26.3153528 196.07978443 29.06640625 193.71484375 C31.56431556 191.4995262 33.88024989 189.1310183 36.21875 186.75 C38.71896185 184.29365151 41.37680516 182.03690632 44.03125 179.75 C45.93023071 178.06201714 47.72005988 176.31230266 49.5 174.5 C52.53832417 171.40643357 55.7476532 168.57894493 59.03125 165.75 C60.93023071 164.06201714 62.72005988 162.31230266 64.5 160.5 C67.53832417 157.40643357 70.7476532 154.57894493 74.03125 151.75 C75.93023071 150.06201714 77.72005988 148.31230266 79.5 146.5 C82.53832417 143.40643357 85.7476532 140.57894493 89.03125 137.75 C90.93023071 136.06201714 92.72005988 134.31230266 94.5 132.5 C96.89053167 130.06610268 99.35046262 127.78644441 101.9375 125.5625 C104.74576347 123.14382221 107.39970593 120.64100317 110 118 C113.2215855 114.72797872 116.58592145 111.70683945 120.06640625 108.71484375 C122.56431556 106.4995262 124.88024989 104.1310183 127.21875 101.75 C129.71896185 99.29365151 132.37680516 97.03690632 135.03125 94.75 C136.93023071 93.06201714 138.72005988 91.31230266 140.5 89.5 C143.46641492 86.47965027 146.57936536 83.70019134 149.8125 80.96875 C152.99363524 78.10572828 155.97373871 75.02626129 159 72 C106.53 71.67 54.06 71.34 0 71 C0 47.57 0 24.14 0 0 Z " fill="#00368F" transform="translate(1342,105)"/>
<path d="M0 0 C0.95018005 0.00359528 1.90036011 0.00719055 2.8793335 0.01089478 C4.37184883 0.01067574 4.37184883 0.01067574 5.89451599 0.01045227 C9.20059348 0.01115186 12.5066154 0.01894637 15.81268311 0.02676392 C18.09811879 0.02862793 20.38355487 0.03005191 22.66899109 0.03105164 C28.69751073 0.03487809 34.72600644 0.04470947 40.7545166 0.05575562 C46.90085527 0.06596699 53.04719778 0.07054867 59.19354248 0.07559204 C71.26321447 0.08633162 83.33286868 0.10340957 95.40252686 0.12442017 C95.4047267 1.49380486 95.4047267 1.49380486 95.40697098 2.89085388 C95.4441127 25.16155475 95.50322472 47.43210432 95.5864296 69.7026825 C95.62614462 80.47282136 95.65857529 91.24288796 95.67352295 102.01309204 C95.68657865 111.40650193 95.71364275 120.7997523 95.75713992 130.19307232 C95.77966693 135.16125277 95.79544283 140.1292371 95.79441071 145.09747314 C95.79365888 149.78597592 95.81181695 154.47404662 95.84369469 159.16243744 C95.85212445 160.87145767 95.85399148 162.58052677 95.84832954 164.28955841 C95.79868585 181.59676123 98.20563286 198.07890902 110.40643311 211.27676392 C123.09447341 223.0212709 142.95288533 225.76894963 159.69158936 225.31192017 C176.94657447 224.1184918 194.37485979 221.56507704 206.80877686 208.22207642 C215.88568331 196.27526572 218.4865904 181.21814312 218.56074524 166.55667114 C218.56568322 165.83929763 218.57062119 165.12192412 218.57570881 164.38281202 C218.59094437 162.00306373 218.59940616 159.62334211 218.60784912 157.24356079 C218.61743864 155.52811452 218.62744934 153.81267056 218.6378479 152.097229 C218.66478672 147.45736969 218.68585567 142.81750032 218.70584989 138.17760658 C218.72777776 133.32225353 218.75513305 128.4669311 218.78190613 123.61160278 C218.83174131 114.42498407 218.87671403 105.23834828 218.91992849 96.0516963 C218.97863166 83.63237094 219.04486904 71.21308589 219.11067867 58.79379654 C219.21410978 39.23736495 219.30749434 19.68089855 219.40252686 0.12442017 C253.06252686 0.12442017 286.72252686 0.12442017 321.40252686 0.12442017 C321.44282989 39.89008059 321.44282989 39.89008059 321.45135498 56.82363892 C321.45724049 68.41950941 321.4640774 80.01537253 321.47796631 91.61123657 C321.48808592 100.06430538 321.49442028 108.51736808 321.49661535 116.97044277 C321.49789389 121.42626643 321.50078996 125.88207268 321.50825691 130.33789062 C321.53674655 148.21658954 321.48207277 166.0948916 321.13245285 183.97070312 C321.1008161 185.65993687 321.07339251 187.34925639 321.05079663 189.03863525 C320.67416308 215.81348273 314.80164423 240.57216477 295.43768311 260.27676392 C264.3034794 290.35107984 213.84642484 297.16119256 172.68377686 297.32754517 C171.51479355 297.33455948 170.34581024 297.34157379 169.1414032 297.34880066 C165.39507139 297.36618975 161.64889753 297.37265153 157.90252686 297.37442017 C156.62418976 297.37509491 155.34585266 297.37576965 154.02877808 297.37646484 C121.83541769 297.34942498 89.93925225 295.24978402 59.40252686 284.12442017 C58.36539551 283.74978638 58.36539551 283.74978638 57.30731201 283.36758423 C34.28730925 274.89008039 13.27249961 260.35612058 2.52752686 237.68692017 C-5.44840634 219.88480154 -6.88135235 201.76544706 -7.01153564 182.56973267 C-7.03050712 180.74693085 -7.05018201 178.92413623 -7.07049561 177.10134888 C-7.12258512 172.17668232 -7.16224223 167.25199038 -7.19876862 162.32718658 C-7.22256374 159.23765726 -7.24975268 156.14817624 -7.27807617 153.0586853 C-7.58788397 119.13467988 -7.69899016 85.20992356 -7.71996307 51.2845993 C-7.72247809 47.7424553 -7.72644092 44.20031503 -7.73059082 40.65817261 C-7.73642189 35.09113152 -7.73654366 29.524119 -7.73191833 23.95707703 C-7.73083664 21.89922608 -7.73137546 19.84137359 -7.7335968 17.78352356 C-7.7361242 14.97866992 -7.73240305 12.1738967 -7.72686768 9.36904907 C-7.72889505 8.53985521 -7.73092243 7.71066135 -7.73301125 6.85634041 C-7.70600713 -0.29278882 -7.07236845 0.01130982 0 0 Z " fill="#00368F" transform="translate(1710.5974731445313,104.87557983398438)"/>
<path d="M0 0 C33.66 0 67.32 0 102 0 C102.06058594 11.89289063 102.12117188 23.78578125 102.18359375 36.0390625 C102.22410192 43.58594072 102.26484428 51.13281648 102.30664062 58.6796875 C102.37289736 70.65102918 102.43821442 82.62237056 102.49731445 94.59375 C102.5403685 103.31394 102.58669798 112.03410556 102.63687855 120.75425756 C102.66330975 125.36685032 102.68815651 129.97943876 102.70907402 134.59206009 C102.7288608 138.94388634 102.75306534 143.2956668 102.78049088 147.6474514 C102.78974611 149.23476887 102.79746106 150.82209628 102.80341911 152.40942955 C102.62990052 182.97026549 102.62990052 182.97026549 116.22265625 209.5 C130.58304994 223.3369562 149.91526705 225.19682229 169 225 C185.29050529 224.36637475 201.69335852 221.06411817 213.3125 208.75 C225.86501506 193.59081346 226.13826271 174.84498281 226.20532227 156.09741211 C226.21491431 154.39167043 226.22492515 152.68593106 226.23532104 150.98019409 C226.26223252 146.37138477 226.2833161 141.76256535 226.30332303 137.15372157 C226.32526798 132.32907086 226.35261484 127.50445078 226.37937927 122.67982483 C226.42919155 113.55344658 226.47417267 104.42705123 226.51740164 95.30063969 C226.57613027 82.96123251 226.6423552 70.62186568 226.70815182 58.28249454 C226.81154704 38.8550236 226.90495541 19.42751775 227 0 C260.66 0 294.32 0 329 0 C329.04030303 34.81734345 329.04030303 34.81734345 329.04882812 49.82617188 C329.05467753 60.03996305 329.06145375 70.2537456 329.07543945 80.4675293 C329.10538529 102.97857026 329.09498152 125.48911182 329 148 C328.99709048 148.72614156 328.99418097 149.45228312 328.99118328 150.20042896 C328.95545387 158.95651791 328.89417553 167.71166742 328.78719902 176.46724129 C328.76038173 178.83574272 328.73960759 181.20432254 328.72572517 183.5729351 C328.54072672 212.2497526 323.82649371 238.73886968 303.0703125 260.08203125 C272.18913976 290.31443986 221.27735753 297.03744467 180.28125 297.203125 C179.11231201 297.21013931 177.94337402 297.21715363 176.73901367 297.22438049 C172.99263608 297.2417703 169.24641645 297.24823147 165.5 297.25 C164.22133057 297.25067474 162.94266113 297.25134949 161.62524414 297.25204468 C143.24012727 297.23660737 125.1771677 297.01287142 107 294 C105.93136719 293.82839355 104.86273437 293.65678711 103.76171875 293.47998047 C71.08506694 288.0580983 36.2830584 276.50789041 16.16796875 248.41796875 C4.2288955 230.20026536 0.94653069 210.21620034 0.68359375 188.7890625 C0.66274744 187.31769036 0.64170403 185.84632101 0.6204834 184.37495422 C0.56386622 180.31480184 0.51462742 176.25459025 0.46757126 172.19431686 C0.437435 169.61944634 0.40552924 167.04460245 0.37332153 164.46975708 C-0.30098209 109.65087718 -0.08084476 54.82172715 0 0 Z " fill="#00358F" transform="translate(979,105)"/>
<path d="M0 0 C34.98 0 69.96 0 106 0 C106 94.38 106 188.76 106 286 C71.02 286 36.04 286 0 286 C0 191.62 0 97.24 0 0 Z " fill="#00368F" transform="translate(2454,105)"/>
</svg>
